{
.appVersion = "1271";
copyright = "Copyright 2018 Google LLC. All Rights Reserved.";
customParameters = (
{
name = glyphOrder;
value = (
.notdef,
NULL,
CR,
space,
uni00A0,
uni200C,
uni200D,
uni25CC,
u1BC00,
u1BC01,
u1BC02,
u1BC03,
u1BC04,
u1BC05,
u1BC06,
u1BC07,
u1BC08,
u1BC09,
u1BC0A,
u1BC0B,
u1BC0C,
u1BC0D,
u1BC0E,
u1BC0F,
u1BC10,
u1BC11,
u1BC12,
u1BC13,
u1BC14,
u1BC15,
u1BC16,
u1BC17,
u1BC18,
u1BC19,
u1BC1A,
u1BC1B,
u1BC1C,
u1BC1D,
u1BC1E,
u1BC1F,
u1BC20,
u1BC21,
u1BC22,
u1BC23,
u1BC24,
u1BC25,
u1BC26,
u1BC27,
u1BC28,
u1BC29,
u1BC2A,
u1BC2B,
u1BC2C,
u1BC2D,
u1BC2E,
u1BC2F,
u1BC30,
u1BC31,
u1BC32,
u1BC33,
u1BC34,
u1BC35,
u1BC36,
u1BC37,
u1BC38,
u1BC39,
u1BC3A,
u1BC3B,
u1BC3C,
u1BC3D,
u1BC3E,
u1BC3F,
u1BC40,
u1BC41,
u1BC42,
u1BC43,
u1BC44,
u1BC45,
u1BC46,
u1BC47,
u1BC48,
u1BC49,
u1BC4A,
u1BC4B,
u1BC4C,
u1BC4D,
u1BC4E,
u1BC4F,
u1BC50,
u1BC51,
u1BC52,
u1BC53,
u1BC54,
u1BC55,
u1BC56,
u1BC57,
u1BC58,
u1BC59,
u1BC5A,
u1BC5B,
u1BC5C,
u1BC5D,
u1BC5E,
u1BC5F,
u1BC60,
u1BC61,
u1BC62,
u1BC63,
u1BC64,
u1BC65,
u1BC66,
u1BC67,
u1BC68,
u1BC69,
u1BC6A,
u1BC70,
u1BC71,
u1BC72,
u1BC73,
u1BC74,
u1BC75,
u1BC76,
u1BC77,
u1BC78,
u1BC79,
u1BC7A,
u1BC7B,
u1BC7C,
u1BC80,
u1BC81,
u1BC82,
u1BC83,
u1BC84,
u1BC85,
u1BC86,
u1BC87,
u1BC88,
u1BC90,
u1BC91,
u1BC92,
u1BC93,
u1BC94,
u1BC95,
u1BC96,
u1BC97,
u1BC98,
u1BC99,
u1BC9C,
u1BC9D,
u1BC9E,
u1BC9F,
vertical,
horiz.1,
dot1,
u1BCA0,
u1BCA1,
u1BCA2,
u1BCA3
);
},
{
name = description;
value = "Designed by Monotype design team.";
},
{
name = license;
value = "This Font Software is licensed under the SIL Open Font License, Version 1.1. This Font Software is distributed on an \"AS IS\" BASIS, WITHOUT WARRANTIES OR CONDITIONS OF ANY KIND, either express or implied. See the SIL Open Font License for the specific language, permissions and limitations governing your use of this Font Software.";
},
{
name = licenseURL;
value = "http://scripts.sil.org/OFL";
},
{
name = vendorID;
value = GOOG;
},
{
name = unicodeRanges;
value = (
0,
1,
31,
45,
57
);
},
{

glyphs = (
{
glyphname = .notdef;
lastChange = "2018-08-24 14:01:58 +0000";
layers = (
{
layerId = "65D08ED1-0487-4E0A-9DF3-A4513C174D42";
paths = (
{
closed = 1;
nodes = (
"505 0 LINE",
"505 714 LINE",
"94 714 LINE",
"94 0 LINE"
);
},
{
closed = 1;
nodes = (
"145 663 LINE",
"454 663 LINE",
"454 51 LINE",
"145 51 LINE"
);
}
);
width = 600;
}
);
},
{
glyphname = uni25CC;
lastChange = "2018-08-24 14:01:58 +0000";
layers = (
{
layerId = "65D08ED1-0487-4E0A-9DF3-A4513C174D42";
paths = (
{
closed = 1;
nodes = (
"469 423 OFFCURVE",
"481 435 OFFCURVE",
"481 449 CURVE SMOOTH",
"481 463 OFFCURVE",
"469 475 OFFCURVE",
"455 475 CURVE SMOOTH",
"441 475 OFFCURVE",
"429 463 OFFCURVE",
"429 449 CURVE SMOOTH",
"429 435 OFFCURVE",
"441 423 OFFCURVE",
"455 423 CURVE SMOOTH"
);
},
{
closed = 1;
nodes = (
"153 107 OFFCURVE",
"165 119 OFFCURVE",
"165 133 CURVE SMOOTH",
"165 147 OFFCURVE",
"153 159 OFFCURVE",
"139 159 CURVE SMOOTH",
"125 159 OFFCURVE",
"113 147 OFFCURVE",
"113 133 CURVE SMOOTH",
"113 119 OFFCURVE",
"125 107 OFFCURVE",
"139 107 CURVE SMOOTH"
);
},
{
closed = 1;
nodes = (
"106 181 OFFCURVE",
"118 193 OFFCURVE",
"118 207 CURVE SMOOTH",
"118 221 OFFCURVE",
"106 233 OFFCURVE",
"92 233 CURVE SMOOTH",
"78 233 OFFCURVE",
"66 221 OFFCURVE",
"66 207 CURVE SMOOTH",
"66 193 OFFCURVE",
"78 181 OFFCURVE",
"92 181 CURVE SMOOTH"
);
},
{
closed = 1;
nodes = (
"227 60 OFFCURVE",
"239 72 OFFCURVE",
"239 86 CURVE SMOOTH",
"239 100 OFFCURVE",
"227 112 OFFCURVE",
"213 112 CURVE SMOOTH",
"199 112 OFFCURVE",
"187 100 OFFCURVE",
"187 86 CURVE SMOOTH",
"187 72 OFFCURVE",
"199 60 OFFCURVE",
"213 60 CURVE SMOOTH"
);
},
{
closed = 1;
nodes = (
"88 265 OFFCURVE",
"100 277 OFFCURVE",
"100 291 CURVE SMOOTH",
"100 305 OFFCURVE",
"88 317 OFFCURVE",
"74 317 CURVE SMOOTH",
"60 317 OFFCURVE",
"48 305 OFFCURVE",
"48 291 CURVE SMOOTH",
"48 277 OFFCURVE",
"60 265 OFFCURVE",
"74 265 CURVE SMOOTH"
);
},
{
closed = 1;
nodes = (
"311 42 OFFCURVE",
"323 54 OFFCURVE",
"323 68 CURVE SMOOTH",
"323 82 OFFCURVE",
"311 94 OFFCURVE",
"297 94 CURVE SMOOTH",
"283 94 OFFCURVE",
"271 82 OFFCURVE",
"271 68 CURVE SMOOTH",
"271 54 OFFCURVE",
"283 42 OFFCURVE",
"297 42 CURVE SMOOTH"
);
},
{
closed = 1;
nodes = (
"106 349 OFFCURVE",
"118 361 OFFCURVE",
"118 375 CURVE SMOOTH",
"118 389 OFFCURVE",
"106 401 OFFCURVE",
"92 401 CURVE SMOOTH",
"78 401 OFFCURVE",
"66 389 OFFCURVE",
"66 375 CURVE SMOOTH",
"66 361 OFFCURVE",
"78 349 OFFCURVE",
"92 349 CURVE SMOOTH"
);
},
{
closed = 1;
nodes = (
"395 60 OFFCURVE",
"407 72 OFFCURVE",
"407 86 CURVE SMOOTH",
"407 100 OFFCURVE",
"395 112 OFFCURVE",
"381 112 CURVE SMOOTH",
"367 112 OFFCURVE",
"355 100 OFFCURVE",
"355 86 CURVE SMOOTH",
"355 72 OFFCURVE",
"367 60 OFFCURVE",
"381 60 CURVE SMOOTH"
);
},
{
closed = 1;
nodes = (
"153 423 OFFCURVE",
"165 435 OFFCURVE",
"165 449 CURVE SMOOTH",
"165 463 OFFCURVE",
"153 475 OFFCURVE",
"139 475 CURVE SMOOTH",
"125 475 OFFCURVE",
"113 463 OFFCURVE",
"113 449 CURVE SMOOTH",
"113 435 OFFCURVE",
"125 423 OFFCURVE",
"139 423 CURVE SMOOTH"
);
},
{
closed = 1;
nodes = (
"469 107 OFFCURVE",
"481 119 OFFCURVE",
"481 133 CURVE SMOOTH",
"481 147 OFFCURVE",
"469 159 OFFCURVE",
"455 159 CURVE SMOOTH",
"441 159 OFFCURVE",
"429 147 OFFCURVE",
"429 133 CURVE SMOOTH",
"429 119 OFFCURVE",
"441 107 OFFCURVE",
"455 107 CURVE SMOOTH"
);
},
{
closed = 1;
nodes = (
"227 470 OFFCURVE",
"239 482 OFFCURVE",
"239 496 CURVE SMOOTH",
"239 510 OFFCURVE",
"227 522 OFFCURVE",
"213 522 CURVE SMOOTH",
"199 522 OFFCURVE",
"187 510 OFFCURVE",
"187 496 CURVE SMOOTH",
"187 482 OFFCURVE",
"199 470 OFFCURVE",
"213 470 CURVE SMOOTH"
);
},
{
closed = 1;
nodes = (
"516 181 OFFCURVE",
"528 193 OFFCURVE",
"528 207 CURVE SMOOTH",
"528 221 OFFCURVE",
"516 233 OFFCURVE",
"502 233 CURVE SMOOTH",
"488 233 OFFCURVE",
"476 221 OFFCURVE",
"476 207 CURVE SMOOTH",
"476 193 OFFCURVE",
"488 181 OFFCURVE",
"502 181 CURVE SMOOTH"
);
},
{
closed = 1;
nodes = (
"311 488 OFFCURVE",
"323 500 OFFCURVE",
"323 514 CURVE SMOOTH",
"323 528 OFFCURVE",
"311 540 OFFCURVE",
"297 540 CURVE SMOOTH",
"283 540 OFFCURVE",
"271 528 OFFCURVE",
"271 514 CURVE SMOOTH",
"271 500 OFFCURVE",
"283 488 OFFCURVE",
"297 488 CURVE SMOOTH"
);
},
{
closed = 1;
nodes = (
"534 265 OFFCURVE",
"546 277 OFFCURVE",
"546 291 CURVE SMOOTH",
"546 305 OFFCURVE",
"534 317 OFFCURVE",
"520 317 CURVE SMOOTH",
"506 317 OFFCURVE",
"494 305 OFFCURVE",
"494 291 CURVE SMOOTH",
"494 277 OFFCURVE",
"506 265 OFFCURVE",
"520 265 CURVE SMOOTH"
);
},
{
closed = 1;
nodes = (
"395 470 OFFCURVE",
"407 482 OFFCURVE",
"407 496 CURVE SMOOTH",
"407 510 OFFCURVE",
"395 522 OFFCURVE",
"381 522 CURVE SMOOTH",
"367 522 OFFCURVE",
"355 510 OFFCURVE",
"355 496 CURVE SMOOTH",
"355 482 OFFCURVE",
"367 470 OFFCURVE",
"381 470 CURVE SMOOTH"
);
},
{
closed = 1;
nodes = (
"516 349 OFFCURVE",
"528 361 OFFCURVE",
"528 375 CURVE SMOOTH",
"528 389 OFFCURVE",
"516 401 OFFCURVE",
"502 401 CURVE SMOOTH",
"488 401 OFFCURVE",
"476 389 OFFCURVE",
"476 375 CURVE SMOOTH",
"476 361 OFFCURVE",
"488 349 OFFCURVE",
"502 349 CURVE SMOOTH"
);
}
);
width = 594;
}
);
unicode = 25CC;
},
{
glyphname = u1BC00;
lastChange = "2018-08-24 14:01:58 +0000";
layers = (
{
layerId = "65D08ED1-0487-4E0A-9DF3-A4513C174D42";
paths = (
{
closed = 1;
nodes = (
"170 191 OFFCURVE",
"200 221 OFFCURVE",
"200 261 CURVE SMOOTH",
"200 300 OFFCURVE",
"170 331 OFFCURVE",
"130 331 CURVE SMOOTH",
"91 331 OFFCURVE",
"60 300 OFFCURVE",
"60 261 CURVE SMOOTH",
"60 221 OFFCURVE",
"91 191 OFFCURVE",
"130 191 CURVE SMOOTH"
);
}
);
width = 260;
}
);
unicode = 1BC00;
},
{
glyphname = u1BC01;
lastChange = "2018-08-24 14:01:58 +0000";
layers = (
{
layerId = "65D08ED1-0487-4E0A-9DF3-A4513C174D42";
paths = (
{
closed = 1;
nodes = (
"202 92 LINE",
"226 265 LINE",
"139 290 LINE",
"157 416 LINE",
"83 416 LINE",
"60 245 LINE",
"146 217 LINE",
"129 92 LINE"
);
}
);
width = 286;
}
);
unicode = 1BC01;
},
{
glyphname = u1BC02;
lastChange = "2018-08-24 14:01:58 +0000";
layers = (
{
layerId = "65D08ED1-0487-4E0A-9DF3-A4513C174D42";
paths = (
{
closed = 1;
nodes = (
"176 50 LINE",
"176 460 LINE",
"100 460 LINE",
"100 50 LINE"
);
}
);
width = 276;
}
);
unicode = 1BC02;
},
{
glyphname = u1BC03;
lastChange = "2018-08-24 14:01:58 +0000";
layers = (
{
layerId = "65D08ED1-0487-4E0A-9DF3-A4513C174D42";
paths = (
{
closed = 1;
nodes = (
"461 231 LINE",
"461 305 LINE",
"50 305 LINE",
"50 231 LINE"
);
}
);
width = 511;
}
);
unicode = 1BC03;
},
{
glyphname = u1BC04;
lastChange = "2018-08-24 14:01:58 +0000";
layers = (
{
layerId = "65D08ED1-0487-4E0A-9DF3-A4513C174D42";
paths = (
{
closed = 1;
nodes = (
"324 80 LINE",
"99 470 LINE",
"30 430 LINE",
"255 40 LINE"
);
}
);
width = 354;
}
);
unicode = 1BC04;
},
{
glyphname = u1BC05;
lastChange = "2018-08-24 14:01:58 +0000";
layers = (
{
layerId = "65D08ED1-0487-4E0A-9DF3-A4513C174D42";
paths = (
{
closed = 1;
nodes = (
"377 430 LINE",
"308 470 LINE",
"83 80 LINE",
"152 40 LINE"
);
},
{
closed = 1;
nodes = (
"148 254 LINE",
"108 278 LINE",
"206 436 LINE",
"167 459 LINE",
"71 302 LINE",
"30 326 LINE",
"33 200 LINE"
);
}
);
width = 407;
}
);
unicode = 1BC05;
},
{
glyphname = u1BC06;
lastChange = "2018-08-24 14:01:58 +0000";
layers = (
{
layerId = "65D08ED1-0487-4E0A-9DF3-A4513C174D42";
paths = (
{
closed = 1;
nodes = (
"405 381 LINE",
"349 438 LINE",
"30 119 LINE",
"87 63 LINE"
);
},
{
closed = 1;
nodes = (
"202 385 LINE",
"235 351 LINE",
"266 473 LINE",
"140 452 LINE",
"173 418 LINE",
"36 292 LINE",
"68 259 LINE"
);
}
);
width = 435;
}
);
unicode = 1BC06;
},
{
glyphname = u1BC07;
lastChange = "2018-08-24 14:01:58 +0000";
layers = (
{
layerId = "65D08ED1-0487-4E0A-9DF3-A4513C174D42";
paths = (
{
closed = 1;
nodes = (
"176 -100 LINE",
"176 600 LINE",
"100 600 LINE",
"100 -100 LINE"
);
}
);
width = 276;
}
);
unicode = 1BC07;
},
{
glyphname = u1BC08;
lastChange = "2018-08-24 14:01:58 +0000";
layers = (
{
layerId = "65D08ED1-0487-4E0A-9DF3-A4513C174D42";
paths = (
{
closed = 1;
nodes = (
"851 231 LINE",
"851 305 LINE",
"50 305 LINE",
"50 231 LINE"
);
}
);
width = 901;
}
);
unicode = 1BC08;
},
{
glyphname = u1BC09;
lastChange = "2018-08-24 14:01:58 +0000";
layers = (
{
layerId = "65D08ED1-0487-4E0A-9DF3-A4513C174D42";
paths = (
{
closed = 1;
nodes = (
"492 -70 LINE",
"99 610 LINE",
"30 570 LINE",
"423 -110 LINE"
);
}
);
width = 522;
}
);
unicode = 1BC09;
},
{
glyphname = u1BC0A;
lastChange = "2018-08-24 14:01:58 +0000";
layers = (
{
layerId = "65D08ED1-0487-4E0A-9DF3-A4513C174D42";
paths = (
{
closed = 1;
nodes = (
"492 570 LINE",
"423 610 LINE",
"30 -70 LINE",
"99 -110 LINE"
);
},
{
closed = 1;
nodes = (
"191 295 LINE",
"151 319 LINE",
"249 477 LINE",
"210 500 LINE",
"114 343 LINE",
"73 367 LINE",
"76 241 LINE"
);
}
);
width = 522;
}
);
unicode = 1BC0A;
},
{
glyphname = u1BC0B;
lastChange = "2018-08-24 14:01:58 +0000";
layers = (
{
layerId = "65D08ED1-0487-4E0A-9DF3-A4513C174D42";
paths = (
{
closed = 1;
nodes = (
"641 503 LINE",
"585 559 LINE",
"30 4 LINE",
"86 -52 LINE"
);
},
{
closed = 1;
nodes = (
"330 432 LINE",
"363 398 LINE",
"394 520 LINE",
"268 499 LINE",
"301 465 LINE",
"164 339 LINE",
"196 306 LINE"
);
}
);
width = 671;
}
);
unicode = 1BC0B;
},
{
glyphname = u1BC0C;
lastChange = "2018-08-24 14:01:58 +0000";
layers = (
{
layerId = "65D08ED1-0487-4E0A-9DF3-A4513C174D42";
paths = (
{
closed = 1;
nodes = (
"176 -200 LINE",
"176 730 LINE",
"100 730 LINE",
"100 -200 LINE"
);
}
);
width = 276;
}
);
unicode = 1BC0C;
},
{
glyphname = u1BC0D;
lastChange = "2018-08-24 14:01:58 +0000";
layers = (
{
layerId = "65D08ED1-0487-4E0A-9DF3-A4513C174D42";
paths = (
{
closed = 1;
nodes = (
"1191 231 LINE",
"1191 305 LINE",
"50 305 LINE",
"50 231 LINE"
);
}
);
width = 1241;
}
);
unicode = 1BC0D;
},
{
glyphname = u1BC0E;
lastChange = "2018-08-24 14:01:58 +0000";
layers = (
{
layerId = "65D08ED1-0487-4E0A-9DF3-A4513C174D42";
paths = (
{
closed = 1;
nodes = (
"624 -170 LINE",
"99 740 LINE",
"30 700 LINE",
"555 -210 LINE"
);
}
);
width = 654;
}
);
unicode = 1BC0E;
},
{
glyphname = u1BC0F;
lastChange = "2018-08-24 14:01:58 +0000";
layers = (
{
layerId = "65D08ED1-0487-4E0A-9DF3-A4513C174D42";
paths = (
{
closed = 1;
nodes = (
"624 700 LINE",
"555 740 LINE",
"30 -170 LINE",
"99 -210 LINE"
);
},
{
closed = 1;
nodes = (
"246 309 LINE",
"206 333 LINE",
"304 491 LINE",
"265 514 LINE",
"169 357 LINE",
"128 381 LINE",
"131 255 LINE"
);
}
);
width = 654;
}
);
unicode = 1BC0F;
},
{
glyphname = u1BC10;
lastChange = "2018-08-24 14:01:58 +0000";
layers = (
{
layerId = "65D08ED1-0487-4E0A-9DF3-A4513C174D42";
paths = (
{
closed = 1;
nodes = (
"829 584 LINE",
"772 641 LINE",
"30 -102 LINE",
"86 -159 LINE"
);
},
{
closed = 1;
nodes = (
"396 392 LINE",
"429 358 LINE",
"460 480 LINE",
"334 459 LINE",
"367 425 LINE",
"230 299 LINE",
"262 266 LINE"
);
}
);
width = 859;
}
);
unicode = 1BC10;
},
{
glyphname = u1BC11;
lastChange = "2018-08-24 14:01:58 +0000";
layers = (
{
layerId = "65D08ED1-0487-4E0A-9DF3-A4513C174D42";
paths = (
{
closed = 1;
nodes = (
"461 231 LINE",
"461 305 LINE",
"50 305 LINE",
"50 231 LINE"
);
},
{
closed = 1;
nodes = (
"282 325 OFFCURVE",
"303 347 OFFCURVE",
"303 373 CURVE SMOOTH",
"303 401 OFFCURVE",
"282 422 OFFCURVE",
"255 422 CURVE SMOOTH",
"227 422 OFFCURVE",
"207 401 OFFCURVE",
"207 373 CURVE SMOOTH",
"207 347 OFFCURVE",
"227 325 OFFCURVE",
"255 325 CURVE SMOOTH"
);
}
);
width = 511;
}
);
unicode = 1BC11;
},
{
glyphname = u1BC12;
lastChange = "2018-08-24 14:01:58 +0000";
layers = (
{
layerId = "65D08ED1-0487-4E0A-9DF3-A4513C174D42";
paths = (
{
closed = 1;
nodes = (
"461 231 LINE",
"461 305 LINE",
"50 305 LINE",
"50 231 LINE"
);
},
{
closed = 1;
nodes = (
"282 114 OFFCURVE",
"303 136 OFFCURVE",
"303 162 CURVE SMOOTH",
"303 190 OFFCURVE",
"282 211 OFFCURVE",
"255 211 CURVE SMOOTH",
"227 211 OFFCURVE",
"207 190 OFFCURVE",
"207 162 CURVE SMOOTH",
"207 136 OFFCURVE",
"227 114 OFFCURVE",
"255 114 CURVE SMOOTH"
);
}
);
width = 511;
}
);
unicode = 1BC12;
},
{
glyphname = u1BC13;
lastChange = "2018-08-24 14:01:58 +0000";
layers = (
{
layerId = "65D08ED1-0487-4E0A-9DF3-A4513C174D42";
paths = (
{
closed = 1;
nodes = (
"851 231 LINE",
"851 305 LINE",
"50 305 LINE",
"50 231 LINE"
);
},
{
closed = 1;
nodes = (
"478 325 OFFCURVE",
"499 347 OFFCURVE",
"499 373 CURVE SMOOTH",
"499 401 OFFCURVE",
"478 422 OFFCURVE",
"451 422 CURVE SMOOTH",
"423 422 OFFCURVE",
"403 401 OFFCURVE",
"403 373 CURVE SMOOTH",
"403 347 OFFCURVE",
"423 325 OFFCURVE",
"451 325 CURVE SMOOTH"
);
}
);
width = 901;
}
);
unicode = 1BC13;
},
{
glyphname = u1BC14;
lastChange = "2018-08-24 14:01:58 +0000";
layers = (
{
layerId = "65D08ED1-0487-4E0A-9DF3-A4513C174D42";
paths = (
{
closed = 1;
nodes = (
"344 430 LINE",
"275 470 LINE",
"50 80 LINE",
"119 40 LINE"
);
},
{
closed = 1;
nodes = (
"125 266 OFFCURVE",
"146 288 OFFCURVE",
"146 314 CURVE SMOOTH",
"146 342 OFFCURVE",
"125 363 OFFCURVE",
"98 363 CURVE SMOOTH",
"70 363 OFFCURVE",
"50 342 OFFCURVE",
"50 314 CURVE SMOOTH",
"50 288 OFFCURVE",
"70 266 OFFCURVE",
"98 266 CURVE SMOOTH"
);
},
{
closed = 1;
nodes = (
"343 112 LINE",
"303 136 LINE",
"401 294 LINE",
"362 317 LINE",
"266 160 LINE",
"225 184 LINE",
"228 58 LINE"
);
}
);
width = 431;
}
);
unicode = 1BC14;
},
{
glyphname = u1BC15;
lastChange = "2018-08-24 14:01:58 +0000";
layers = (
{
layerId = "65D08ED1-0487-4E0A-9DF3-A4513C174D42";
paths = (
{
closed = 1;
nodes = (
"492 570 LINE",
"423 610 LINE",
"30 -70 LINE",
"99 -110 LINE"
);
},
{
closed = 1;
nodes = (
"191 295 LINE",
"151 319 LINE",
"249 477 LINE",
"210 500 LINE",
"114 343 LINE",
"73 367 LINE",
"76 241 LINE"
);
},
{
closed = 1;
nodes = (
"397 170 OFFCURVE",
"418 192 OFFCURVE",
"418 218 CURVE SMOOTH",
"418 246 OFFCURVE",
"397 267 OFFCURVE",
"370 267 CURVE SMOOTH",
"342 267 OFFCURVE",
"322 246 OFFCURVE",
"322 218 CURVE SMOOTH",
"322 192 OFFCURVE",
"342 170 OFFCURVE",
"370 170 CURVE SMOOTH"
);
}
);
width = 522;
}
);
unicode = 1BC15;
},
{
glyphname = u1BC16;
lastChange = "2018-08-24 14:01:58 +0000";
layers = (
{
layerId = "65D08ED1-0487-4E0A-9DF3-A4513C174D42";
paths = (
{
closed = 1;
nodes = (
"405 381 LINE",
"349 438 LINE",
"30 119 LINE",
"87 63 LINE"
);
},
{
closed = 1;
nodes = (
"362 172 LINE",
"395 138 LINE",
"426 260 LINE",
"300 239 LINE",
"333 205 LINE",
"196 79 LINE",
"228 46 LINE"
);
},
{
closed = 1;
nodes = (
"167 282 OFFCURVE",
"188 304 OFFCURVE",
"188 330 CURVE SMOOTH",
"188 358 OFFCURVE",
"167 379 OFFCURVE",
"140 379 CURVE SMOOTH",
"112 379 OFFCURVE",
"92 358 OFFCURVE",
"92 330 CURVE SMOOTH",
"92 304 OFFCURVE",
"112 282 OFFCURVE",
"140 282 CURVE SMOOTH"
);
}
);
width = 456;
}
);
unicode = 1BC16;
},
{
glyphname = u1BC17;
lastChange = "2018-08-24 14:01:58 +0000";
layers = (
{
layerId = "65D08ED1-0487-4E0A-9DF3-A4513C174D42";
paths = (
{
closed = 1;
nodes = (
"405 381 LINE",
"349 438 LINE",
"30 119 LINE",
"87 63 LINE"
);
},
{
closed = 1;
nodes = (
"329 132 OFFCURVE",
"350 154 OFFCURVE",
"350 180 CURVE SMOOTH",
"350 208 OFFCURVE",
"329 229 OFFCURVE",
"302 229 CURVE SMOOTH",
"274 229 OFFCURVE",
"254 208 OFFCURVE",
"254 180 CURVE SMOOTH",
"254 154 OFFCURVE",
"274 132 OFFCURVE",
"302 132 CURVE SMOOTH"
);
},
{
closed = 1;
nodes = (
"202 385 LINE",
"235 351 LINE",
"266 473 LINE",
"140 452 LINE",
"173 418 LINE",
"36 292 LINE",
"68 259 LINE"
);
}
);
width = 435;
}
);
unicode = 1BC17;
},
{
glyphname = u1BC18;
lastChange = "2018-08-24 14:01:58 +0000";
layers = (
{
layerId = "65D08ED1-0487-4E0A-9DF3-A4513C174D42";
paths = (
{
closed = 1;
nodes = (
"829 584 LINE",
"772 641 LINE",
"30 -102 LINE",
"86 -159 LINE"
);
},
{
closed = 1;
nodes = (
"434 7 OFFCURVE",
"455 29 OFFCURVE",
"455 55 CURVE SMOOTH",
"455 83 OFFCURVE",
"434 104 OFFCURVE",
"407 104 CURVE SMOOTH",
"379 104 OFFCURVE",
"359 83 OFFCURVE",
"359 55 CURVE SMOOTH",
"359 29 OFFCURVE",
"379 7 OFFCURVE",
"407 7 CURVE SMOOTH"
);
},
{
closed = 1;
nodes = (
"396 392 LINE",
"429 358 LINE",
"460 480 LINE",
"334 459 LINE",
"367 425 LINE",
"230 299 LINE",
"262 266 LINE"
);
},
{
closed = 1;
nodes = (
"637 210 OFFCURVE",
"658 232 OFFCURVE",
"658 258 CURVE SMOOTH",
"658 286 OFFCURVE",
"637 307 OFFCURVE",
"610 307 CURVE SMOOTH",
"582 307 OFFCURVE",
"562 286 OFFCURVE",
"562 258 CURVE SMOOTH",
"562 232 OFFCURVE",
"582 210 OFFCURVE",
"610 210 CURVE SMOOTH"
);
}
);
width = 859;
}
);
unicode = 1BC18;
},
{
glyphname = u1BC19;
lastChange = "2018-08-24 14:01:58 +0000";
layers = (
{
layerId = "65D08ED1-0487-4E0A-9DF3-A4513C174D42";
paths = (
{
closed = 1;
nodes = (
"490 -125 LINE",
"296 -113 OFFCURVE",
"160 53 OFFCURVE",
"160 277 CURVE SMOOTH",
"160 492 OFFCURVE",
"301 654 OFFCURVE",
"490 666 CURVE",
"490 740 LINE",
"238 728 OFFCURVE",
"80 515 OFFCURVE",
"80 275 CURVE SMOOTH",
"80 24 OFFCURVE",
"238 -188 OFFCURVE",
"490 -200 CURVE"
);
}
);
width = 570;
}
);
unicode = 1BC19;
},
{
glyphname = u1BC1A;
lastChange = "2018-08-24 14:01:58 +0000";
layers = (
{
layerId = "65D08ED1-0487-4E0A-9DF3-A4513C174D42";
paths = (
{
closed = 1;
nodes = (
"332 -188 OFFCURVE",
"490 24 OFFCURVE",
"490 275 CURVE SMOOTH",
"490 515 OFFCURVE",
"332 728 OFFCURVE",
"80 740 CURVE",
"80 666 LINE",
"269 654 OFFCURVE",
"410 492 OFFCURVE",
"410 277 CURVE SMOOTH",
"410 53 OFFCURVE",
"274 -113 OFFCURVE",
"80 -125 CURVE",
"80 -200 LINE"
);
}
);
width = 570;
}
);
unicode = 1BC1A;
},
{
glyphname = u1BC1B;
lastChange = "2018-08-24 14:01:58 +0000";
layers = (
{
layerId = "65D08ED1-0487-4E0A-9DF3-A4513C174D42";
paths = (
{
closed = 1;
nodes = (
"139 70 LINE",
"151 259 OFFCURVE",
"310 401 OFFCURVE",
"525 401 CURVE SMOOTH",
"749 401 OFFCURVE",
"912 264 OFFCURVE",
"924 70 CURVE",
"1004 70 LINE",
"992 322 OFFCURVE",
"778 475 OFFCURVE",
"527 475 CURVE SMOOTH",
"287 475 OFFCURVE",
"72 322 OFFCURVE",
"60 70 CURVE"
);
}
);
width = 1064;
}
);
unicode = 1BC1B;
},
{
glyphname = u1BC1C;
lastChange = "2018-08-24 14:01:58 +0000";
layers = (
{
layerId = "65D08ED1-0487-4E0A-9DF3-A4513C174D42";
paths = (
{
closed = 1;
nodes = (
"778 70 OFFCURVE",
"992 223 OFFCURVE",
"1004 475 CURVE",
"924 475 LINE",
"912 281 OFFCURVE",
"749 144 OFFCURVE",
"525 144 CURVE SMOOTH",
"310 144 OFFCURVE",
"151 286 OFFCURVE",
"139 475 CURVE",
"60 475 LINE",
"72 223 OFFCURVE",
"287 70 OFFCURVE",
"527 70 CURVE SMOOTH"
);
}
);
width = 1064;
}
);
unicode = 1BC1C;
},
{
glyphname = u1BC1D;
lastChange = "2018-08-24 14:01:58 +0000";
layers = (
{
layerId = "65D08ED1-0487-4E0A-9DF3-A4513C174D42";
paths = (
{
closed = 1;
nodes = (
"550 -125 LINE",
"356 -113 OFFCURVE",
"220 53 OFFCURVE",
"220 277 CURVE SMOOTH",
"220 492 OFFCURVE",
"361 654 OFFCURVE",
"550 666 CURVE",
"550 740 LINE",
"298 728 OFFCURVE",
"140 515 OFFCURVE",
"140 275 CURVE SMOOTH",
"140 24 OFFCURVE",
"298 -188 OFFCURVE",
"550 -200 CURVE"
);
},
{
closed = 1;
nodes = (
"351 240 LINE",
"351 314 LINE",
"40 314 LINE",
"40 240 LINE"
);
}
);
width = 630;
}
);
unicode = 1BC1D;
},
{
glyphname = u1BC1E;
lastChange = "2018-08-24 14:01:58 +0000";
layers = (
{
layerId = "65D08ED1-0487-4E0A-9DF3-A4513C174D42";
paths = (
{
closed = 1;
nodes = (
"332 -188 OFFCURVE",
"490 24 OFFCURVE",
"490 275 CURVE SMOOTH",
"490 515 OFFCURVE",
"332 728 OFFCURVE",
"80 740 CURVE",
"80 666 LINE",
"269 654 OFFCURVE",
"410 492 OFFCURVE",
"410 277 CURVE SMOOTH",
"410 53 OFFCURVE",
"274 -113 OFFCURVE",
"80 -125 CURVE",
"80 -200 LINE"
);
},
{
closed = 1;
nodes = (
"590 240 LINE",
"590 314 LINE",
"279 314 LINE",
"279 240 LINE"
);
}
);
width = 630;
}
);
unicode = 1BC1E;
},
{
glyphname = u1BC1F;
lastChange = "2018-08-24 14:01:58 +0000";
layers = (
{
layerId = "65D08ED1-0487-4E0A-9DF3-A4513C174D42";
paths = (
{
closed = 1;
nodes = (
"139 70 LINE",
"151 259 OFFCURVE",
"310 401 OFFCURVE",
"525 401 CURVE SMOOTH",
"749 401 OFFCURVE",
"912 264 OFFCURVE",
"924 70 CURVE",
"1004 70 LINE",
"992 322 OFFCURVE",
"778 475 OFFCURVE",
"527 475 CURVE SMOOTH",
"287 475 OFFCURVE",
"72 322 OFFCURVE",
"60 70 CURVE"
);
},
{
closed = 1;
nodes = (
"570 310 LINE",
"570 580 LINE",
"494 580 LINE",
"494 310 LINE"
);
}
);
width = 1064;
}
);
unicode = 1BC1F;
},
{
glyphname = u1BC20;
lastChange = "2018-08-24 14:01:58 +0000";
layers = (
{
layerId = "65D08ED1-0487-4E0A-9DF3-A4513C174D42";
paths = (
{
closed = 1;
nodes = (
"778 70 OFFCURVE",
"992 223 OFFCURVE",
"1004 475 CURVE",
"924 475 LINE",
"912 281 OFFCURVE",
"749 144 OFFCURVE",
"525 144 CURVE SMOOTH",
"310 144 OFFCURVE",
"151 286 OFFCURVE",
"139 475 CURVE",
"60 475 LINE",
"72 223 OFFCURVE",
"287 70 OFFCURVE",
"527 70 CURVE SMOOTH"
);
},
{
closed = 1;
nodes = (
"570 -35 LINE",
"570 235 LINE",
"494 235 LINE",
"494 -35 LINE"
);
}
);
width = 1064;
}
);
unicode = 1BC20;
},
{
glyphname = u1BC21;
lastChange = "2018-08-24 14:01:58 +0000";
layers = (
{
layerId = "65D08ED1-0487-4E0A-9DF3-A4513C174D42";
paths = (
{
closed = 1;
nodes = (
"490 -125 LINE",
"296 -113 OFFCURVE",
"160 53 OFFCURVE",
"160 277 CURVE SMOOTH",
"160 492 OFFCURVE",
"301 654 OFFCURVE",
"490 666 CURVE",
"490 740 LINE",
"238 728 OFFCURVE",
"80 515 OFFCURVE",
"80 275 CURVE SMOOTH",
"80 24 OFFCURVE",
"238 -188 OFFCURVE",
"490 -200 CURVE"
);
},
{
closed = 1;
nodes = (
"379 207 OFFCURVE",
"400 229 OFFCURVE",
"400 255 CURVE SMOOTH",
"400 283 OFFCURVE",
"379 304 OFFCURVE",
"352 304 CURVE SMOOTH",
"324 304 OFFCURVE",
"304 283 OFFCURVE",
"304 255 CURVE SMOOTH",
"304 229 OFFCURVE",
"324 207 OFFCURVE",
"352 207 CURVE SMOOTH"
);
}
);
width = 570;
}
);
unicode = 1BC21;
},
{
glyphname = u1BC22;
lastChange = "2018-08-24 14:01:58 +0000";
layers = (
{
layerId = "65D08ED1-0487-4E0A-9DF3-A4513C174D42";
paths = (
{
closed = 1;
nodes = (
"332 -188 OFFCURVE",
"490 24 OFFCURVE",
"490 275 CURVE SMOOTH",
"490 515 OFFCURVE",
"332 728 OFFCURVE",
"80 740 CURVE",
"80 666 LINE",
"269 654 OFFCURVE",
"410 492 OFFCURVE",
"410 277 CURVE SMOOTH",
"410 53 OFFCURVE",
"274 -113 OFFCURVE",
"80 -125 CURVE",
"80 -200 LINE"
);
},
{
closed = 1;
nodes = (
"245 207 OFFCURVE",
"266 229 OFFCURVE",
"266 255 CURVE SMOOTH",
"266 283 OFFCURVE",
"245 304 OFFCURVE",
"218 304 CURVE SMOOTH",
"190 304 OFFCURVE",
"170 283 OFFCURVE",
"170 255 CURVE SMOOTH",
"170 229 OFFCURVE",
"190 207 OFFCURVE",
"218 207 CURVE SMOOTH"
);
}
);
width = 570;
}
);
unicode = 1BC22;
},
{
glyphname = u1BC23;
lastChange = "2018-08-24 14:01:58 +0000";
layers = (
{
layerId = "65D08ED1-0487-4E0A-9DF3-A4513C174D42";
paths = (
{
closed = 1;
nodes = (
"139 70 LINE",
"151 259 OFFCURVE",
"310 401 OFFCURVE",
"525 401 CURVE SMOOTH",
"749 401 OFFCURVE",
"912 264 OFFCURVE",
"924 70 CURVE",
"1004 70 LINE",
"992 322 OFFCURVE",
"778 475 OFFCURVE",
"527 475 CURVE SMOOTH",
"287 475 OFFCURVE",
"72 322 OFFCURVE",
"60 70 CURVE"
);
},
{
closed = 1;
nodes = (
"559 167 OFFCURVE",
"580 189 OFFCURVE",
"580 215 CURVE SMOOTH",
"580 243 OFFCURVE",
"559 264 OFFCURVE",
"532 264 CURVE SMOOTH",
"504 264 OFFCURVE",
"484 243 OFFCURVE",
"484 215 CURVE SMOOTH",
"484 189 OFFCURVE",
"504 167 OFFCURVE",
"532 167 CURVE SMOOTH"
);
}
);
width = 1064;
}
);
unicode = 1BC23;
},
{
glyphname = u1BC24;
lastChange = "2018-08-24 14:01:58 +0000";
layers = (
{
layerId = "65D08ED1-0487-4E0A-9DF3-A4513C174D42";
paths = (
{
closed = 1;
nodes = (
"139 70 LINE",
"151 259 OFFCURVE",
"310 401 OFFCURVE",
"525 401 CURVE SMOOTH",
"749 401 OFFCURVE",
"912 264 OFFCURVE",
"924 70 CURVE",
"1004 70 LINE",
"992 322 OFFCURVE",
"778 475 OFFCURVE",
"527 475 CURVE SMOOTH",
"287 475 OFFCURVE",
"72 322 OFFCURVE",
"60 70 CURVE"
);
},
{
closed = 1;
nodes = (
"559 167 OFFCURVE",
"580 189 OFFCURVE",
"580 215 CURVE SMOOTH",
"580 243 OFFCURVE",
"559 264 OFFCURVE",
"532 264 CURVE SMOOTH",
"504 264 OFFCURVE",
"484 243 OFFCURVE",
"484 215 CURVE SMOOTH",
"484 189 OFFCURVE",
"504 167 OFFCURVE",
"532 167 CURVE SMOOTH"
);
},
{
closed = 1;
nodes = (
"559 617 OFFCURVE",
"580 639 OFFCURVE",
"580 665 CURVE SMOOTH",
"580 693 OFFCURVE",
"559 714 OFFCURVE",
"532 714 CURVE SMOOTH",
"504 714 OFFCURVE",
"484 693 OFFCURVE",
"484 665 CURVE SMOOTH",
"484 639 OFFCURVE",
"504 617 OFFCURVE",
"532 617 CURVE SMOOTH"
);
}
);
width = 1064;
}
);
unicode = 1BC24;
},
{
glyphname = u1BC25;
lastChange = "2018-08-24 14:01:58 +0000";
layers = (
{
layerId = "65D08ED1-0487-4E0A-9DF3-A4513C174D42";
paths = (
{
closed = 1;
nodes = (
"778 70 OFFCURVE",
"992 223 OFFCURVE",
"1004 475 CURVE",
"924 475 LINE",
"912 281 OFFCURVE",
"749 144 OFFCURVE",
"525 144 CURVE SMOOTH",
"310 144 OFFCURVE",
"151 286 OFFCURVE",
"139 475 CURVE",
"60 475 LINE",
"72 223 OFFCURVE",
"287 70 OFFCURVE",
"527 70 CURVE SMOOTH"
);
},
{
closed = 1;
nodes = (
"559 281 OFFCURVE",
"580 303 OFFCURVE",
"580 329 CURVE SMOOTH",
"580 357 OFFCURVE",
"559 378 OFFCURVE",
"532 378 CURVE SMOOTH",
"504 378 OFFCURVE",
"484 357 OFFCURVE",
"484 329 CURVE SMOOTH",
"484 303 OFFCURVE",
"504 281 OFFCURVE",
"532 281 CURVE SMOOTH"
);
}
);
width = 1064;
}
);
unicode = 1BC25;
},
{
glyphname = u1BC26;
lastChange = "2018-08-24 14:01:58 +0000";
layers = (
{
layerId = "65D08ED1-0487-4E0A-9DF3-A4513C174D42";
paths = (
{
closed = 1;
nodes = (
"778 70 OFFCURVE",
"992 223 OFFCURVE",
"1004 475 CURVE",
"924 475 LINE",
"912 281 OFFCURVE",
"749 144 OFFCURVE",
"525 144 CURVE SMOOTH",
"310 144 OFFCURVE",
"151 286 OFFCURVE",
"139 475 CURVE",
"60 475 LINE",
"72 223 OFFCURVE",
"287 70 OFFCURVE",
"527 70 CURVE SMOOTH"
);
},
{
closed = 1;
nodes = (
"559 -169 OFFCURVE",
"580 -147 OFFCURVE",
"580 -121 CURVE SMOOTH",
"580 -93 OFFCURVE",
"559 -72 OFFCURVE",
"532 -72 CURVE SMOOTH",
"504 -72 OFFCURVE",
"484 -93 OFFCURVE",
"484 -121 CURVE SMOOTH",
"484 -147 OFFCURVE",
"504 -169 OFFCURVE",
"532 -169 CURVE SMOOTH"
);
}
);
width = 1064;
}
);
unicode = 1BC26;
},
{
glyphname = u1BC27;
lastChange = "2018-08-24 14:01:58 +0000";
layers = (
{
layerId = "65D08ED1-0487-4E0A-9DF3-A4513C174D42";
paths = (
{
closed = 1;
nodes = (
"473 -175 LINE",
"281 -164 OFFCURVE",
"160 -16 OFFCURVE",
"160 360 CURVE SMOOTH",
"160 742 OFFCURVE",
"281 874 OFFCURVE",
"473 886 CURVE",
"473 960 LINE",
"233 949 OFFCURVE",
"80 779 OFFCURVE",
"80 359 CURVE SMOOTH",
"80 -53 OFFCURVE",
"233 -238 OFFCURVE",
"473 -250 CURVE"
);
}
);
width = 553;
}
);
unicode = 1BC27;
},
{
glyphname = u1BC28;
lastChange = "2018-08-24 14:01:58 +0000";
layers = (
{
layerId = "65D08ED1-0487-4E0A-9DF3-A4513C174D42";
paths = (
{
closed = 1;
nodes = (
"320 -238 OFFCURVE",
"473 -53 OFFCURVE",
"473 359 CURVE SMOOTH",
"473 779 OFFCURVE",
"320 949 OFFCURVE",
"80 960 CURVE",
"80 886 LINE",
"272 874 OFFCURVE",
"393 742 OFFCURVE",
"393 360 CURVE SMOOTH",
"393 -16 OFFCURVE",
"272 -164 OFFCURVE",
"80 -175 CURVE",
"80 -250 LINE"
);
}
);
width = 553;
}
);
unicode = 1BC28;
},
{
glyphname = u1BC29;
lastChange = "2018-08-24 14:01:58 +0000";
layers = (
{
layerId = "65D08ED1-0487-4E0A-9DF3-A4513C174D42";
paths = (
{
closed = 1;
nodes = (
"140 70 LINE",
"152 262 OFFCURVE",
"282 401 OFFCURVE",
"664 401 CURVE SMOOTH",
"1040 401 OFFCURVE",
"1187 262 OFFCURVE",
"1198 70 CURVE",
"1278 70 LINE",
"1266 310 OFFCURVE",
"1077 475 OFFCURVE",
"665 475 CURVE SMOOTH",
"245 475 OFFCURVE",
"71 310 OFFCURVE",
"60 70 CURVE"
);
}
);
width = 1338;
}
);
unicode = 1BC29;
},
{
glyphname = u1BC2A;
lastChange = "2018-08-24 14:01:58 +0000";
layers = (
{
layerId = "65D08ED1-0487-4E0A-9DF3-A4513C174D42";
paths = (
{
closed = 1;
nodes = (
"1077 70 OFFCURVE",
"1266 235 OFFCURVE",
"1278 475 CURVE",
"1198 475 LINE",
"1187 283 OFFCURVE",
"1040 144 OFFCURVE",
"664 144 CURVE SMOOTH",
"282 144 OFFCURVE",
"152 283 OFFCURVE",
"140 475 CURVE",
"60 475 LINE",
"71 235 OFFCURVE",
"245 70 OFFCURVE",
"665 70 CURVE SMOOTH"
);
}
);
width = 1338;
}
);
unicode = 1BC2A;
},
{
glyphname = u1BC2B;
lastChange = "2018-08-24 14:01:58 +0000";
layers = (
{
layerId = "65D08ED1-0487-4E0A-9DF3-A4513C174D42";
paths = (
{
closed = 1;
nodes = (
"543 -175 LINE",
"351 -164 OFFCURVE",
"230 -16 OFFCURVE",
"230 360 CURVE SMOOTH",
"230 742 OFFCURVE",
"351 874 OFFCURVE",
"543 886 CURVE",
"543 960 LINE",
"303 949 OFFCURVE",
"150 779 OFFCURVE",
"150 359 CURVE SMOOTH",
"150 -53 OFFCURVE",
"303 -238 OFFCURVE",
"543 -250 CURVE"
);
},
{
closed = 1;
nodes = (
"351 331 LINE",
"351 405 LINE",
"40 405 LINE",
"40 331 LINE"
);
}
);
width = 623;
}
);
unicode = 1BC2B;
},
{
glyphname = u1BC2C;
lastChange = "2018-08-24 14:01:58 +0000";
layers = (
{
layerId = "65D08ED1-0487-4E0A-9DF3-A4513C174D42";
paths = (
{
closed = 1;
nodes = (
"320 -238 OFFCURVE",
"473 -53 OFFCURVE",
"473 359 CURVE SMOOTH",
"473 779 OFFCURVE",
"320 949 OFFCURVE",
"80 960 CURVE",
"80 886 LINE",
"272 874 OFFCURVE",
"393 742 OFFCURVE",
"393 360 CURVE SMOOTH",
"393 -16 OFFCURVE",
"272 -164 OFFCURVE",
"80 -175 CURVE",
"80 -250 LINE"
);
},
{
closed = 1;
nodes = (
"583 331 LINE",
"583 405 LINE",
"272 405 LINE",
"272 331 LINE"
);
}
);
width = 623;
}
);
unicode = 1BC2C;
},
{
glyphname = u1BC2D;
lastChange = "2018-08-24 14:01:58 +0000";
layers = (
{
layerId = "65D08ED1-0487-4E0A-9DF3-A4513C174D42";
paths = (
{
closed = 1;
nodes = (
"140 70 LINE",
"152 262 OFFCURVE",
"282 401 OFFCURVE",
"664 401 CURVE SMOOTH",
"1040 401 OFFCURVE",
"1187 262 OFFCURVE",
"1198 70 CURVE",
"1278 70 LINE",
"1266 310 OFFCURVE",
"1077 475 OFFCURVE",
"665 475 CURVE SMOOTH",
"245 475 OFFCURVE",
"71 310 OFFCURVE",
"60 70 CURVE"
);
},
{
closed = 1;
nodes = (
"707 310 LINE",
"707 580 LINE",
"631 580 LINE",
"631 310 LINE"
);
}
);
width = 1338;
}
);
unicode = 1BC2D;
},
{
glyphname = u1BC2E;
lastChange = "2018-08-24 14:01:58 +0000";
layers = (
{
layerId = "65D08ED1-0487-4E0A-9DF3-A4513C174D42";
paths = (
{
closed = 1;
nodes = (
"1077 70 OFFCURVE",
"1266 235 OFFCURVE",
"1278 475 CURVE",
"1198 475 LINE",
"1187 283 OFFCURVE",
"1040 144 OFFCURVE",
"664 144 CURVE SMOOTH",
"282 144 OFFCURVE",
"152 283 OFFCURVE",
"140 475 CURVE",
"60 475 LINE",
"71 235 OFFCURVE",
"245 70 OFFCURVE",
"665 70 CURVE SMOOTH"
);
},
{
closed = 1;
nodes = (
"707 -35 LINE",
"707 235 LINE",
"631 235 LINE",
"631 -35 LINE"
);
}
);
width = 1338;
}
);
unicode = 1BC2E;
},
{
glyphname = u1BC2F;
lastChange = "2018-08-24 14:01:58 +0000";
layers = (
{
layerId = "65D08ED1-0487-4E0A-9DF3-A4513C174D42";
paths = (
{
closed = 1;
nodes = (
"140 70 LINE",
"152 262 OFFCURVE",
"282 401 OFFCURVE",
"664 401 CURVE SMOOTH",
"1040 401 OFFCURVE",
"1187 262 OFFCURVE",
"1198 70 CURVE",
"1278 70 LINE",
"1266 310 OFFCURVE",
"1077 475 OFFCURVE",
"665 475 CURVE SMOOTH",
"245 475 OFFCURVE",
"71 310 OFFCURVE",
"60 70 CURVE"
);
},
{
closed = 1;
nodes = (
"696 154 OFFCURVE",
"717 176 OFFCURVE",
"717 202 CURVE SMOOTH",
"717 230 OFFCURVE",
"696 251 OFFCURVE",
"669 251 CURVE SMOOTH",
"641 251 OFFCURVE",
"621 230 OFFCURVE",
"621 202 CURVE SMOOTH",
"621 176 OFFCURVE",
"641 154 OFFCURVE",
"669 154 CURVE SMOOTH"
);
}
);
width = 1338;
}
);
unicode = 1BC2F;
},
{
glyphname = u1BC30;
lastChange = "2018-08-24 14:01:58 +0000";
layers = (
{
layerId = "65D08ED1-0487-4E0A-9DF3-A4513C174D42";
paths = (
{
closed = 1;
nodes = (
"691 -196 OFFCURVE",
"830 -4 OFFCURVE",
"830 274 CURVE SMOOTH",
"830 514 OFFCURVE",
"710 720 OFFCURVE",
"452 720 CURVE SMOOTH",
"215 720 OFFCURVE",
"80 556 OFFCURVE",
"80 320 CURVE",
"161 320 LINE",
"161 500 OFFCURVE",
"258 645 OFFCURVE",
"450 645 CURVE SMOOTH",
"648 645 OFFCURVE",
"750 491 OFFCURVE",
"750 276 CURVE SMOOTH",
"750 33 OFFCURVE",
"636 -125 OFFCURVE",
"423 -125 CURVE",
"423 -200 LINE"
);
}
);
width = 910;
}
);
unicode = 1BC30;
},
{
glyphname = u1BC31;
lastChange = "2018-08-24 14:01:58 +0000";
layers = (
{
layerId = "65D08ED1-0487-4E0A-9DF3-A4513C174D42";
paths = (
{
closed = 1;
nodes = (
"845 -214 OFFCURVE",
"890 171 OFFCURVE",
"890 424 CURVE SMOOTH",
"890 786 OFFCURVE",
"740 950 OFFCURVE",
"484 950 CURVE SMOOTH",
"247 950 OFFCURVE",
"101 796 OFFCURVE",
"80 556 CURVE",
"161 556 LINE",
"181 751 OFFCURVE",
"293 876 OFFCURVE",
"485 876 CURVE SMOOTH",
"663 876 OFFCURVE",
"810 759 OFFCURVE",
"810 425 CURVE SMOOTH",
"810 210 OFFCURVE",
"796 -134 OFFCURVE",
"485 -165 CURVE",
"485 -240 LINE"
);
}
);
width = 970;
}
);
unicode = 1BC31;
},
{
glyphname = u1BC32;
lastChange = "2018-08-24 14:01:58 +0000";
layers = (
{
layerId = "65D08ED1-0487-4E0A-9DF3-A4513C174D42";
paths = (
{
closed = 1;
nodes = (
"540 0 LINE",
"540 75 LINE",
"491 75 LINE SMOOTH",
"276 75 OFFCURVE",
"140 206 OFFCURVE",
"140 460 CURVE",
"60 460 LINE",
"60 163 OFFCURVE",
"218 0 OFFCURVE",
"489 0 CURVE SMOOTH"
);
},
{
closed = 1;
nodes = (
"451 169 LINE",
"385 288 LINE",
"360 243 LINE",
"329 259 OFFCURVE",
"295 289 OFFCURVE",
"263 344 CURVE",
"226 318 LINE",
"249 269 OFFCURVE",
"292 225 OFFCURVE",
"338 204 CURVE",
"315 163 LINE"
);
}
);
width = 600;
}
);
unicode = 1BC32;
},
{
glyphname = u1BC33;
lastChange = "2018-08-24 14:01:58 +0000";
layers = (
{
layerId = "65D08ED1-0487-4E0A-9DF3-A4513C174D42";
paths = (
{
closed = 1;
nodes = (
"736 0 LINE",
"736 75 LINE",
"713 75 LINE SMOOTH",
"353 75 OFFCURVE",
"140 344 OFFCURVE",
"140 629 CURVE SMOOTH",
"140 660 LINE",
"60 660 LINE",
"60 627 LINE SMOOTH",
"60 364 OFFCURVE",
"242 0 OFFCURVE",
"713 0 CURVE SMOOTH"
);
},
{
closed = 1;
nodes = (
"522 254 LINE",
"456 373 LINE",
"431 328 LINE",
"400 344 OFFCURVE",
"366 374 OFFCURVE",
"334 429 CURVE",
"297 403 LINE",
"320 354 OFFCURVE",
"363 310 OFFCURVE",
"409 289 CURVE",
"386 248 LINE"
);
}
);
width = 796;
}
);
unicode = 1BC33;
},
{
glyphname = u1BC34;
lastChange = "2018-08-24 14:01:58 +0000";
layers = (
{
layerId = "65D08ED1-0487-4E0A-9DF3-A4513C174D42";
paths = (
{
closed = 1;
nodes = (
"111 0 LINE SMOOTH",
"382 0 OFFCURVE",
"540 163 OFFCURVE",
"540 460 CURVE",
"460 460 LINE",
"460 206 OFFCURVE",
"324 75 OFFCURVE",
"109 75 CURVE SMOOTH",
"60 75 LINE",
"60 0 LINE"
);
},
{
closed = 1;
nodes = (
"251 209 LINE",
"296 230 OFFCURVE",
"339 274 OFFCURVE",
"363 323 CURVE",
"326 349 LINE",
"294 294 OFFCURVE",
"259 264 OFFCURVE",
"229 248 CURVE",
"204 293 LINE",
"138 174 LINE",
"274 168 LINE"
);
}
);
width = 600;
}
);
unicode = 1BC34;
},
{
glyphname = u1BC35;
lastChange = "2018-08-24 14:01:58 +0000";
layers = (
{
layerId = "65D08ED1-0487-4E0A-9DF3-A4513C174D42";
paths = (
{
closed = 1;
nodes = (
"83 0 LINE SMOOTH",
"554 0 OFFCURVE",
"736 364 OFFCURVE",
"736 627 CURVE SMOOTH",
"736 660 LINE",
"656 660 LINE",
"656 629 LINE SMOOTH",
"656 344 OFFCURVE",
"443 75 OFFCURVE",
"83 75 CURVE SMOOTH",
"60 75 LINE",
"60 0 LINE"
);
},
{
closed = 1;
nodes = (
"386 285 LINE",
"431 306 OFFCURVE",
"474 350 OFFCURVE",
"498 399 CURVE",
"461 425 LINE",
"429 370 OFFCURVE",
"394 340 OFFCURVE",
"364 324 CURVE",
"339 369 LINE",
"273 250 LINE",
"409 244 LINE"
);
}
);
width = 796;
}
);
unicode = 1BC35;
},
{
glyphname = u1BC36;
lastChange = "2018-08-24 14:01:58 +0000";
layers = (
{
layerId = "65D08ED1-0487-4E0A-9DF3-A4513C174D42";
paths = (
{
closed = 1;
nodes = (
"540 0 LINE",
"540 297 OFFCURVE",
"382 460 OFFCURVE",
"111 460 CURVE SMOOTH",
"60 460 LINE",
"60 385 LINE",
"109 385 LINE SMOOTH",
"324 385 OFFCURVE",
"460 254 OFFCURVE",
"460 0 CURVE"
);
},
{
closed = 1;
nodes = (
"358 249 LINE",
"322 218 LINE",
"292 258 OFFCURVE",
"239 291 OFFCURVE",
"187 304 CURVE",
"170 262 LINE",
"229 242 OFFCURVE",
"267 214 OFFCURVE",
"288 188 CURVE",
"249 155 LINE",
"380 115 LINE"
);
}
);
width = 600;
}
);
unicode = 1BC36;
},
{
glyphname = u1BC37;
lastChange = "2018-08-24 14:01:58 +0000";
layers = (
{
layerId = "65D08ED1-0487-4E0A-9DF3-A4513C174D42";
paths = (
{
closed = 1;
nodes = (
"736 0 LINE",
"736 33 LINE SMOOTH",
"736 296 OFFCURVE",
"554 660 OFFCURVE",
"83 660 CURVE SMOOTH",
"60 660 LINE",
"60 585 LINE",
"83 585 LINE SMOOTH",
"443 585 OFFCURVE",
"656 316 OFFCURVE",
"656 31 CURVE SMOOTH",
"656 0 LINE"
);
},
{
closed = 1;
nodes = (
"488 360 LINE",
"452 329 LINE",
"422 369 OFFCURVE",
"369 402 OFFCURVE",
"317 415 CURVE",
"300 373 LINE",
"359 353 OFFCURVE",
"397 325 OFFCURVE",
"418 299 CURVE",
"379 266 LINE",
"510 226 LINE"
);
}
);
width = 796;
}
);
unicode = 1BC37;
},
{
glyphname = u1BC38;
lastChange = "2018-08-24 14:01:58 +0000";
layers = (
{
layerId = "65D08ED1-0487-4E0A-9DF3-A4513C174D42";
paths = (
{
closed = 1;
nodes = (
"140 0 LINE",
"140 254 OFFCURVE",
"276 385 OFFCURVE",
"491 385 CURVE SMOOTH",
"540 385 LINE",
"540 460 LINE",
"489 460 LINE SMOOTH",
"218 460 OFFCURVE",
"60 297 OFFCURVE",
"60 0 CURVE"
);
},
{
closed = 1;
nodes = (
"350 160 LINE",
"311 193 LINE",
"332 219 OFFCURVE",
"370 247 OFFCURVE",
"429 267 CURVE",
"412 309 LINE",
"359 296 OFFCURVE",
"307 263 OFFCURVE",
"277 223 CURVE",
"241 254 LINE",
"219 120 LINE"
);
}
);
width = 600;
}
);
unicode = 1BC38;
},
{
glyphname = u1BC39;
lastChange = "2018-08-24 14:01:58 +0000";
layers = (
{
layerId = "65D08ED1-0487-4E0A-9DF3-A4513C174D42";
paths = (
{
closed = 1;
nodes = (
"140 0 LINE",
"140 254 OFFCURVE",
"276 385 OFFCURVE",
"491 385 CURVE SMOOTH",
"540 385 LINE",
"540 460 LINE",
"489 460 LINE SMOOTH",
"218 460 OFFCURVE",
"60 297 OFFCURVE",
"60 0 CURVE"
);
},
{
closed = 1;
nodes = (
"414 127 OFFCURVE",
"435 149 OFFCURVE",
"435 175 CURVE SMOOTH",
"435 203 OFFCURVE",
"414 224 OFFCURVE",
"387 224 CURVE SMOOTH",
"359 224 OFFCURVE",
"339 203 OFFCURVE",
"339 175 CURVE SMOOTH",
"339 149 OFFCURVE",
"359 127 OFFCURVE",
"387 127 CURVE SMOOTH"
);
},
{
closed = 1;
nodes = (
"191 409 LINE",
"152 442 LINE",
"173 468 OFFCURVE",
"211 496 OFFCURVE",
"270 516 CURVE",
"253 558 LINE",
"200 545 OFFCURVE",
"148 512 OFFCURVE",
"118 472 CURVE",
"82 503 LINE",
"60 369 LINE"
);
}
);
width = 600;
}
);
unicode = 1BC39;
},
{
glyphname = u1BC3A;
lastChange = "2018-08-24 14:01:58 +0000";
layers = (
{
layerId = "65D08ED1-0487-4E0A-9DF3-A4513C174D42";
paths = (
{
closed = 1;
nodes = (
"140 0 LINE",
"140 31 LINE SMOOTH",
"140 316 OFFCURVE",
"353 585 OFFCURVE",
"713 585 CURVE SMOOTH",
"736 585 LINE",
"736 660 LINE",
"713 660 LINE SMOOTH",
"242 660 OFFCURVE",
"60 296 OFFCURVE",
"60 33 CURVE SMOOTH",
"60 0 LINE"
);
},
{
closed = 1;
nodes = (
"426 279 LINE",
"387 312 LINE",
"408 338 OFFCURVE",
"446 366 OFFCURVE",
"505 386 CURVE",
"488 428 LINE",
"435 415 OFFCURVE",
"383 382 OFFCURVE",
"353 342 CURVE",
"317 373 LINE",
"295 239 LINE"
);
}
);
width = 796;
}
);
unicode = 1BC3A;
},
{
glyphname = u1BC3B;
lastChange = "2018-08-24 14:01:58 +0000";
layers = (
{
layerId = "65D08ED1-0487-4E0A-9DF3-A4513C174D42";
paths = (
{
closed = 1;
nodes = (
"111 0 LINE SMOOTH",
"382 0 OFFCURVE",
"540 163 OFFCURVE",
"540 460 CURVE",
"460 460 LINE",
"460 206 OFFCURVE",
"324 75 OFFCURVE",
"109 75 CURVE SMOOTH",
"60 75 LINE",
"60 0 LINE"
);
},
{
closed = 1;
nodes = (
"240 187 OFFCURVE",
"293 220 OFFCURVE",
"323 261 CURVE",
"359 230 LINE",
"381 364 LINE",
"250 324 LINE",
"289 290 LINE",
"268 264 OFFCURVE",
"230 236 OFFCURVE",
"171 217 CURVE",
"188 175 LINE"
);
}
);
width = 600;
}
);
unicode = 1BC3B;
},
{
glyphname = u1BC3C;
lastChange = "2018-08-24 14:01:58 +0000";
layers = (
{
layerId = "65D08ED1-0487-4E0A-9DF3-A4513C174D42";
paths = (
{
closed = 1;
nodes = (
"83 0 LINE SMOOTH",
"554 0 OFFCURVE",
"736 364 OFFCURVE",
"736 627 CURVE SMOOTH",
"736 660 LINE",
"656 660 LINE",
"656 629 LINE SMOOTH",
"656 344 OFFCURVE",
"443 75 OFFCURVE",
"83 75 CURVE SMOOTH",
"60 75 LINE",
"60 0 LINE"
);
},
{
closed = 1;
nodes = (
"376 258 OFFCURVE",
"429 291 OFFCURVE",
"459 332 CURVE",
"495 301 LINE",
"517 435 LINE",
"386 395 LINE",
"425 361 LINE",
"404 335 OFFCURVE",
"366 307 OFFCURVE",
"307 288 CURVE",
"324 246 LINE"
);
}
);
width = 796;
}
);
unicode = 1BC3C;
},
{
glyphname = u1BC3D;
lastChange = "2018-08-24 14:01:58 +0000";
layers = (
{
layerId = "65D08ED1-0487-4E0A-9DF3-A4513C174D42";
paths = (
{
closed = 1;
nodes = (
"540 0 LINE",
"540 297 OFFCURVE",
"382 460 OFFCURVE",
"111 460 CURVE SMOOTH",
"60 460 LINE",
"60 385 LINE",
"109 385 LINE SMOOTH",
"324 385 OFFCURVE",
"460 254 OFFCURVE",
"460 0 CURVE"
);
},
{
closed = 1;
nodes = (
"367 153 LINE",
"343 201 OFFCURVE",
"300 245 OFFCURVE",
"255 267 CURVE",
"278 308 LINE",
"142 302 LINE",
"208 183 LINE",
"233 227 LINE",
"263 212 OFFCURVE",
"298 181 OFFCURVE",
"330 127 CURVE"
);
}
);
width = 600;
}
);
unicode = 1BC3D;
},
{
glyphname = u1BC3E;
lastChange = "2018-08-24 14:01:58 +0000";
layers = (
{
layerId = "65D08ED1-0487-4E0A-9DF3-A4513C174D42";
paths = (
{
closed = 1;
nodes = (
"736 0 LINE",
"736 33 LINE SMOOTH",
"736 296 OFFCURVE",
"554 660 OFFCURVE",
"83 660 CURVE SMOOTH",
"60 660 LINE",
"60 585 LINE",
"83 585 LINE SMOOTH",
"443 585 OFFCURVE",
"656 316 OFFCURVE",
"656 31 CURVE SMOOTH",
"656 0 LINE"
);
},
{
closed = 1;
nodes = (
"488 265 LINE",
"464 313 OFFCURVE",
"421 357 OFFCURVE",
"376 379 CURVE",
"399 420 LINE",
"263 414 LINE",
"329 295 LINE",
"354 339 LINE",
"384 324 OFFCURVE",
"419 293 OFFCURVE",
"451 239 CURVE"
);
}
);
width = 796;
}
);
unicode = 1BC3E;
},
{
glyphname = u1BC3F;
lastChange = "2018-08-24 14:01:58 +0000";
layers = (
{
layerId = "65D08ED1-0487-4E0A-9DF3-A4513C174D42";
paths = (
{
closed = 1;
nodes = (
"140 0 LINE",
"140 254 OFFCURVE",
"276 385 OFFCURVE",
"491 385 CURVE SMOOTH",
"540 385 LINE",
"540 460 LINE",
"489 460 LINE SMOOTH",
"218 460 OFFCURVE",
"60 297 OFFCURVE",
"60 0 CURVE"
);
},
{
closed = 1;
nodes = (
"302 182 OFFCURVE",
"336 213 OFFCURVE",
"367 228 CURVE",
"392 184 LINE",
"458 303 LINE",
"322 309 LINE",
"345 268 LINE",
"299 246 OFFCURVE",
"256 202 OFFCURVE",
"233 154 CURVE",
"270 128 LINE"
);
}
);
width = 600;
}
);
unicode = 1BC3F;
},
{
glyphname = u1BC40;
lastChange = "2018-08-24 14:01:58 +0000";
layers = (
{
layerId = "65D08ED1-0487-4E0A-9DF3-A4513C174D42";
paths = (
{
closed = 1;
nodes = (
"140 0 LINE",
"140 31 LINE SMOOTH",
"140 316 OFFCURVE",
"353 585 OFFCURVE",
"713 585 CURVE SMOOTH",
"736 585 LINE",
"736 660 LINE",
"713 660 LINE SMOOTH",
"242 660 OFFCURVE",
"60 296 OFFCURVE",
"60 33 CURVE SMOOTH",
"60 0 LINE"
);
},
{
closed = 1;
nodes = (
"368 298 OFFCURVE",
"402 329 OFFCURVE",
"433 344 CURVE",
"458 300 LINE",
"524 419 LINE",
"388 425 LINE",
"411 384 LINE",
"365 362 OFFCURVE",
"322 318 OFFCURVE",
"299 270 CURVE",
"336 244 LINE"
);
}
);
width = 796;
}
);
unicode = 1BC40;
},
{
glyphname = u1BC41;
lastChange = "2018-08-24 14:01:58 +0000";
layers = (
{
layerId = "65D08ED1-0487-4E0A-9DF3-A4513C174D42";
paths = (
{
closed = 1;
nodes = (
"267 127 OFFCURVE",
"326 188 OFFCURVE",
"326 261 CURVE SMOOTH",
"326 335 OFFCURVE",
"267 395 OFFCURVE",
"193 395 CURVE SMOOTH",
"120 395 OFFCURVE",
"60 335 OFFCURVE",
"60 261 CURVE SMOOTH",
"60 188 OFFCURVE",
"120 127 OFFCURVE",
"193 127 CURVE SMOOTH"
);
},
{
closed = 1;
nodes = (
"154 190 OFFCURVE",
"123 221 OFFCURVE",
"123 261 CURVE SMOOTH",
"123 301 OFFCURVE",
"154 332 OFFCURVE",
"193 332 CURVE SMOOTH",
"232 332 OFFCURVE",
"265 301 OFFCURVE",
"265 261 CURVE SMOOTH",
"265 221 OFFCURVE",
"232 190 OFFCURVE",
"193 190 CURVE SMOOTH"
);
},
{
closed = 1;
nodes = (
"338 467 LINE",
"240 560 LINE",
"229 514 LINE",
"211 519 OFFCURVE",
"190 522 OFFCURVE",
"169 522 CURVE SMOOTH",
"135 522 OFFCURVE",
"100 516 OFFCURVE",
"70 502 CURVE",
"81 459 LINE",
"118 471 OFFCURVE",
"150 476 OFFCURVE",
"177 476 CURVE SMOOTH",
"193 476 OFFCURVE",
"207 474 OFFCURVE",
"219 471 CURVE",
"208 421 LINE"
);
}
);
width = 398;
}
);
unicode = 1BC41;
},
{
glyphname = u1BC42;
lastChange = "2018-08-24 14:01:58 +0000";
layers = (
{
layerId = "65D08ED1-0487-4E0A-9DF3-A4513C174D42";
paths = (
{
closed = 1;
nodes = (
"297 127 OFFCURVE",
"356 188 OFFCURVE",
"356 261 CURVE SMOOTH",
"356 335 OFFCURVE",
"297 395 OFFCURVE",
"223 395 CURVE SMOOTH",
"150 395 OFFCURVE",
"90 335 OFFCURVE",
"90 261 CURVE SMOOTH",
"90 188 OFFCURVE",
"150 127 OFFCURVE",
"223 127 CURVE SMOOTH"
);
},
{
closed = 1;
nodes = (
"184 190 OFFCURVE",
"153 221 OFFCURVE",
"153 261 CURVE SMOOTH",
"153 301 OFFCURVE",
"184 332 OFFCURVE",
"223 332 CURVE SMOOTH",
"262 332 OFFCURVE",
"295 301 OFFCURVE",
"295 261 CURVE SMOOTH",
"295 221 OFFCURVE",
"262 190 OFFCURVE",
"223 190 CURVE SMOOTH"
);
},
{
closed = 1;
nodes = (
"178 471 LINE",
"191 474 OFFCURVE",
"205 476 OFFCURVE",
"221 476 CURVE SMOOTH",
"248 476 OFFCURVE",
"280 471 OFFCURVE",
"317 459 CURVE",
"328 502 LINE",
"298 516 OFFCURVE",
"263 522 OFFCURVE",
"229 522 CURVE SMOOTH",
"207 522 OFFCURVE",
"187 519 OFFCURVE",
"168 514 CURVE",
"158 560 LINE",
"60 467 LINE",
"190 421 LINE"
);
}
);
width = 416;
}
);
unicode = 1BC42;
},
{
glyphname = u1BC43;
lastChange = "2018-08-24 14:01:58 +0000";
layers = (
{
layerId = "65D08ED1-0487-4E0A-9DF3-A4513C174D42";
paths = (
{
closed = 1;
nodes = (
"317 96 OFFCURVE",
"390 171 OFFCURVE",
"390 261 CURVE SMOOTH",
"390 353 OFFCURVE",
"317 426 OFFCURVE",
"224 426 CURVE SMOOTH",
"134 426 OFFCURVE",
"60 353 OFFCURVE",
"60 261 CURVE SMOOTH",
"60 171 OFFCURVE",
"134 96 OFFCURVE",
"224 96 CURVE SMOOTH"
);
},
{
closed = 1;
nodes = (
"172 165 OFFCURVE",
"128 208 OFFCURVE",
"128 260 CURVE SMOOTH",
"128 315 OFFCURVE",
"172 359 OFFCURVE",
"223 359 CURVE SMOOTH",
"278 359 OFFCURVE",
"322 315 OFFCURVE",
"322 260 CURVE SMOOTH",
"322 208 OFFCURVE",
"278 165 OFFCURVE",
"223 165 CURVE SMOOTH"
);
}
);
width = 450;
}
);
unicode = 1BC43;
},
{
glyphname = u1BC44;
lastChange = "2018-08-24 14:01:58 +0000";
layers = (
{
layerId = "65D08ED1-0487-4E0A-9DF3-A4513C174D42";
paths = (
{
closed = 1;
nodes = (
"409 39 OFFCURVE",
"511 141 OFFCURVE",
"511 265 CURVE SMOOTH",
"511 389 OFFCURVE",
"409 490 OFFCURVE",
"284 490 CURVE SMOOTH",
"161 490 OFFCURVE",
"60 389 OFFCURVE",
"60 265 CURVE SMOOTH",
"60 141 OFFCURVE",
"161 39 OFFCURVE",
"284 39 CURVE SMOOTH"
);
},
{
closed = 1;
nodes = (
"200 112 OFFCURVE",
"134 179 OFFCURVE",
"134 262 CURVE SMOOTH",
"134 351 OFFCURVE",
"201 417 OFFCURVE",
"282 417 CURVE SMOOTH",
"370 417 OFFCURVE",
"435 350 OFFCURVE",
"435 261 CURVE SMOOTH",
"435 178 OFFCURVE",
"369 112 OFFCURVE",
"281 112 CURVE SMOOTH"
);
}
);
width = 571;
}
);
unicode = 1BC44;
},
{
glyphname = u1BC45;
lastChange = "2018-08-24 14:01:58 +0000";
layers = (
{
layerId = "65D08ED1-0487-4E0A-9DF3-A4513C174D42";
paths = (
{
closed = 1;
nodes = (
"487 -15 OFFCURVE",
"611 109 OFFCURVE",
"611 261 CURVE SMOOTH",
"611 413 OFFCURVE",
"487 536 OFFCURVE",
"335 536 CURVE SMOOTH",
"183 536 OFFCURVE",
"60 413 OFFCURVE",
"60 261 CURVE SMOOTH",
"60 109 OFFCURVE",
"183 -15 OFFCURVE",
"335 -15 CURVE SMOOTH"
);
},
{
closed = 1;
nodes = (
"226 61 OFFCURVE",
"140 154 OFFCURVE",
"140 260 CURVE SMOOTH",
"140 367 OFFCURVE",
"226 460 OFFCURVE",
"333 460 CURVE SMOOTH",
"439 460 OFFCURVE",
"531 366 OFFCURVE",
"531 259 CURVE SMOOTH",
"531 153 OFFCURVE",
"439 61 OFFCURVE",
"333 61 CURVE SMOOTH"
);
}
);
width = 671;
}
);
unicode = 1BC45;
},
{
glyphname = u1BC46;
lastChange = "2018-08-24 14:01:58 +0000";
layers = (
{
layerId = "65D08ED1-0487-4E0A-9DF3-A4513C174D42";
paths = (
{
closed = 1;
nodes = (
"193 190 LINE",
"154 190 OFFCURVE",
"123 221 OFFCURVE",
"123 261 CURVE SMOOTH",
"123 301 OFFCURVE",
"154 332 OFFCURVE",
"193 332 CURVE",
"193 395 LINE",
"120 395 OFFCURVE",
"60 335 OFFCURVE",
"60 261 CURVE SMOOTH",
"60 188 OFFCURVE",
"120 127 OFFCURVE",
"193 127 CURVE"
);
}
);
width = 253;
}
);
unicode = 1BC46;
},
{
glyphname = u1BC47;
lastChange = "2018-08-24 14:01:58 +0000";
layers = (
{
layerId = "65D08ED1-0487-4E0A-9DF3-A4513C174D42";
paths = (
{
closed = 1;
nodes = (
"267 167 OFFCURVE",
"326 228 OFFCURVE",
"326 301 CURVE",
"265 301 LINE",
"265 261 OFFCURVE",
"232 230 OFFCURVE",
"193 230 CURVE SMOOTH",
"154 230 OFFCURVE",
"123 261 OFFCURVE",
"123 301 CURVE",
"60 301 LINE",
"60 228 OFFCURVE",
"120 167 OFFCURVE",
"193 167 CURVE SMOOTH"
);
}
);
width = 386;
}
);
unicode = 1BC47;
},
{
glyphname = u1BC48;
lastChange = "2018-08-24 14:01:58 +0000";
layers = (
{
layerId = "65D08ED1-0487-4E0A-9DF3-A4513C174D42";
paths = (
{
closed = 1;
nodes = (
"224 165 LINE",
"173 165 OFFCURVE",
"128 208 OFFCURVE",
"128 260 CURVE SMOOTH",
"128 315 OFFCURVE",
"173 359 OFFCURVE",
"224 359 CURVE",
"224 426 LINE",
"134 426 OFFCURVE",
"60 353 OFFCURVE",
"60 261 CURVE SMOOTH",
"60 171 OFFCURVE",
"134 96 OFFCURVE",
"224 96 CURVE"
);
}
);
width = 284;
}
);
unicode = 1BC48;
},
{
glyphname = u1BC49;
lastChange = "2018-08-24 14:01:58 +0000";
layers = (
{
layerId = "65D08ED1-0487-4E0A-9DF3-A4513C174D42";
paths = (
{
closed = 1;
nodes = (
"150 96 OFFCURVE",
"224 171 OFFCURVE",
"224 261 CURVE SMOOTH",
"224 353 OFFCURVE",
"150 426 OFFCURVE",
"60 426 CURVE",
"60 359 LINE",
"111 359 OFFCURVE",
"156 315 OFFCURVE",
"156 260 CURVE SMOOTH",
"156 208 OFFCURVE",
"111 165 OFFCURVE",
"60 165 CURVE",
"60 96 LINE"
);
}
);
width = 284;
}
);
unicode = 1BC49;
},
{
glyphname = u1BC4A;
lastChange = "2018-08-24 14:01:58 +0000";
layers = (
{
layerId = "65D08ED1-0487-4E0A-9DF3-A4513C174D42";
paths = (
{
closed = 1;
nodes = (
"128 200 LINE",
"128 255 OFFCURVE",
"172 299 OFFCURVE",
"223 299 CURVE SMOOTH",
"278 299 OFFCURVE",
"322 255 OFFCURVE",
"322 200 CURVE",
"390 200 LINE",
"390 292 OFFCURVE",
"317 366 OFFCURVE",
"224 366 CURVE SMOOTH",
"134 366 OFFCURVE",
"60 292 OFFCURVE",
"60 200 CURVE"
);
}
);
width = 450;
}
);
unicode = 1BC4A;
},
{
glyphname = u1BC4B;
lastChange = "2018-08-24 14:01:58 +0000";
layers = (
{
layerId = "65D08ED1-0487-4E0A-9DF3-A4513C174D42";
paths = (
{
closed = 1;
nodes = (
"317 200 OFFCURVE",
"390 274 OFFCURVE",
"390 366 CURVE",
"322 366 LINE",
"322 311 OFFCURVE",
"278 267 OFFCURVE",
"223 267 CURVE SMOOTH",
"172 267 OFFCURVE",
"128 311 OFFCURVE",
"128 366 CURVE",
"60 366 LINE",
"60 274 OFFCURVE",
"134 200 OFFCURVE",
"224 200 CURVE SMOOTH"
);
}
);
width = 450;
}
);
unicode = 1BC4B;
},
{
glyphname = u1BC4C;
lastChange = "2018-08-24 14:01:58 +0000";
layers = (
{
layerId = "65D08ED1-0487-4E0A-9DF3-A4513C174D42";
paths = (
{
closed = 1;
nodes = (
"267 167 OFFCURVE",
"326 228 OFFCURVE",
"326 301 CURVE",
"265 301 LINE",
"265 261 OFFCURVE",
"232 230 OFFCURVE",
"193 230 CURVE SMOOTH",
"154 230 OFFCURVE",
"123 261 OFFCURVE",
"123 301 CURVE",
"60 301 LINE",
"60 228 OFFCURVE",
"120 167 OFFCURVE",
"193 167 CURVE SMOOTH"
);
},
{
closed = 1;
nodes = (
"214 311 OFFCURVE",
"228 325 OFFCURVE",
"228 344 CURVE SMOOTH",
"228 364 OFFCURVE",
"214 379 OFFCURVE",
"193 379 CURVE SMOOTH",
"175 379 OFFCURVE",
"160 364 OFFCURVE",
"160 344 CURVE SMOOTH",
"160 325 OFFCURVE",
"175 311 OFFCURVE",
"193 311 CURVE SMOOTH"
);
}
);
width = 386;
}
);
unicode = 1BC4C;
},
{
glyphname = u1BC4D;
lastChange = "2018-08-24 14:01:58 +0000";
layers = (
{
layerId = "65D08ED1-0487-4E0A-9DF3-A4513C174D42";
paths = (
{
closed = 1;
nodes = (
"267 167 OFFCURVE",
"326 228 OFFCURVE",
"326 301 CURVE",
"265 301 LINE",
"265 261 OFFCURVE",
"232 230 OFFCURVE",
"193 230 CURVE SMOOTH",
"154 230 OFFCURVE",
"123 261 OFFCURVE",
"123 301 CURVE",
"60 301 LINE",
"60 228 OFFCURVE",
"120 167 OFFCURVE",
"193 167 CURVE SMOOTH"
);
},
{
closed = 1;
nodes = (
"214 56 OFFCURVE",
"228 70 OFFCURVE",
"228 89 CURVE SMOOTH",
"228 109 OFFCURVE",
"214 124 OFFCURVE",
"193 124 CURVE SMOOTH",
"175 124 OFFCURVE",
"160 109 OFFCURVE",
"160 89 CURVE SMOOTH",
"160 70 OFFCURVE",
"175 56 OFFCURVE",
"193 56 CURVE SMOOTH"
);
}
);
width = 386;
}
);
unicode = 1BC4D;
},
{
glyphname = u1BC4E;
lastChange = "2018-08-24 14:01:58 +0000";
layers = (
{
layerId = "65D08ED1-0487-4E0A-9DF3-A4513C174D42";
paths = (
{
closed = 1;
nodes = (
"267 167 OFFCURVE",
"326 228 OFFCURVE",
"326 301 CURVE",
"265 301 LINE",
"265 261 OFFCURVE",
"232 230 OFFCURVE",
"193 230 CURVE SMOOTH",
"154 230 OFFCURVE",
"123 261 OFFCURVE",
"123 301 CURVE",
"60 301 LINE",
"60 228 OFFCURVE",
"120 167 OFFCURVE",
"193 167 CURVE SMOOTH"
);
},
{
closed = 1;
nodes = (
"326 55 LINE",
"326 119 LINE",
"60 119 LINE",
"60 55 LINE"
);
}
);
width = 386;
}
);
unicode = 1BC4E;
},
{
glyphname = u1BC4F;
lastChange = "2018-08-24 14:01:58 +0000";
layers = (
{
layerId = "65D08ED1-0487-4E0A-9DF3-A4513C174D42";
paths = (
{
closed = 1;
nodes = (
"324 430 LINE",
"255 470 LINE",
"30 80 LINE",
"99 40 LINE"
);
},
{
closed = 1;
nodes = (
"382 521 OFFCURVE",
"403 543 OFFCURVE",
"403 569 CURVE SMOOTH",
"403 597 OFFCURVE",
"382 618 OFFCURVE",
"355 618 CURVE SMOOTH",
"327 618 OFFCURVE",
"307 597 OFFCURVE",
"307 569 CURVE SMOOTH",
"307 543 OFFCURVE",
"327 521 OFFCURVE",
"355 521 CURVE SMOOTH"
);
}
);
width = 433;
}
);
unicode = 1BC4F;
},
{
glyphname = u1BC50;
lastChange = "2018-08-24 14:01:58 +0000";
layers = (
{
layerId = "65D08ED1-0487-4E0A-9DF3-A4513C174D42";
paths = (
{
closed = 1;
nodes = (
"561 0 LINE",
"561 74 LINE",
"425 74 LINE",
"461 142 LINE",
"461 216 LINE",
"325 216 LINE",
"361 284 LINE",
"361 358 LINE",
"225 358 LINE",
"261 426 LINE",
"261 500 LINE",
"50 500 LINE",
"50 426 LINE",
"183 426 LINE",
"150 358 LINE",
"150 284 LINE",
"283 284 LINE",
"250 216 LINE",
"250 142 LINE",
"383 142 LINE",
"350 74 LINE",
"350 0 LINE"
);
},
{
closed = 1;
nodes = (
"494 495 LINE",
"456 467 LINE",
"344 613 LINE",
"307 586 LINE",
"421 439 LINE",
"384 411 LINE",
"504 369 LINE"
);
}
);
width = 611;
}
);
unicode = 1BC50;
},
{
glyphname = u1BC51;
lastChange = "2018-08-24 14:01:58 +0000";
layers = (
{
layerId = "65D08ED1-0487-4E0A-9DF3-A4513C174D42";
paths = (
{
closed = 1;
nodes = (
"297 132 LINE",
"297 205 LINE",
"275 205 LINE SMOOTH",
"200 205 OFFCURVE",
"134 264 OFFCURVE",
"134 355 CURVE SMOOTH",
"134 380 LINE",
"60 380 LINE",
"60 351 LINE SMOOTH",
"60 222 OFFCURVE",
"152 132 OFFCURVE",
"271 132 CURVE SMOOTH"
);
}
);
width = 357;
}
);
unicode = 1BC51;
},
{
glyphname = u1BC52;
lastChange = "2018-08-24 14:01:58 +0000";
layers = (
{
layerId = "65D08ED1-0487-4E0A-9DF3-A4513C174D42";
paths = (
{
closed = 1;
nodes = (
"86 132 LINE SMOOTH",
"205 132 OFFCURVE",
"297 222 OFFCURVE",
"297 351 CURVE SMOOTH",
"297 380 LINE",
"223 380 LINE",
"223 355 LINE SMOOTH",
"223 264 OFFCURVE",
"157 205 OFFCURVE",
"82 205 CURVE SMOOTH",
"60 205 LINE",
"60 132 LINE"
);
}
);
width = 357;
}
);
unicode = 1BC52;
},
{
glyphname = u1BC53;
lastChange = "2018-08-24 14:01:58 +0000";
layers = (
{
layerId = "65D08ED1-0487-4E0A-9DF3-A4513C174D42";
paths = (
{
closed = 1;
nodes = (
"297 132 LINE",
"297 205 LINE",
"275 205 LINE SMOOTH",
"200 205 OFFCURVE",
"134 264 OFFCURVE",
"134 355 CURVE SMOOTH",
"134 380 LINE",
"60 380 LINE",
"60 351 LINE SMOOTH",
"60 222 OFFCURVE",
"152 132 OFFCURVE",
"271 132 CURVE SMOOTH"
);
},
{
closed = 1;
nodes = (
"274 291 OFFCURVE",
"295 313 OFFCURVE",
"295 339 CURVE SMOOTH",
"295 367 OFFCURVE",
"274 388 OFFCURVE",
"247 388 CURVE SMOOTH",
"219 388 OFFCURVE",
"199 367 OFFCURVE",
"199 339 CURVE SMOOTH",
"199 313 OFFCURVE",
"219 291 OFFCURVE",
"247 291 CURVE SMOOTH"
);
}
);
width = 357;
}
);
unicode = 1BC53;
},
{
glyphname = u1BC54;
lastChange = "2018-08-24 14:01:58 +0000";
layers = (
{
layerId = "65D08ED1-0487-4E0A-9DF3-A4513C174D42";
paths = (
{
closed = 1;
nodes = (
"405 39 OFFCURVE",
"511 141 OFFCURVE",
"511 265 CURVE SMOOTH",
"511 389 OFFCURVE",
"409 490 OFFCURVE",
"284 490 CURVE SMOOTH",
"161 490 OFFCURVE",
"60 384 OFFCURVE",
"60 260 CURVE",
"134 260 LINE",
"134 349 OFFCURVE",
"201 417 OFFCURVE",
"282 417 CURVE SMOOTH",
"370 417 OFFCURVE",
"435 350 OFFCURVE",
"435 261 CURVE SMOOTH",
"435 178 OFFCURVE",
"368 112 OFFCURVE",
"280 112 CURVE",
"280 39 LINE"
);
}
);
width = 571;
}
);
unicode = 1BC54;
},
{
glyphname = u1BC55;
lastChange = "2018-08-24 14:01:58 +0000";
layers = (
{
layerId = "65D08ED1-0487-4E0A-9DF3-A4513C174D42";
paths = (
{
closed = 1;
nodes = (
"260 -250 OFFCURVE",
"315 -198 OFFCURVE",
"386 -125 CURVE SMOOTH",
"494 -15 LINE",
"438 42 LINE",
"315 -83 LINE SMOOTH",
"268 -130 OFFCURVE",
"224 -174 OFFCURVE",
"180 -174 CURVE SMOOTH",
"150 -174 OFFCURVE",
"139 -158 OFFCURVE",
"139 -142 CURVE SMOOTH",
"139 -114 OFFCURVE",
"174 -78 OFFCURVE",
"201 -52 CURVE SMOOTH",
"366 112 LINE",
"310 169 LINE",
"156 12 LINE SMOOTH",
"105 -40 OFFCURVE",
"60 -95 OFFCURVE",
"60 -150 CURVE SMOOTH",
"60 -195 OFFCURVE",
"86 -250 OFFCURVE",
"177 -250 CURVE SMOOTH"
);
}
);
width = 514;
}
);
unicode = 1BC55;
},
{
glyphname = u1BC56;
lastChange = "2018-08-24 14:01:58 +0000";
layers = (
{
layerId = "65D08ED1-0487-4E0A-9DF3-A4513C174D42";
paths = (
{
closed = 1;
nodes = (
"369 10 OFFCURVE",
"442 85 OFFCURVE",
"442 158 CURVE SMOOTH",
"442 216 OFFCURVE",
"399 274 OFFCURVE",
"310 292 CURVE",
"287 229 LINE",
"341 218 OFFCURVE",
"365 188 OFFCURVE",
"365 158 CURVE SMOOTH",
"365 121 OFFCURVE",
"321 83 OFFCURVE",
"261 83 CURVE SMOOTH",
"180 83 OFFCURVE",
"137 137 OFFCURVE",
"137 213 CURVE SMOOTH",
"137 302 OFFCURVE",
"201 358 OFFCURVE",
"282 358 CURVE SMOOTH",
"291 358 OFFCURVE",
"294 358 OFFCURVE",
"305 356 CURVE",
"305 430 LINE",
"298 431 OFFCURVE",
"291 431 OFFCURVE",
"284 431 CURVE SMOOTH",
"161 431 OFFCURVE",
"60 340 OFFCURVE",
"60 216 CURVE SMOOTH",
"60 90 OFFCURVE",
"137 10 OFFCURVE",
"261 10 CURVE SMOOTH"
);
}
);
width = 502;
}
);
unicode = 1BC56;
},
{
glyphname = u1BC57;
lastChange = "2018-08-24 14:01:58 +0000";
layers = (
{
layerId = "65D08ED1-0487-4E0A-9DF3-A4513C174D42";
paths = (
{
closed = 1;
nodes = (
"326 -16 OFFCURVE",
"434 47 OFFCURVE",
"515 122 CURVE SMOOTH",
"610 211 OFFCURVE",
"661 302 OFFCURVE",
"661 407 CURVE SMOOTH",
"661 484 OFFCURVE",
"608 536 OFFCURVE",
"519 536 CURVE SMOOTH",
"413 536 OFFCURVE",
"301 483 OFFCURVE",
"217 408 CURVE SMOOTH",
"114 315 OFFCURVE",
"60 218 OFFCURVE",
"60 123 CURVE SMOOTH",
"60 21 OFFCURVE",
"131 -16 OFFCURVE",
"202 -16 CURVE SMOOTH"
);
},
{
closed = 1;
nodes = (
"160 60 OFFCURVE",
"139 93 OFFCURVE",
"139 136 CURVE SMOOTH",
"139 205 OFFCURVE",
"209 301 OFFCURVE",
"255 341 CURVE SMOOTH",
"343 416 OFFCURVE",
"428 460 OFFCURVE",
"507 460 CURVE SMOOTH",
"546 460 OFFCURVE",
"582 445 OFFCURVE",
"582 396 CURVE SMOOTH",
"582 320 OFFCURVE",
"530 240 OFFCURVE",
"461 175 CURVE SMOOTH",
"393 111 OFFCURVE",
"295 60 OFFCURVE",
"208 60 CURVE SMOOTH"
);
}
);
width = 721;
}
);
unicode = 1BC57;
},
{
glyphname = u1BC58;
lastChange = "2018-08-24 14:01:58 +0000";
layers = (
{
layerId = "65D08ED1-0487-4E0A-9DF3-A4513C174D42";
paths = (
{
closed = 1;
nodes = (
"326 -16 OFFCURVE",
"434 47 OFFCURVE",
"515 122 CURVE SMOOTH",
"610 211 OFFCURVE",
"661 302 OFFCURVE",
"661 407 CURVE SMOOTH",
"661 484 OFFCURVE",
"608 536 OFFCURVE",
"519 536 CURVE SMOOTH",
"413 536 OFFCURVE",
"301 483 OFFCURVE",
"217 408 CURVE SMOOTH",
"114 315 OFFCURVE",
"60 218 OFFCURVE",
"60 123 CURVE SMOOTH",
"60 21 OFFCURVE",
"131 -16 OFFCURVE",
"202 -16 CURVE SMOOTH"
);
},
{
closed = 1;
nodes = (
"160 60 OFFCURVE",
"139 93 OFFCURVE",
"139 136 CURVE SMOOTH",
"139 205 OFFCURVE",
"209 301 OFFCURVE",
"255 341 CURVE SMOOTH",
"343 416 OFFCURVE",
"428 460 OFFCURVE",
"507 460 CURVE SMOOTH",
"546 460 OFFCURVE",
"582 445 OFFCURVE",
"582 396 CURVE SMOOTH",
"582 320 OFFCURVE",
"530 240 OFFCURVE",
"461 175 CURVE SMOOTH",
"393 111 OFFCURVE",
"295 60 OFFCURVE",
"208 60 CURVE SMOOTH"
);
},
{
closed = 1;
nodes = (
"384 212 OFFCURVE",
"405 234 OFFCURVE",
"405 260 CURVE SMOOTH",
"405 288 OFFCURVE",
"384 309 OFFCURVE",
"357 309 CURVE SMOOTH",
"329 309 OFFCURVE",
"309 288 OFFCURVE",
"309 260 CURVE SMOOTH",
"309 234 OFFCURVE",
"329 212 OFFCURVE",
"357 212 CURVE SMOOTH"
);
}
);
width = 721;
}
);
unicode = 1BC58;
},
{
glyphname = u1BC59;
lastChange = "2018-08-24 14:01:58 +0000";
layers = (
{
layerId = "65D08ED1-0487-4E0A-9DF3-A4513C174D42";
paths = (
{
closed = 1;
nodes = (
"326 -16 OFFCURVE",
"434 47 OFFCURVE",
"515 122 CURVE SMOOTH",
"610 211 OFFCURVE",
"661 302 OFFCURVE",
"661 407 CURVE SMOOTH",
"661 484 OFFCURVE",
"608 536 OFFCURVE",
"519 536 CURVE SMOOTH",
"413 536 OFFCURVE",
"301 483 OFFCURVE",
"217 408 CURVE SMOOTH",
"114 315 OFFCURVE",
"60 218 OFFCURVE",
"60 123 CURVE SMOOTH",
"60 21 OFFCURVE",
"131 -16 OFFCURVE",
"202 -16 CURVE SMOOTH"
);
},
{
closed = 1;
nodes = (
"160 60 OFFCURVE",
"139 93 OFFCURVE",
"139 136 CURVE SMOOTH",
"139 205 OFFCURVE",
"209 301 OFFCURVE",
"255 341 CURVE SMOOTH",
"343 416 OFFCURVE",
"428 460 OFFCURVE",
"507 460 CURVE SMOOTH",
"546 460 OFFCURVE",
"582 445 OFFCURVE",
"582 396 CURVE SMOOTH",
"582 320 OFFCURVE",
"530 240 OFFCURVE",
"461 175 CURVE SMOOTH",
"393 111 OFFCURVE",
"295 60 OFFCURVE",
"208 60 CURVE SMOOTH"
);
},
{
closed = 1;
nodes = (
"733 564 OFFCURVE",
"754 586 OFFCURVE",
"754 612 CURVE SMOOTH",
"754 640 OFFCURVE",
"733 661 OFFCURVE",
"706 661 CURVE SMOOTH",
"678 661 OFFCURVE",
"658 640 OFFCURVE",
"658 612 CURVE SMOOTH",
"658 586 OFFCURVE",
"678 564 OFFCURVE",
"706 564 CURVE SMOOTH"
);
}
);
width = 814;
}
);
unicode = 1BC59;
},
{
glyphname = u1BC5A;
lastChange = "2018-08-24 14:01:58 +0000";
layers = (
{
layerId = "65D08ED1-0487-4E0A-9DF3-A4513C174D42";
paths = (
{
closed = 1;
nodes = (
"409 39 OFFCURVE",
"511 141 OFFCURVE",
"511 265 CURVE SMOOTH",
"511 389 OFFCURVE",
"409 490 OFFCURVE",
"284 490 CURVE SMOOTH",
"161 490 OFFCURVE",
"60 389 OFFCURVE",
"60 265 CURVE SMOOTH",
"60 141 OFFCURVE",
"161 39 OFFCURVE",
"284 39 CURVE SMOOTH"
);
},
{
closed = 1;
nodes = (
"200 112 OFFCURVE",
"134 179 OFFCURVE",
"134 262 CURVE SMOOTH",
"134 351 OFFCURVE",
"201 417 OFFCURVE",
"282 417 CURVE SMOOTH",
"370 417 OFFCURVE",
"435 350 OFFCURVE",
"435 261 CURVE SMOOTH",
"435 178 OFFCURVE",
"369 112 OFFCURVE",
"281 112 CURVE SMOOTH"
);
},
{
closed = 1;
nodes = (
"311 219 OFFCURVE",
"332 241 OFFCURVE",
"332 267 CURVE SMOOTH",
"332 295 OFFCURVE",
"311 316 OFFCURVE",
"284 316 CURVE SMOOTH",
"256 316 OFFCURVE",
"236 295 OFFCURVE",
"236 267 CURVE SMOOTH",
"236 241 OFFCURVE",
"256 219 OFFCURVE",
"284 219 CURVE SMOOTH"
);
}
);
width = 571;
}
);
unicode = 1BC5A;
},
{
glyphname = u1BC5B;
lastChange = "2018-08-24 14:01:58 +0000";
layers = (
{
layerId = "65D08ED1-0487-4E0A-9DF3-A4513C174D42";
paths = (
{
closed = 1;
nodes = (
"409 39 OFFCURVE",
"511 141 OFFCURVE",
"511 265 CURVE SMOOTH",
"511 389 OFFCURVE",
"409 490 OFFCURVE",
"284 490 CURVE SMOOTH",
"161 490 OFFCURVE",
"60 389 OFFCURVE",
"60 265 CURVE SMOOTH",
"60 141 OFFCURVE",
"161 39 OFFCURVE",
"284 39 CURVE SMOOTH"
);
},
{
closed = 1;
nodes = (
"200 112 OFFCURVE",
"134 179 OFFCURVE",
"134 262 CURVE SMOOTH",
"134 338 OFFCURVE",
"182 396 OFFCURVE",
"247 412 CURVE",
"247 314 LINE",
"319 314 LINE",
"319 412 LINE",
"387 396 OFFCURVE",
"435 337 OFFCURVE",
"435 261 CURVE SMOOTH",
"435 178 OFFCURVE",
"369 112 OFFCURVE",
"281 112 CURVE SMOOTH"
);
}
);
width = 571;
}
);
unicode = 1BC5B;
},
{
glyphname = u1BC5C;
lastChange = "2018-08-24 14:01:58 +0000";
layers = (
{
layerId = "65D08ED1-0487-4E0A-9DF3-A4513C174D42";
paths = (
{
closed = 1;
nodes = (
"409 39 OFFCURVE",
"511 141 OFFCURVE",
"511 265 CURVE SMOOTH",
"511 389 OFFCURVE",
"409 490 OFFCURVE",
"284 490 CURVE SMOOTH",
"161 490 OFFCURVE",
"60 389 OFFCURVE",
"60 265 CURVE SMOOTH",
"60 141 OFFCURVE",
"161 39 OFFCURVE",
"284 39 CURVE SMOOTH"
);
},
{
closed = 1;
nodes = (
"200 112 OFFCURVE",
"134 179 OFFCURVE",
"134 262 CURVE SMOOTH",
"134 297 OFFCURVE",
"144 328 OFFCURVE",
"162 354 CURVE",
"182 305 OFFCURVE",
"230 271 OFFCURVE",
"285 271 CURVE SMOOTH",
"340 271 OFFCURVE",
"387 305 OFFCURVE",
"407 353 CURVE",
"425 327 OFFCURVE",
"435 296 OFFCURVE",
"435 261 CURVE SMOOTH",
"435 178 OFFCURVE",
"369 112 OFFCURVE",
"281 112 CURVE SMOOTH"
);
},
{
closed = 1;
nodes = (
"247 334 OFFCURVE",
"217 362 OFFCURVE",
"215 400 CURVE",
"235 411 OFFCURVE",
"258 417 OFFCURVE",
"282 417 CURVE SMOOTH",
"309 417 OFFCURVE",
"335 410 OFFCURVE",
"357 398 CURVE",
"353 361 OFFCURVE",
"322 334 OFFCURVE",
"285 334 CURVE SMOOTH"
);
}
);
width = 571;
}
);
unicode = 1BC5C;
},
{
glyphname = u1BC5D;
lastChange = "2018-08-24 14:01:58 +0000";
layers = (
{
layerId = "65D08ED1-0487-4E0A-9DF3-A4513C174D42";
paths = (
{
closed = 1;
nodes = (
"409 39 OFFCURVE",
"511 141 OFFCURVE",
"511 265 CURVE SMOOTH",
"511 389 OFFCURVE",
"409 490 OFFCURVE",
"284 490 CURVE SMOOTH",
"161 490 OFFCURVE",
"60 389 OFFCURVE",
"60 265 CURVE SMOOTH",
"60 141 OFFCURVE",
"161 39 OFFCURVE",
"284 39 CURVE SMOOTH"
);
},
{
closed = 1;
nodes = (
"213 112 OFFCURVE",
"156 159 OFFCURVE",
"139 223 CURVE",
"178 189 OFFCURVE",
"229 169 OFFCURVE",
"284 169 CURVE SMOOTH",
"339 169 OFFCURVE",
"390 189 OFFCURVE",
"430 223 CURVE",
"413 158 OFFCURVE",
"355 112 OFFCURVE",
"281 112 CURVE SMOOTH"
);
},
{
closed = 1;
nodes = (
"229 242 OFFCURVE",
"173 269 OFFCURVE",
"141 310 CURVE",
"160 374 OFFCURVE",
"216 417 OFFCURVE",
"282 417 CURVE SMOOTH",
"353 417 OFFCURVE",
"409 373 OFFCURVE",
"428 309 CURVE",
"395 268 OFFCURVE",
"337 242 OFFCURVE",
"281 242 CURVE SMOOTH"
);
}
);
width = 571;
}
);
unicode = 1BC5D;
},
{
glyphname = u1BC5E;
lastChange = "2018-08-24 14:01:58 +0000";
layers = (
{
layerId = "65D08ED1-0487-4E0A-9DF3-A4513C174D42";
paths = (
{
closed = 1;
nodes = (
"409 39 OFFCURVE",
"511 141 OFFCURVE",
"511 265 CURVE SMOOTH",
"511 389 OFFCURVE",
"409 490 OFFCURVE",
"284 490 CURVE SMOOTH",
"161 490 OFFCURVE",
"60 389 OFFCURVE",
"60 265 CURVE SMOOTH",
"60 141 OFFCURVE",
"161 39 OFFCURVE",
"284 39 CURVE SMOOTH"
);
},
{
closed = 1;
nodes = (
"200 112 OFFCURVE",
"134 179 OFFCURVE",
"134 262 CURVE SMOOTH",
"134 325 OFFCURVE",
"168 377 OFFCURVE",
"216 401 CURVE",
"215 394 OFFCURVE",
"215 386 OFFCURVE",
"215 379 CURVE SMOOTH",
"215 306 OFFCURVE",
"265 255 OFFCURVE",
"338 255 CURVE",
"338 318 LINE",
"299 318 OFFCURVE",
"278 339 OFFCURVE",
"278 379 CURVE SMOOTH",
"278 389 OFFCURVE",
"280 403 OFFCURVE",
"284 417 CURVE",
"371 416 OFFCURVE",
"435 349 OFFCURVE",
"435 261 CURVE SMOOTH",
"435 178 OFFCURVE",
"369 112 OFFCURVE",
"281 112 CURVE SMOOTH"
);
}
);
width = 571;
}
);
unicode = 1BC5E;
},
{
glyphname = u1BC5F;
lastChange = "2018-08-24 14:01:58 +0000";
layers = (
{
layerId = "65D08ED1-0487-4E0A-9DF3-A4513C174D42";
paths = (
{
closed = 1;
nodes = (
"409 39 OFFCURVE",
"511 141 OFFCURVE",
"511 265 CURVE SMOOTH",
"511 389 OFFCURVE",
"409 490 OFFCURVE",
"284 490 CURVE SMOOTH",
"161 490 OFFCURVE",
"60 389 OFFCURVE",
"60 265 CURVE SMOOTH",
"60 141 OFFCURVE",
"161 39 OFFCURVE",
"284 39 CURVE SMOOTH"
);
},
{
closed = 1;
nodes = (
"200 112 OFFCURVE",
"134 179 OFFCURVE",
"134 262 CURVE SMOOTH",
"134 334 OFFCURVE",
"178 391 OFFCURVE",
"237 410 CURVE",
"233 399 OFFCURVE",
"231 389 OFFCURVE",
"231 378 CURVE SMOOTH",
"231 320 OFFCURVE",
"290 310 OFFCURVE",
"290 281 CURVE SMOOTH",
"290 258 OFFCURVE",
"261 243 OFFCURVE",
"236 243 CURVE",
"236 188 LINE",
"313 188 OFFCURVE",
"356 232 OFFCURVE",
"356 277 CURVE SMOOTH",
"356 337 OFFCURVE",
"297 342 OFFCURVE",
"297 381 CURVE SMOOTH",
"297 392 OFFCURVE",
"298 403 OFFCURVE",
"311 414 CURVE",
"384 401 OFFCURVE",
"435 340 OFFCURVE",
"435 261 CURVE SMOOTH",
"435 178 OFFCURVE",
"369 112 OFFCURVE",
"281 112 CURVE SMOOTH"
);
}
);
width = 571;
}
);
unicode = 1BC5F;
},
{
glyphname = u1BC60;
lastChange = "2018-08-24 14:01:58 +0000";
layers = (
{
layerId = "65D08ED1-0487-4E0A-9DF3-A4513C174D42";
paths = (
{
closed = 1;
nodes = (
"409 39 OFFCURVE",
"511 141 OFFCURVE",
"511 265 CURVE SMOOTH",
"511 389 OFFCURVE",
"409 490 OFFCURVE",
"284 490 CURVE SMOOTH",
"161 490 OFFCURVE",
"60 389 OFFCURVE",
"60 265 CURVE SMOOTH",
"60 141 OFFCURVE",
"161 39 OFFCURVE",
"284 39 CURVE SMOOTH"
);
},
{
closed = 1;
nodes = (
"213 112 OFFCURVE",
"156 159 OFFCURVE",
"139 223 CURVE",
"178 189 OFFCURVE",
"229 169 OFFCURVE",
"284 169 CURVE SMOOTH",
"339 169 OFFCURVE",
"390 189 OFFCURVE",
"430 223 CURVE",
"413 158 OFFCURVE",
"355 112 OFFCURVE",
"281 112 CURVE SMOOTH"
);
},
{
closed = 1;
nodes = (
"229 242 OFFCURVE",
"173 269 OFFCURVE",
"141 310 CURVE",
"160 374 OFFCURVE",
"216 417 OFFCURVE",
"282 417 CURVE SMOOTH",
"353 417 OFFCURVE",
"409 373 OFFCURVE",
"428 309 CURVE",
"395 268 OFFCURVE",
"337 242 OFFCURVE",
"281 242 CURVE SMOOTH"
);
},
{
closed = 1;
nodes = (
"311 289 OFFCURVE",
"332 311 OFFCURVE",
"332 337 CURVE SMOOTH",
"332 365 OFFCURVE",
"311 386 OFFCURVE",
"284 386 CURVE SMOOTH",
"256 386 OFFCURVE",
"236 365 OFFCURVE",
"236 337 CURVE SMOOTH",
"236 311 OFFCURVE",
"256 289 OFFCURVE",
"284 289 CURVE SMOOTH"
);
}
);
width = 571;
}
);
unicode = 1BC60;
},
{
glyphname = u1BC61;
lastChange = "2018-08-24 14:01:58 +0000";
layers = (
{
layerId = "65D08ED1-0487-4E0A-9DF3-A4513C174D42";
paths = (
{
closed = 1;
nodes = (
"252 168 LINE",
"252 237 LINE",
"223 237 LINE SMOOTH",
"172 237 OFFCURVE",
"128 267 OFFCURVE",
"128 332 CURVE SMOOTH",
"128 348 LINE",
"60 348 LINE",
"60 332 LINE SMOOTH",
"60 229 OFFCURVE",
"133 168 OFFCURVE",
"223 168 CURVE SMOOTH"
);
},
{
closed = 1;
nodes = (
"342 317 LINE",
"280 427 LINE",
"256 385 LINE",
"236 395 OFFCURVE",
"214 410 OFFCURVE",
"191 439 CURVE",
"162 411 LINE",
"182 385 OFFCURVE",
"209 363 OFFCURVE",
"236 351 CURVE",
"214 312 LINE"
);
}
);
width = 420;
}
);
unicode = 1BC61;
},
{
glyphname = u1BC62;
lastChange = "2018-08-24 14:01:58 +0000";
layers = (
{
layerId = "65D08ED1-0487-4E0A-9DF3-A4513C174D42";
paths = (
{
closed = 1;
nodes = (
"89 168 LINE SMOOTH",
"179 168 OFFCURVE",
"252 229 OFFCURVE",
"252 332 CURVE SMOOTH",
"252 348 LINE",
"184 348 LINE",
"184 332 LINE SMOOTH",
"184 267 OFFCURVE",
"140 237 OFFCURVE",
"89 237 CURVE SMOOTH",
"60 237 LINE",
"60 168 LINE"
);
},
{
closed = 1;
nodes = (
"213 79 OFFCURVE",
"247 99 OFFCURVE",
"268 120 CURVE",
"297 85 LINE",
"336 207 LINE",
"212 187 LINE",
"243 150 LINE",
"226 134 OFFCURVE",
"199 118 OFFCURVE",
"165 106 CURVE",
"181 70 LINE"
);
}
);
width = 398;
}
);
unicode = 1BC62;
},
{
glyphname = u1BC63;
lastChange = "2018-08-24 14:01:58 +0000";
layers = (
{
layerId = "65D08ED1-0487-4E0A-9DF3-A4513C174D42";
paths = (
{
closed = 1;
nodes = (
"252 168 LINE",
"252 184 LINE SMOOTH",
"252 287 OFFCURVE",
"179 348 OFFCURVE",
"89 348 CURVE SMOOTH",
"60 348 LINE",
"60 279 LINE",
"89 279 LINE SMOOTH",
"140 279 OFFCURVE",
"184 249 OFFCURVE",
"184 184 CURVE SMOOTH",
"184 168 LINE"
);
},
{
closed = 1;
nodes = (
"283 447 LINE",
"254 412 LINE",
"233 433 OFFCURVE",
"199 453 OFFCURVE",
"167 462 CURVE",
"151 426 LINE",
"185 414 OFFCURVE",
"212 398 OFFCURVE",
"229 382 CURVE",
"198 345 LINE",
"322 325 LINE"
);
}
);
width = 372;
}
);
unicode = 1BC63;
},
{
glyphname = u1BC64;
lastChange = "2018-08-24 14:01:58 +0000";
layers = (
{
layerId = "65D08ED1-0487-4E0A-9DF3-A4513C174D42";
paths = (
{
closed = 1;
nodes = (
"168 168 LINE",
"168 184 LINE SMOOTH",
"168 249 OFFCURVE",
"212 279 OFFCURVE",
"263 279 CURVE SMOOTH",
"292 279 LINE",
"292 348 LINE",
"263 348 LINE SMOOTH",
"173 348 OFFCURVE",
"100 287 OFFCURVE",
"100 184 CURVE SMOOTH",
"100 168 LINE"
);
},
{
closed = 1;
nodes = (
"104 367 OFFCURVE",
"129 387 OFFCURVE",
"149 396 CURVE",
"172 353 LINE",
"236 462 LINE",
"109 470 LINE",
"130 430 LINE",
"104 419 OFFCURVE",
"72 394 OFFCURVE",
"52 368 CURVE",
"80 339 LINE"
);
}
);
width = 352;
}
);
unicode = 1BC64;
},
{
glyphname = u1BC65;
lastChange = "2018-08-24 14:01:58 +0000";
layers = (
{
layerId = "65D08ED1-0487-4E0A-9DF3-A4513C174D42";
paths = (
{
closed = 1;
nodes = (
"89 168 LINE SMOOTH",
"179 168 OFFCURVE",
"252 229 OFFCURVE",
"252 332 CURVE SMOOTH",
"252 348 LINE",
"184 348 LINE",
"184 332 LINE SMOOTH",
"184 267 OFFCURVE",
"140 237 OFFCURVE",
"89 237 CURVE SMOOTH",
"60 237 LINE",
"60 168 LINE"
);
},
{
closed = 1;
nodes = (
"241 99 LINE",
"267 110 OFFCURVE",
"299 135 OFFCURVE",
"319 161 CURVE",
"291 190 LINE",
"267 162 OFFCURVE",
"242 142 OFFCURVE",
"222 133 CURVE",
"199 176 LINE",
"135 67 LINE",
"262 59 LINE"
);
}
);
width = 367;
}
);
unicode = 1BC65;
},
{
glyphname = u1BC66;
lastChange = "2018-08-24 14:01:58 +0000";
layers = (
{
layerId = "65D08ED1-0487-4E0A-9DF3-A4513C174D42";
paths = (
{
closed = 1;
nodes = (
"195 168 LINE",
"195 184 LINE SMOOTH",
"195 249 OFFCURVE",
"239 279 OFFCURVE",
"290 279 CURVE SMOOTH",
"319 279 LINE",
"319 348 LINE",
"290 348 LINE SMOOTH",
"200 348 OFFCURVE",
"127 287 OFFCURVE",
"127 184 CURVE SMOOTH",
"127 168 LINE"
);
},
{
closed = 1;
nodes = (
"165 391 LINE",
"183 403 OFFCURVE",
"212 414 OFFCURVE",
"249 420 CURVE",
"239 459 LINE",
"207 456 OFFCURVE",
"168 442 OFFCURVE",
"145 426 CURVE",
"123 465 LINE",
"62 353 LINE",
"188 349 LINE"
);
}
);
width = 379;
}
);
unicode = 1BC66;
},
{
glyphname = u1BC67;
lastChange = "2018-08-24 14:01:58 +0000";
layers = (
{
layerId = "65D08ED1-0487-4E0A-9DF3-A4513C174D42";
paths = (
{
closed = 1;
nodes = (
"252 168 LINE",
"252 237 LINE",
"223 237 LINE SMOOTH",
"172 237 OFFCURVE",
"128 267 OFFCURVE",
"128 332 CURVE SMOOTH",
"128 348 LINE",
"60 348 LINE",
"60 332 LINE SMOOTH",
"60 229 OFFCURVE",
"133 168 OFFCURVE",
"223 168 CURVE SMOOTH"
);
},
{
closed = 1;
nodes = (
"232 300 OFFCURVE",
"246 314 OFFCURVE",
"246 333 CURVE SMOOTH",
"246 353 OFFCURVE",
"232 368 OFFCURVE",
"211 368 CURVE SMOOTH",
"193 368 OFFCURVE",
"178 353 OFFCURVE",
"178 333 CURVE SMOOTH",
"178 314 OFFCURVE",
"193 300 OFFCURVE",
"211 300 CURVE SMOOTH"
);
}
);
width = 312;
}
);
unicode = 1BC67;
},
{
glyphname = u1BC68;
lastChange = "2018-08-24 14:01:58 +0000";
layers = (
{
layerId = "65D08ED1-0487-4E0A-9DF3-A4513C174D42";
paths = (
{
closed = 1;
nodes = (
"289 168 LINE",
"289 237 LINE",
"260 237 LINE SMOOTH",
"209 237 OFFCURVE",
"165 267 OFFCURVE",
"165 332 CURVE SMOOTH",
"165 348 LINE",
"97 348 LINE",
"97 332 LINE SMOOTH",
"97 229 OFFCURVE",
"170 168 OFFCURVE",
"260 168 CURVE SMOOTH"
);
},
{
closed = 1;
nodes = (
"114 129 OFFCURVE",
"128 143 OFFCURVE",
"128 162 CURVE SMOOTH",
"128 182 OFFCURVE",
"114 197 OFFCURVE",
"93 197 CURVE SMOOTH",
"75 197 OFFCURVE",
"60 182 OFFCURVE",
"60 162 CURVE SMOOTH",
"60 143 OFFCURVE",
"75 129 OFFCURVE",
"93 129 CURVE SMOOTH"
);
}
);
width = 349;
}
);
unicode = 1BC68;
},
{
glyphname = u1BC69;
lastChange = "2018-08-24 14:01:58 +0000";
layers = (
{
layerId = "65D08ED1-0487-4E0A-9DF3-A4513C174D42";
paths = (
{
closed = 1;
nodes = (
"159 168 LINE",
"159 184 LINE SMOOTH",
"159 249 OFFCURVE",
"203 279 OFFCURVE",
"254 279 CURVE SMOOTH",
"283 279 LINE",
"283 348 LINE",
"254 348 LINE SMOOTH",
"164 348 OFFCURVE",
"91 287 OFFCURVE",
"91 184 CURVE SMOOTH",
"91 168 LINE"
);
},
{
closed = 1;
nodes = (
"114 315 OFFCURVE",
"128 329 OFFCURVE",
"128 348 CURVE SMOOTH",
"128 368 OFFCURVE",
"114 383 OFFCURVE",
"93 383 CURVE SMOOTH",
"75 383 OFFCURVE",
"60 368 OFFCURVE",
"60 348 CURVE SMOOTH",
"60 329 OFFCURVE",
"75 315 OFFCURVE",
"93 315 CURVE SMOOTH"
);
}
);
width = 343;
}
);
unicode = 1BC69;
},
{
glyphname = u1BC6A;
lastChange = "2018-08-24 14:01:58 +0000";
layers = (
{
layerId = "65D08ED1-0487-4E0A-9DF3-A4513C174D42";
paths = (
{
closed = 1;
nodes = (
"128 0 LINE",
"128 16 LINE SMOOTH",
"128 81 OFFCURVE",
"172 111 OFFCURVE",
"223 111 CURVE SMOOTH",
"252 111 LINE",
"252 180 LINE",
"223 180 LINE SMOOTH",
"133 180 OFFCURVE",
"60 119 OFFCURVE",
"60 16 CURVE SMOOTH",
"60 0 LINE"
);
},
{
closed = 1;
nodes = (
"124 161 OFFCURVE",
"138 176 OFFCURVE",
"138 194 CURVE SMOOTH",
"138 215 OFFCURVE",
"124 229 OFFCURVE",
"103 229 CURVE SMOOTH",
"85 229 OFFCURVE",
"70 215 OFFCURVE",
"70 194 CURVE SMOOTH",
"70 176 OFFCURVE",
"85 161 OFFCURVE",
"103 161 CURVE SMOOTH"
);
},
{
closed = 1;
nodes = (
"124 301 OFFCURVE",
"138 316 OFFCURVE",
"138 334 CURVE SMOOTH",
"138 355 OFFCURVE",
"124 369 OFFCURVE",
"103 369 CURVE SMOOTH",
"85 369 OFFCURVE",
"70 355 OFFCURVE",
"70 334 CURVE SMOOTH",
"70 316 OFFCURVE",
"85 301 OFFCURVE",
"103 301 CURVE SMOOTH"
);
},
{
closed = 1;
nodes = (
"124 441 OFFCURVE",
"138 456 OFFCURVE",
"138 474 CURVE SMOOTH",
"138 495 OFFCURVE",
"124 509 OFFCURVE",
"103 509 CURVE SMOOTH",
"85 509 OFFCURVE",
"70 495 OFFCURVE",
"70 474 CURVE SMOOTH",
"70 456 OFFCURVE",
"85 441 OFFCURVE",
"103 441 CURVE SMOOTH"
);
},
{
closed = 1;
nodes = (
"124 581 OFFCURVE",
"138 596 OFFCURVE",
"138 614 CURVE SMOOTH",
"138 635 OFFCURVE",
"124 649 OFFCURVE",
"103 649 CURVE SMOOTH",
"85 649 OFFCURVE",
"70 635 OFFCURVE",
"70 614 CURVE SMOOTH",
"70 596 OFFCURVE",
"85 581 OFFCURVE",
"103 581 CURVE SMOOTH"
);
}
);
width = 312;
}
);
unicode = 1BC6A;
},
{
glyphname = u1BC70;
lastChange = "2018-08-24 14:01:58 +0000";
layers = (
{
layerId = "65D08ED1-0487-4E0A-9DF3-A4513C174D42";
paths = (
{
closed = 1;
nodes = (
"851 231 LINE",
"851 305 LINE",
"50 305 LINE",
"50 231 LINE"
);
},
{
closed = 1;
nodes = (
"670 -137 OFFCURVE",
"684 -122 OFFCURVE",
"684 -104 CURVE SMOOTH",
"684 -83 OFFCURVE",
"670 -69 OFFCURVE",
"649 -69 CURVE SMOOTH",
"631 -69 OFFCURVE",
"616 -83 OFFCURVE",
"616 -104 CURVE SMOOTH",
"616 -122 OFFCURVE",
"631 -137 OFFCURVE",
"649 -137 CURVE SMOOTH"
);
},
{
closed = 1;
nodes = (
"670 3 OFFCURVE",
"684 18 OFFCURVE",
"684 36 CURVE SMOOTH",
"684 57 OFFCURVE",
"670 71 OFFCURVE",
"649 71 CURVE SMOOTH",
"631 71 OFFCURVE",
"616 57 OFFCURVE",
"616 36 CURVE SMOOTH",
"616 18 OFFCURVE",
"631 3 OFFCURVE",
"649 3 CURVE SMOOTH"
);
},
{
closed = 1;
nodes = (
"670 143 OFFCURVE",
"684 158 OFFCURVE",
"684 176 CURVE SMOOTH",
"684 197 OFFCURVE",
"670 211 OFFCURVE",
"649 211 CURVE SMOOTH",
"631 211 OFFCURVE",
"616 197 OFFCURVE",
"616 176 CURVE SMOOTH",
"616 158 OFFCURVE",
"631 143 OFFCURVE",
"649 143 CURVE SMOOTH"
);
},
{
closed = 1;
nodes = (
"670 325 OFFCURVE",
"684 339 OFFCURVE",
"684 358 CURVE SMOOTH",
"684 378 OFFCURVE",
"670 393 OFFCURVE",
"649 393 CURVE SMOOTH",
"631 393 OFFCURVE",
"616 378 OFFCURVE",
"616 358 CURVE SMOOTH",
"616 339 OFFCURVE",
"631 325 OFFCURVE",
"649 325 CURVE SMOOTH"
);
}
);
width = 901;
}
);
unicode = 1BC70;
},
{
glyphname = u1BC71;
lastChange = "2018-08-24 14:01:58 +0000";
layers = (
{
layerId = "65D08ED1-0487-4E0A-9DF3-A4513C174D42";
paths = (
{
closed = 1;
nodes = (
"851 231 LINE",
"851 305 LINE",
"50 305 LINE",
"50 231 LINE"
);
},
{
closed = 1;
nodes = (
"470 -137 OFFCURVE",
"484 -122 OFFCURVE",
"484 -104 CURVE SMOOTH",
"484 -83 OFFCURVE",
"470 -69 OFFCURVE",
"449 -69 CURVE SMOOTH",
"431 -69 OFFCURVE",
"416 -83 OFFCURVE",
"416 -104 CURVE SMOOTH",
"416 -122 OFFCURVE",
"431 -137 OFFCURVE",
"449 -137 CURVE SMOOTH"
);
},
{
closed = 1;
nodes = (
"470 3 OFFCURVE",
"484 18 OFFCURVE",
"484 36 CURVE SMOOTH",
"484 57 OFFCURVE",
"470 71 OFFCURVE",
"449 71 CURVE SMOOTH",
"431 71 OFFCURVE",
"416 57 OFFCURVE",
"416 36 CURVE SMOOTH",
"416 18 OFFCURVE",
"431 3 OFFCURVE",
"449 3 CURVE SMOOTH"
);
},
{
closed = 1;
nodes = (
"470 143 OFFCURVE",
"484 158 OFFCURVE",
"484 176 CURVE SMOOTH",
"484 197 OFFCURVE",
"470 211 OFFCURVE",
"449 211 CURVE SMOOTH",
"431 211 OFFCURVE",
"416 197 OFFCURVE",
"416 176 CURVE SMOOTH",
"416 158 OFFCURVE",
"431 143 OFFCURVE",
"449 143 CURVE SMOOTH"
);
},
{
closed = 1;
nodes = (
"470 325 OFFCURVE",
"484 339 OFFCURVE",
"484 358 CURVE SMOOTH",
"484 378 OFFCURVE",
"470 393 OFFCURVE",
"449 393 CURVE SMOOTH",
"431 393 OFFCURVE",
"416 378 OFFCURVE",
"416 358 CURVE SMOOTH",
"416 339 OFFCURVE",
"431 325 OFFCURVE",
"449 325 CURVE SMOOTH"
);
}
);
width = 901;
}
);
unicode = 1BC71;
},
{
glyphname = u1BC72;
lastChange = "2018-08-24 14:01:58 +0000";
layers = (
{
layerId = "65D08ED1-0487-4E0A-9DF3-A4513C174D42";
paths = (
{
closed = 1;
nodes = (
"851 231 LINE",
"851 305 LINE",
"50 305 LINE",
"50 231 LINE"
);
},
{
closed = 1;
nodes = (
"270 -137 OFFCURVE",
"284 -122 OFFCURVE",
"284 -104 CURVE SMOOTH",
"284 -83 OFFCURVE",
"270 -69 OFFCURVE",
"249 -69 CURVE SMOOTH",
"231 -69 OFFCURVE",
"216 -83 OFFCURVE",
"216 -104 CURVE SMOOTH",
"216 -122 OFFCURVE",
"231 -137 OFFCURVE",
"249 -137 CURVE SMOOTH"
);
},
{
closed = 1;
nodes = (
"270 3 OFFCURVE",
"284 18 OFFCURVE",
"284 36 CURVE SMOOTH",
"284 57 OFFCURVE",
"270 71 OFFCURVE",
"249 71 CURVE SMOOTH",
"231 71 OFFCURVE",
"216 57 OFFCURVE",
"216 36 CURVE SMOOTH",
"216 18 OFFCURVE",
"231 3 OFFCURVE",
"249 3 CURVE SMOOTH"
);
},
{
closed = 1;
nodes = (
"270 143 OFFCURVE",
"284 158 OFFCURVE",
"284 176 CURVE SMOOTH",
"284 197 OFFCURVE",
"270 211 OFFCURVE",
"249 211 CURVE SMOOTH",
"231 211 OFFCURVE",
"216 197 OFFCURVE",
"216 176 CURVE SMOOTH",
"216 158 OFFCURVE",
"231 143 OFFCURVE",
"249 143 CURVE SMOOTH"
);
},
{
closed = 1;
nodes = (
"270 325 OFFCURVE",
"284 339 OFFCURVE",
"284 358 CURVE SMOOTH",
"284 378 OFFCURVE",
"270 393 OFFCURVE",
"249 393 CURVE SMOOTH",
"231 393 OFFCURVE",
"216 378 OFFCURVE",
"216 358 CURVE SMOOTH",
"216 339 OFFCURVE",
"231 325 OFFCURVE",
"249 325 CURVE SMOOTH"
);
}
);
width = 901;
}
);
unicode = 1BC72;
},
{
glyphname = u1BC73;
lastChange = "2018-08-24 14:01:58 +0000";
layers = (
{
layerId = "65D08ED1-0487-4E0A-9DF3-A4513C174D42";
paths = (
{
closed = 1;
nodes = (
"224 -100 LINE",
"224 600 LINE",
"148 600 LINE",
"148 -100 LINE"
);
},
{
closed = 1;
nodes = (
"114 386 OFFCURVE",
"128 400 OFFCURVE",
"128 419 CURVE SMOOTH",
"128 439 OFFCURVE",
"114 454 OFFCURVE",
"93 454 CURVE SMOOTH",
"75 454 OFFCURVE",
"60 439 OFFCURVE",
"60 419 CURVE SMOOTH",
"60 400 OFFCURVE",
"75 386 OFFCURVE",
"93 386 CURVE SMOOTH"
);
},
{
closed = 1;
nodes = (
"298 386 OFFCURVE",
"312 400 OFFCURVE",
"312 419 CURVE SMOOTH",
"312 439 OFFCURVE",
"298 454 OFFCURVE",
"277 454 CURVE SMOOTH",
"259 454 OFFCURVE",
"244 439 OFFCURVE",
"244 419 CURVE SMOOTH",
"244 400 OFFCURVE",
"259 386 OFFCURVE",
"277 386 CURVE SMOOTH"
);
},
{
closed = 1;
nodes = (
"438 386 OFFCURVE",
"452 400 OFFCURVE",
"452 419 CURVE SMOOTH",
"452 439 OFFCURVE",
"438 454 OFFCURVE",
"417 454 CURVE SMOOTH",
"399 454 OFFCURVE",
"384 439 OFFCURVE",
"384 419 CURVE SMOOTH",
"384 400 OFFCURVE",
"399 386 OFFCURVE",
"417 386 CURVE SMOOTH"
);
},
{
closed = 1;
nodes = (
"578 386 OFFCURVE",
"592 400 OFFCURVE",
"592 419 CURVE SMOOTH",
"592 439 OFFCURVE",
"578 454 OFFCURVE",
"557 454 CURVE SMOOTH",
"539 454 OFFCURVE",
"524 439 OFFCURVE",
"524 419 CURVE SMOOTH",
"524 400 OFFCURVE",
"539 386 OFFCURVE",
"557 386 CURVE SMOOTH"
);
}
);
width = 652;
}
);
unicode = 1BC73;
},
{
glyphname = u1BC74;
lastChange = "2018-08-24 14:01:58 +0000";
layers = (
{
layerId = "65D08ED1-0487-4E0A-9DF3-A4513C174D42";
paths = (
{
closed = 1;
nodes = (
"224 -100 LINE",
"224 600 LINE",
"148 600 LINE",
"148 -100 LINE"
);
},
{
closed = 1;
nodes = (
"114 216 OFFCURVE",
"128 230 OFFCURVE",
"128 249 CURVE SMOOTH",
"128 269 OFFCURVE",
"114 284 OFFCURVE",
"93 284 CURVE SMOOTH",
"75 284 OFFCURVE",
"60 269 OFFCURVE",
"60 249 CURVE SMOOTH",
"60 230 OFFCURVE",
"75 216 OFFCURVE",
"93 216 CURVE SMOOTH"
);
},
{
closed = 1;
nodes = (
"298 216 OFFCURVE",
"312 230 OFFCURVE",
"312 249 CURVE SMOOTH",
"312 269 OFFCURVE",
"298 284 OFFCURVE",
"277 284 CURVE SMOOTH",
"259 284 OFFCURVE",
"244 269 OFFCURVE",
"244 249 CURVE SMOOTH",
"244 230 OFFCURVE",
"259 216 OFFCURVE",
"277 216 CURVE SMOOTH"
);
},
{
closed = 1;
nodes = (
"438 216 OFFCURVE",
"452 230 OFFCURVE",
"452 249 CURVE SMOOTH",
"452 269 OFFCURVE",
"438 284 OFFCURVE",
"417 284 CURVE SMOOTH",
"399 284 OFFCURVE",
"384 269 OFFCURVE",
"384 249 CURVE SMOOTH",
"384 230 OFFCURVE",
"399 216 OFFCURVE",
"417 216 CURVE SMOOTH"
);
},
{
closed = 1;
nodes = (
"578 216 OFFCURVE",
"592 230 OFFCURVE",
"592 249 CURVE SMOOTH",
"592 269 OFFCURVE",
"578 284 OFFCURVE",
"557 284 CURVE SMOOTH",
"539 284 OFFCURVE",
"524 269 OFFCURVE",
"524 249 CURVE SMOOTH",
"524 230 OFFCURVE",
"539 216 OFFCURVE",
"557 216 CURVE SMOOTH"
);
}
);
width = 652;
}
);
unicode = 1BC74;
},
{
glyphname = u1BC75;
lastChange = "2018-08-24 14:01:58 +0000";
layers = (
{
layerId = "65D08ED1-0487-4E0A-9DF3-A4513C174D42";
paths = (
{
closed = 1;
nodes = (
"224 -100 LINE",
"224 600 LINE",
"148 600 LINE",
"148 -100 LINE"
);
},
{
closed = 1;
nodes = (
"114 46 OFFCURVE",
"128 60 OFFCURVE",
"128 79 CURVE SMOOTH",
"128 99 OFFCURVE",
"114 114 OFFCURVE",
"93 114 CURVE SMOOTH",
"75 114 OFFCURVE",
"60 99 OFFCURVE",
"60 79 CURVE SMOOTH",
"60 60 OFFCURVE",
"75 46 OFFCURVE",
"93 46 CURVE SMOOTH"
);
},
{
closed = 1;
nodes = (
"298 46 OFFCURVE",
"312 60 OFFCURVE",
"312 79 CURVE SMOOTH",
"312 99 OFFCURVE",
"298 114 OFFCURVE",
"277 114 CURVE SMOOTH",
"259 114 OFFCURVE",
"244 99 OFFCURVE",
"244 79 CURVE SMOOTH",
"244 60 OFFCURVE",
"259 46 OFFCURVE",
"277 46 CURVE SMOOTH"
);
},
{
closed = 1;
nodes = (
"438 46 OFFCURVE",
"452 60 OFFCURVE",
"452 79 CURVE SMOOTH",
"452 99 OFFCURVE",
"438 114 OFFCURVE",
"417 114 CURVE SMOOTH",
"399 114 OFFCURVE",
"384 99 OFFCURVE",
"384 79 CURVE SMOOTH",
"384 60 OFFCURVE",
"399 46 OFFCURVE",
"417 46 CURVE SMOOTH"
);
},
{
closed = 1;
nodes = (
"578 46 OFFCURVE",
"592 60 OFFCURVE",
"592 79 CURVE SMOOTH",
"592 99 OFFCURVE",
"578 114 OFFCURVE",
"557 114 CURVE SMOOTH",
"539 114 OFFCURVE",
"524 99 OFFCURVE",
"524 79 CURVE SMOOTH",
"524 60 OFFCURVE",
"539 46 OFFCURVE",
"557 46 CURVE SMOOTH"
);
}
);
width = 652;
}
);
unicode = 1BC75;
},
{
glyphname = u1BC76;
lastChange = "2018-08-24 14:01:58 +0000";
layers = (
{
layerId = "65D08ED1-0487-4E0A-9DF3-A4513C174D42";
paths = (
{
closed = 1;
nodes = (
"575 459 LINE",
"500 481 LINE",
"371 50 LINE",
"446 28 LINE"
);
},
{
closed = 1;
nodes = (
"114 216 OFFCURVE",
"128 230 OFFCURVE",
"128 249 CURVE SMOOTH",
"128 269 OFFCURVE",
"114 284 OFFCURVE",
"93 284 CURVE SMOOTH",
"75 284 OFFCURVE",
"60 269 OFFCURVE",
"60 249 CURVE SMOOTH",
"60 230 OFFCURVE",
"75 216 OFFCURVE",
"93 216 CURVE SMOOTH"
);
},
{
closed = 1;
nodes = (
"244 216 OFFCURVE",
"258 230 OFFCURVE",
"258 249 CURVE SMOOTH",
"258 269 OFFCURVE",
"244 284 OFFCURVE",
"223 284 CURVE SMOOTH",
"205 284 OFFCURVE",
"190 269 OFFCURVE",
"190 249 CURVE SMOOTH",
"190 230 OFFCURVE",
"205 216 OFFCURVE",
"223 216 CURVE SMOOTH"
);
},
{
closed = 1;
nodes = (
"374 216 OFFCURVE",
"388 230 OFFCURVE",
"388 249 CURVE SMOOTH",
"388 269 OFFCURVE",
"374 284 OFFCURVE",
"353 284 CURVE SMOOTH",
"335 284 OFFCURVE",
"320 269 OFFCURVE",
"320 249 CURVE SMOOTH",
"320 230 OFFCURVE",
"335 216 OFFCURVE",
"353 216 CURVE SMOOTH"
);
},
{
closed = 1;
nodes = (
"608 216 OFFCURVE",
"622 230 OFFCURVE",
"622 249 CURVE SMOOTH",
"622 269 OFFCURVE",
"608 284 OFFCURVE",
"587 284 CURVE SMOOTH",
"569 284 OFFCURVE",
"554 269 OFFCURVE",
"554 249 CURVE SMOOTH",
"554 230 OFFCURVE",
"569 216 OFFCURVE",
"587 216 CURVE SMOOTH"
);
}
);
width = 682;
}
);
unicode = 1BC76;
},
{
glyphname = u1BC77;
lastChange = "2018-08-24 14:01:58 +0000";
layers = (
{
layerId = "65D08ED1-0487-4E0A-9DF3-A4513C174D42";
paths = (
{
closed = 1;
nodes = (
"506 159 LINE",
"74 248 LINE",
"60 182 LINE",
"492 93 LINE"
);
},
{
closed = 1;
nodes = (
"302 -243 OFFCURVE",
"316 -228 OFFCURVE",
"316 -210 CURVE SMOOTH",
"316 -189 OFFCURVE",
"302 -175 OFFCURVE",
"281 -175 CURVE SMOOTH",
"263 -175 OFFCURVE",
"248 -189 OFFCURVE",
"248 -210 CURVE SMOOTH",
"248 -228 OFFCURVE",
"263 -243 OFFCURVE",
"281 -243 CURVE SMOOTH"
);
},
{
closed = 1;
nodes = (
"302 -103 OFFCURVE",
"316 -88 OFFCURVE",
"316 -70 CURVE SMOOTH",
"316 -49 OFFCURVE",
"302 -35 OFFCURVE",
"281 -35 CURVE SMOOTH",
"263 -35 OFFCURVE",
"248 -49 OFFCURVE",
"248 -70 CURVE SMOOTH",
"248 -88 OFFCURVE",
"263 -103 OFFCURVE",
"281 -103 CURVE SMOOTH"
);
},
{
closed = 1;
nodes = (
"302 37 OFFCURVE",
"316 52 OFFCURVE",
"316 70 CURVE SMOOTH",
"316 91 OFFCURVE",
"302 105 OFFCURVE",
"281 105 CURVE SMOOTH",
"263 105 OFFCURVE",
"248 91 OFFCURVE",
"248 70 CURVE SMOOTH",
"248 52 OFFCURVE",
"263 37 OFFCURVE",
"281 37 CURVE SMOOTH"
);
},
{
closed = 1;
nodes = (
"302 235 OFFCURVE",
"316 249 OFFCURVE",
"316 268 CURVE SMOOTH",
"316 288 OFFCURVE",
"302 303 OFFCURVE",
"281 303 CURVE SMOOTH",
"263 303 OFFCURVE",
"248 288 OFFCURVE",
"248 268 CURVE SMOOTH",
"248 249 OFFCURVE",
"263 235 OFFCURVE",
"281 235 CURVE SMOOTH"
);
}
);
width = 566;
}
);
unicode = 1BC77;
},
{
glyphname = u1BC78;
lastChange = "2018-08-24 14:01:58 +0000";
layers = (
{
layerId = "65D08ED1-0487-4E0A-9DF3-A4513C174D42";
paths = (
{
closed = 1;
nodes = (
"630 50 LINE",
"630 460 LINE",
"554 460 LINE",
"554 50 LINE"
);
},
{
closed = 1;
nodes = (
"114 216 OFFCURVE",
"128 230 OFFCURVE",
"128 249 CURVE SMOOTH",
"128 269 OFFCURVE",
"114 284 OFFCURVE",
"93 284 CURVE SMOOTH",
"75 284 OFFCURVE",
"60 269 OFFCURVE",
"60 249 CURVE SMOOTH",
"60 230 OFFCURVE",
"75 216 OFFCURVE",
"93 216 CURVE SMOOTH"
);
},
{
closed = 1;
nodes = (
"244 216 OFFCURVE",
"258 230 OFFCURVE",
"258 249 CURVE SMOOTH",
"258 269 OFFCURVE",
"244 284 OFFCURVE",
"223 284 CURVE SMOOTH",
"205 284 OFFCURVE",
"190 269 OFFCURVE",
"190 249 CURVE SMOOTH",
"190 230 OFFCURVE",
"205 216 OFFCURVE",
"223 216 CURVE SMOOTH"
);
},
{
closed = 1;
nodes = (
"374 216 OFFCURVE",
"388 230 OFFCURVE",
"388 249 CURVE SMOOTH",
"388 269 OFFCURVE",
"374 284 OFFCURVE",
"353 284 CURVE SMOOTH",
"335 284 OFFCURVE",
"320 269 OFFCURVE",
"320 249 CURVE SMOOTH",
"320 230 OFFCURVE",
"335 216 OFFCURVE",
"353 216 CURVE SMOOTH"
);
},
{
closed = 1;
nodes = (
"504 216 OFFCURVE",
"518 230 OFFCURVE",
"518 249 CURVE SMOOTH",
"518 269 OFFCURVE",
"504 284 OFFCURVE",
"483 284 CURVE SMOOTH",
"465 284 OFFCURVE",
"450 269 OFFCURVE",
"450 249 CURVE SMOOTH",
"450 230 OFFCURVE",
"465 216 OFFCURVE",
"483 216 CURVE SMOOTH"
);
}
);
width = 730;
}
);
unicode = 1BC78;
},
{
glyphname = u1BC79;
lastChange = "2018-08-24 14:01:58 +0000";
layers = (
{
layerId = "65D08ED1-0487-4E0A-9DF3-A4513C174D42";
paths = (
{
closed = 1;
nodes = (
"461 198 OFFCURVE",
"634 378 OFFCURVE",
"634 615 CURVE SMOOTH",
"634 820 OFFCURVE",
"519 950 OFFCURVE",
"298 950 CURVE SMOOTH",
"277 950 LINE",
"277 875 LINE",
"296 875 LINE SMOOTH",
"467 875 OFFCURVE",
"554 769 OFFCURVE",
"554 614 CURVE SMOOTH",
"554 399 OFFCURVE",
"401 273 OFFCURVE",
"212 273 CURVE SMOOTH",
"168 273 OFFCURVE",
"123 275 OFFCURVE",
"80 284 CURVE",
"80 207 LINE",
"122 201 OFFCURVE",
"167 198 OFFCURVE",
"214 198 CURVE SMOOTH"
);
}
);
width = 694;
}
);
unicode = 1BC79;
},
{
glyphname = u1BC7A;
lastChange = "2018-08-24 14:01:58 +0000";
layers = (
{
layerId = "65D08ED1-0487-4E0A-9DF3-A4513C174D42";
paths = (
{
closed = 1;
nodes = (
"123 0 LINE",
"123 40 OFFCURVE",
"154 71 OFFCURVE",
"193 71 CURVE SMOOTH",
"232 71 OFFCURVE",
"265 40 OFFCURVE",
"265 0 CURVE",
"326 0 LINE",
"326 73 OFFCURVE",
"267 134 OFFCURVE",
"193 134 CURVE SMOOTH",
"120 134 OFFCURVE",
"60 73 OFFCURVE",
"60 0 CURVE"
);
},
{
closed = 1;
nodes = (
"131 125 OFFCURVE",
"145 140 OFFCURVE",
"145 158 CURVE SMOOTH",
"145 179 OFFCURVE",
"131 193 OFFCURVE",
"110 193 CURVE SMOOTH",
"92 193 OFFCURVE",
"77 179 OFFCURVE",
"77 158 CURVE SMOOTH",
"77 140 OFFCURVE",
"92 125 OFFCURVE",
"110 125 CURVE SMOOTH"
);
},
{
closed = 1;
nodes = (
"131 265 OFFCURVE",
"145 280 OFFCURVE",
"145 298 CURVE SMOOTH",
"145 319 OFFCURVE",
"131 333 OFFCURVE",
"110 333 CURVE SMOOTH",
"92 333 OFFCURVE",
"77 319 OFFCURVE",
"77 298 CURVE SMOOTH",
"77 280 OFFCURVE",
"92 265 OFFCURVE",
"110 265 CURVE SMOOTH"
);
},
{
closed = 1;
nodes = (
"131 405 OFFCURVE",
"145 420 OFFCURVE",
"145 438 CURVE SMOOTH",
"145 459 OFFCURVE",
"131 473 OFFCURVE",
"110 473 CURVE SMOOTH",
"92 473 OFFCURVE",
"77 459 OFFCURVE",
"77 438 CURVE SMOOTH",
"77 420 OFFCURVE",
"92 405 OFFCURVE",
"110 405 CURVE SMOOTH"
);
},
{
closed = 1;
nodes = (
"131 545 OFFCURVE",
"145 560 OFFCURVE",
"145 578 CURVE SMOOTH",
"145 599 OFFCURVE",
"131 613 OFFCURVE",
"110 613 CURVE SMOOTH",
"92 613 OFFCURVE",
"77 599 OFFCURVE",
"77 578 CURVE SMOOTH",
"77 560 OFFCURVE",
"92 545 OFFCURVE",
"110 545 CURVE SMOOTH"
);
}
);
width = 386;
}
);
unicode = 1BC7A;
},
{
glyphname = u1BC7B;
lastChange = "2018-08-24 14:01:58 +0000";
layers = (
{
layerId = "65D08ED1-0487-4E0A-9DF3-A4513C174D42";
paths = (
{
closed = 1;
nodes = (
"183 4 LINE",
"144 4 OFFCURVE",
"123 17 OFFCURVE",
"123 47 CURVE SMOOTH",
"123 77 OFFCURVE",
"144 96 OFFCURVE",
"183 96 CURVE",
"183 159 LINE",
"110 159 OFFCURVE",
"60 111 OFFCURVE",
"60 47 CURVE SMOOTH",
"60 -16 OFFCURVE",
"110 -59 OFFCURVE",
"183 -59 CURVE"
);
},
{
closed = 1;
nodes = (
"169 171 OFFCURVE",
"183 186 OFFCURVE",
"183 204 CURVE SMOOTH",
"183 225 OFFCURVE",
"169 239 OFFCURVE",
"148 239 CURVE SMOOTH",
"130 239 OFFCURVE",
"115 225 OFFCURVE",
"115 204 CURVE SMOOTH",
"115 186 OFFCURVE",
"130 171 OFFCURVE",
"148 171 CURVE SMOOTH"
);
},
{
closed = 1;
nodes = (
"169 311 OFFCURVE",
"183 326 OFFCURVE",
"183 344 CURVE SMOOTH",
"183 365 OFFCURVE",
"169 379 OFFCURVE",
"148 379 CURVE SMOOTH",
"130 379 OFFCURVE",
"115 365 OFFCURVE",
"115 344 CURVE SMOOTH",
"115 326 OFFCURVE",
"130 311 OFFCURVE",
"148 311 CURVE SMOOTH"
);
},
{
closed = 1;
nodes = (
"169 451 OFFCURVE",
"183 466 OFFCURVE",
"183 484 CURVE SMOOTH",
"183 505 OFFCURVE",
"169 519 OFFCURVE",
"148 519 CURVE SMOOTH",
"130 519 OFFCURVE",
"115 505 OFFCURVE",
"115 484 CURVE SMOOTH",
"115 466 OFFCURVE",
"130 451 OFFCURVE",
"148 451 CURVE SMOOTH"
);
},
{
closed = 1;
nodes = (
"169 591 OFFCURVE",
"183 606 OFFCURVE",
"183 624 CURVE SMOOTH",
"183 645 OFFCURVE",
"169 659 OFFCURVE",
"148 659 CURVE SMOOTH",
"130 659 OFFCURVE",
"115 645 OFFCURVE",
"115 624 CURVE SMOOTH",
"115 606 OFFCURVE",
"130 591 OFFCURVE",
"148 591 CURVE SMOOTH"
);
}
);
width = 253;
}
);
unicode = 1BC7B;
},
{
glyphname = u1BC7C;
lastChange = "2018-08-24 14:01:58 +0000";
layers = (
{
layerId = "65D08ED1-0487-4E0A-9DF3-A4513C174D42";
paths = (
{
closed = 1;
nodes = (
"123 0 LINE",
"123 40 OFFCURVE",
"154 71 OFFCURVE",
"193 71 CURVE SMOOTH",
"232 71 OFFCURVE",
"265 40 OFFCURVE",
"265 0 CURVE",
"326 0 LINE",
"326 73 OFFCURVE",
"267 134 OFFCURVE",
"193 134 CURVE SMOOTH",
"120 134 OFFCURVE",
"60 73 OFFCURVE",
"60 0 CURVE"
);
},
{
closed = 1;
nodes = (
"211 146 OFFCURVE",
"225 161 OFFCURVE",
"225 179 CURVE SMOOTH",
"225 200 OFFCURVE",
"211 214 OFFCURVE",
"190 214 CURVE SMOOTH",
"172 214 OFFCURVE",
"157 200 OFFCURVE",
"157 179 CURVE SMOOTH",
"157 161 OFFCURVE",
"172 146 OFFCURVE",
"190 146 CURVE SMOOTH"
);
},
{
closed = 1;
nodes = (
"211 286 OFFCURVE",
"225 301 OFFCURVE",
"225 319 CURVE SMOOTH",
"225 340 OFFCURVE",
"211 354 OFFCURVE",
"190 354 CURVE SMOOTH",
"172 354 OFFCURVE",
"157 340 OFFCURVE",
"157 319 CURVE SMOOTH",
"157 301 OFFCURVE",
"172 286 OFFCURVE",
"190 286 CURVE SMOOTH"
);
},
{
closed = 1;
nodes = (
"211 426 OFFCURVE",
"225 441 OFFCURVE",
"225 459 CURVE SMOOTH",
"225 480 OFFCURVE",
"211 494 OFFCURVE",
"190 494 CURVE SMOOTH",
"172 494 OFFCURVE",
"157 480 OFFCURVE",
"157 459 CURVE SMOOTH",
"157 441 OFFCURVE",
"172 426 OFFCURVE",
"190 426 CURVE SMOOTH"
);
},
{
closed = 1;
nodes = (
"211 566 OFFCURVE",
"225 581 OFFCURVE",
"225 599 CURVE SMOOTH",
"225 620 OFFCURVE",
"211 634 OFFCURVE",
"190 634 CURVE SMOOTH",
"172 634 OFFCURVE",
"157 620 OFFCURVE",
"157 599 CURVE SMOOTH",
"157 581 OFFCURVE",
"172 566 OFFCURVE",
"190 566 CURVE SMOOTH"
);
}
);
width = 386;
}
);
unicode = 1BC7C;
},
{
glyphname = u1BC80;
lastChange = "2018-08-24 14:01:58 +0000";
layers = (
{
layerId = "65D08ED1-0487-4E0A-9DF3-A4513C174D42";
paths = (
{
closed = 1;
nodes = (
"79 420 LINE SMOOTH",
"169 420 OFFCURVE",
"242 481 OFFCURVE",
"242 584 CURVE SMOOTH",
"242 600 LINE",
"174 600 LINE",
"174 584 LINE SMOOTH",
"174 519 OFFCURVE",
"130 489 OFFCURVE",
"79 489 CURVE SMOOTH",
"50 489 LINE",
"50 420 LINE"
);
}
);
width = 292;
}
);
unicode = 1BC80;
},
{
glyphname = u1BC81;
lastChange = "2018-08-24 14:01:58 +0000";
layers = (
{
layerId = "65D08ED1-0487-4E0A-9DF3-A4513C174D42";
paths = (
{
closed = 1;
nodes = (
"184 420 LINE SMOOTH",
"274 420 OFFCURVE",
"347 481 OFFCURVE",
"347 584 CURVE SMOOTH",
"347 600 LINE",
"279 600 LINE",
"279 584 LINE SMOOTH",
"279 519 OFFCURVE",
"235 489 OFFCURVE",
"184 489 CURVE SMOOTH",
"155 489 LINE",
"155 420 LINE"
);
},
{
closed = 1;
nodes = (
"104 277 OFFCURVE",
"118 291 OFFCURVE",
"118 310 CURVE SMOOTH",
"118 330 OFFCURVE",
"104 345 OFFCURVE",
"83 345 CURVE SMOOTH",
"65 345 OFFCURVE",
"50 330 OFFCURVE",
"50 310 CURVE SMOOTH",
"50 291 OFFCURVE",
"65 277 OFFCURVE",
"83 277 CURVE SMOOTH"
);
},
{
closed = 1;
nodes = (
"244 277 OFFCURVE",
"258 291 OFFCURVE",
"258 310 CURVE SMOOTH",
"258 330 OFFCURVE",
"244 345 OFFCURVE",
"223 345 CURVE SMOOTH",
"205 345 OFFCURVE",
"190 330 OFFCURVE",
"190 310 CURVE SMOOTH",
"190 291 OFFCURVE",
"205 277 OFFCURVE",
"223 277 CURVE SMOOTH"
);
},
{
closed = 1;
nodes = (
"384 277 OFFCURVE",
"398 291 OFFCURVE",
"398 310 CURVE SMOOTH",
"398 330 OFFCURVE",
"384 345 OFFCURVE",
"363 345 CURVE SMOOTH",
"345 345 OFFCURVE",
"330 330 OFFCURVE",
"330 310 CURVE SMOOTH",
"330 291 OFFCURVE",
"345 277 OFFCURVE",
"363 277 CURVE SMOOTH"
);
},
{
closed = 1;
nodes = (
"524 277 OFFCURVE",
"538 291 OFFCURVE",
"538 310 CURVE SMOOTH",
"538 330 OFFCURVE",
"524 345 OFFCURVE",
"503 345 CURVE SMOOTH",
"485 345 OFFCURVE",
"470 330 OFFCURVE",
"470 310 CURVE SMOOTH",
"470 291 OFFCURVE",
"485 277 OFFCURVE",
"503 277 CURVE SMOOTH"
);
}
);
width = 588;
}
);
unicode = 1BC81;
},
{
glyphname = u1BC82;
lastChange = "2018-08-24 14:01:58 +0000";
layers = (
{
layerId = "65D08ED1-0487-4E0A-9DF3-A4513C174D42";
paths = (
{
closed = 1;
nodes = (
"242 420 LINE",
"242 489 LINE",
"213 489 LINE SMOOTH",
"162 489 OFFCURVE",
"118 519 OFFCURVE",
"118 584 CURVE SMOOTH",
"118 600 LINE",
"50 600 LINE",
"50 584 LINE SMOOTH",
"50 481 OFFCURVE",
"123 420 OFFCURVE",
"213 420 CURVE SMOOTH"
);
}
);
width = 292;
}
);
unicode = 1BC82;
},
{
glyphname = u1BC83;
lastChange = "2018-08-24 14:01:58 +0000";
layers = (
{
layerId = "65D08ED1-0487-4E0A-9DF3-A4513C174D42";
paths = (
{
closed = 1;
nodes = (
"415 420 LINE",
"415 492 LINE",
"184 492 LINE",
"119 608 LINE",
"50 575 LINE",
"136 420 LINE"
);
}
);
width = 465;
}
);
unicode = 1BC83;
},
{
glyphname = u1BC84;
lastChange = "2018-08-24 14:01:58 +0000";
layers = (
{
layerId = "65D08ED1-0487-4E0A-9DF3-A4513C174D42";
paths = (
{
closed = 1;
nodes = (
"147 480 OFFCURVE",
"173 506 OFFCURVE",
"173 541 CURVE SMOOTH",
"173 576 OFFCURVE",
"147 603 OFFCURVE",
"111 603 CURVE SMOOTH",
"77 603 OFFCURVE",
"50 576 OFFCURVE",
"50 541 CURVE SMOOTH",
"50 506 OFFCURVE",
"77 480 OFFCURVE",
"111 480 CURVE SMOOTH"
);
}
);
width = 223;
}
);
unicode = 1BC84;
},
{
glyphname = u1BC85;
lastChange = "2018-08-24 14:01:58 +0000";
layers = (
{
layerId = "65D08ED1-0487-4E0A-9DF3-A4513C174D42";
paths = (
{
closed = 1;
nodes = (
"234 420 OFFCURVE",
"287 475 OFFCURVE",
"287 540 CURVE SMOOTH",
"287 606 OFFCURVE",
"234 660 OFFCURVE",
"169 660 CURVE SMOOTH",
"104 660 OFFCURVE",
"50 606 OFFCURVE",
"50 540 CURVE SMOOTH",
"50 475 OFFCURVE",
"104 420 OFFCURVE",
"169 420 CURVE SMOOTH"
);
},
{
closed = 1;
nodes = (
"137 483 OFFCURVE",
"112 508 OFFCURVE",
"112 541 CURVE SMOOTH",
"112 573 OFFCURVE",
"137 598 OFFCURVE",
"169 598 CURVE SMOOTH",
"200 598 OFFCURVE",
"227 573 OFFCURVE",
"227 541 CURVE SMOOTH",
"227 508 OFFCURVE",
"200 483 OFFCURVE",
"169 483 CURVE SMOOTH"
);
}
);
width = 337;
}
);
unicode = 1BC85;
},
{
glyphname = u1BC86;
lastChange = "2018-08-24 14:01:58 +0000";
layers = (
{
layerId = "65D08ED1-0487-4E0A-9DF3-A4513C174D42";
paths = (
{
closed = 1;
nodes = (
"339 420 LINE",
"339 492 LINE",
"50 492 LINE",
"50 420 LINE"
);
}
);
width = 389;
}
);
unicode = 1BC86;
},
{
glyphname = u1BC87;
lastChange = "2018-08-24 14:01:58 +0000";
layers = (
{
layerId = "65D08ED1-0487-4E0A-9DF3-A4513C174D42";
paths = (
{
closed = 1;
nodes = (
"246 420 OFFCURVE",
"252 515 OFFCURVE",
"303 515 CURVE SMOOTH",
"343 515 OFFCURVE",
"357 472 OFFCURVE",
"357 430 CURVE",
"420 430 LINE",
"420 506 OFFCURVE",
"379 580 OFFCURVE",
"303 580 CURVE SMOOTH",
"223 580 OFFCURVE",
"205 485 OFFCURVE",
"160 485 CURVE SMOOTH",
"131 485 OFFCURVE",
"116 528 OFFCURVE",
"116 570 CURVE",
"50 570 LINE",
"50 494 OFFCURVE",
"92 420 OFFCURVE",
"168 420 CURVE SMOOTH"
);
}
);
width = 470;
}
);
unicode = 1BC87;
},
{
glyphname = u1BC88;
lastChange = "2018-08-24 14:01:58 +0000";
layers = (
{
layerId = "65D08ED1-0487-4E0A-9DF3-A4513C174D42";
paths = (
{
closed = 1;
nodes = (
"234 431 LINE",
"234 527 LINE",
"279 527 LINE",
"215 627 LINE",
"147 527 LINE",
"192 527 LINE",
"192 431 LINE"
);
},
{
closed = 1;
nodes = (
"122 420 LINE",
"122 630 LINE",
"50 630 LINE",
"50 420 LINE"
);
}
);
width = 329;
}
);
unicode = 1BC88;
},
{
glyphname = u1BC90;
lastChange = "2018-08-24 14:01:58 +0000";
layers = (
{
layerId = "65D08ED1-0487-4E0A-9DF3-A4513C174D42";
paths = (
{
closed = 1;
nodes = (
"79 0 LINE SMOOTH",
"169 0 OFFCURVE",
"242 61 OFFCURVE",
"242 164 CURVE SMOOTH",
"242 180 LINE",
"174 180 LINE",
"174 164 LINE SMOOTH",
"174 99 OFFCURVE",
"130 69 OFFCURVE",
"79 69 CURVE SMOOTH",
"50 69 LINE",
"50 0 LINE"
);
}
);
width = 292;
}
);
unicode = 1BC90;
},
{
glyphname = u1BC91;
lastChange = "2018-08-24 14:01:58 +0000";
layers = (
{
layerId = "65D08ED1-0487-4E0A-9DF3-A4513C174D42";
paths = (
{
closed = 1;
nodes = (
"174 0 LINE SMOOTH",
"264 0 OFFCURVE",
"337 61 OFFCURVE",
"337 164 CURVE SMOOTH",
"337 180 LINE",
"269 180 LINE",
"269 164 LINE SMOOTH",
"269 99 OFFCURVE",
"225 69 OFFCURVE",
"174 69 CURVE SMOOTH",
"145 69 LINE",
"145 0 LINE"
);
},
{
closed = 1;
nodes = (
"104 277 OFFCURVE",
"118 291 OFFCURVE",
"118 310 CURVE SMOOTH",
"118 330 OFFCURVE",
"104 345 OFFCURVE",
"83 345 CURVE SMOOTH",
"65 345 OFFCURVE",
"50 330 OFFCURVE",
"50 310 CURVE SMOOTH",
"50 291 OFFCURVE",
"65 277 OFFCURVE",
"83 277 CURVE SMOOTH"
);
},
{
closed = 1;
nodes = (
"244 277 OFFCURVE",
"258 291 OFFCURVE",
"258 310 CURVE SMOOTH",
"258 330 OFFCURVE",
"244 345 OFFCURVE",
"223 345 CURVE SMOOTH",
"205 345 OFFCURVE",
"190 330 OFFCURVE",
"190 310 CURVE SMOOTH",
"190 291 OFFCURVE",
"205 277 OFFCURVE",
"223 277 CURVE SMOOTH"
);
},
{
closed = 1;
nodes = (
"384 277 OFFCURVE",
"398 291 OFFCURVE",
"398 310 CURVE SMOOTH",
"398 330 OFFCURVE",
"384 345 OFFCURVE",
"363 345 CURVE SMOOTH",
"345 345 OFFCURVE",
"330 330 OFFCURVE",
"330 310 CURVE SMOOTH",
"330 291 OFFCURVE",
"345 277 OFFCURVE",
"363 277 CURVE SMOOTH"
);
},
{
closed = 1;
nodes = (
"524 277 OFFCURVE",
"538 291 OFFCURVE",
"538 310 CURVE SMOOTH",
"538 330 OFFCURVE",
"524 345 OFFCURVE",
"503 345 CURVE SMOOTH",
"485 345 OFFCURVE",
"470 330 OFFCURVE",
"470 310 CURVE SMOOTH",
"470 291 OFFCURVE",
"485 277 OFFCURVE",
"503 277 CURVE SMOOTH"
);
}
);
width = 588;
}
);
unicode = 1BC91;
},
{
glyphname = u1BC92;
lastChange = "2018-08-24 14:01:58 +0000";
layers = (
{
layerId = "65D08ED1-0487-4E0A-9DF3-A4513C174D42";
paths = (
{
closed = 1;
nodes = (
"242 0 LINE",
"242 69 LINE",
"213 69 LINE SMOOTH",
"162 69 OFFCURVE",
"118 99 OFFCURVE",
"118 164 CURVE SMOOTH",
"118 180 LINE",
"50 180 LINE",
"50 164 LINE SMOOTH",
"50 61 OFFCURVE",
"123 0 OFFCURVE",
"213 0 CURVE SMOOTH"
);
}
);
width = 292;
}
);
unicode = 1BC92;
},
{
glyphname = u1BC93;
lastChange = "2018-08-24 14:01:58 +0000";
layers = (
{
layerId = "65D08ED1-0487-4E0A-9DF3-A4513C174D42";
paths = (
{
closed = 1;
nodes = (
"415 0 LINE",
"415 72 LINE",
"184 72 LINE",
"119 188 LINE",
"50 155 LINE",
"136 0 LINE"
);
}
);
width = 465;
}
);
unicode = 1BC93;
},
{
glyphname = u1BC94;
lastChange = "2018-08-24 14:01:58 +0000";
layers = (
{
layerId = "65D08ED1-0487-4E0A-9DF3-A4513C174D42";
paths = (
{
closed = 1;
nodes = (
"147 60 OFFCURVE",
"173 86 OFFCURVE",
"173 121 CURVE SMOOTH",
"173 156 OFFCURVE",
"147 183 OFFCURVE",
"111 183 CURVE SMOOTH",
"77 183 OFFCURVE",
"50 156 OFFCURVE",
"50 121 CURVE SMOOTH",
"50 86 OFFCURVE",
"77 60 OFFCURVE",
"111 60 CURVE SMOOTH"
);
}
);
width = 223;
}
);
unicode = 1BC94;
},
{
glyphname = u1BC95;
lastChange = "2018-08-24 14:01:58 +0000";
layers = (
{
layerId = "65D08ED1-0487-4E0A-9DF3-A4513C174D42";
paths = (
{
closed = 1;
nodes = (
"234 0 OFFCURVE",
"287 55 OFFCURVE",
"287 120 CURVE SMOOTH",
"287 186 OFFCURVE",
"234 240 OFFCURVE",
"169 240 CURVE SMOOTH",
"104 240 OFFCURVE",
"50 186 OFFCURVE",
"50 120 CURVE SMOOTH",
"50 55 OFFCURVE",
"104 0 OFFCURVE",
"169 0 CURVE SMOOTH"
);
},
{
closed = 1;
nodes = (
"137 63 OFFCURVE",
"112 88 OFFCURVE",
"112 121 CURVE SMOOTH",
"112 153 OFFCURVE",
"137 178 OFFCURVE",
"169 178 CURVE SMOOTH",
"200 178 OFFCURVE",
"227 153 OFFCURVE",
"227 121 CURVE SMOOTH",
"227 88 OFFCURVE",
"200 63 OFFCURVE",
"169 63 CURVE SMOOTH"
);
}
);
width = 337;
}
);
unicode = 1BC95;
},
{
glyphname = u1BC96;
lastChange = "2018-08-24 14:01:58 +0000";
layers = (
{
layerId = "65D08ED1-0487-4E0A-9DF3-A4513C174D42";
paths = (
{
closed = 1;
nodes = (
"339 0 LINE",
"339 72 LINE",
"50 72 LINE",
"50 0 LINE"
);
}
);
width = 389;
}
);
unicode = 1BC96;
},
{
glyphname = u1BC97;
lastChange = "2018-08-24 14:01:58 +0000";
layers = (
{
layerId = "65D08ED1-0487-4E0A-9DF3-A4513C174D42";
paths = (
{
closed = 1;
nodes = (
"246 0 OFFCURVE",
"252 95 OFFCURVE",
"303 95 CURVE SMOOTH",
"343 95 OFFCURVE",
"357 52 OFFCURVE",
"357 10 CURVE",
"420 10 LINE",
"420 86 OFFCURVE",
"379 160 OFFCURVE",
"303 160 CURVE SMOOTH",
"223 160 OFFCURVE",
"205 65 OFFCURVE",
"160 65 CURVE SMOOTH",
"131 65 OFFCURVE",
"116 108 OFFCURVE",
"116 150 CURVE",
"50 150 LINE",
"50 74 OFFCURVE",
"92 0 OFFCURVE",
"168 0 CURVE SMOOTH"
);
}
);
width = 470;
}
);
unicode = 1BC97;
},
{
glyphname = u1BC98;
lastChange = "2018-08-24 14:01:58 +0000";
layers = (
{
layerId = "65D08ED1-0487-4E0A-9DF3-A4513C174D42";
paths = (
{
closed = 1;
nodes = (
"279 103 LINE",
"234 103 LINE",
"234 199 LINE",
"192 199 LINE",
"192 103 LINE",
"147 103 LINE",
"215 3 LINE"
);
},
{
closed = 1;
nodes = (
"122 0 LINE",
"122 210 LINE",
"50 210 LINE",
"50 0 LINE"
);
}
);
width = 329;
}
);
unicode = 1BC98;
},
{
glyphname = u1BC99;
lastChange = "2018-08-24 14:01:58 +0000";
layers = (
{
layerId = "65D08ED1-0487-4E0A-9DF3-A4513C174D42";
paths = (
{
closed = 1;
nodes = (
"299 179 LINE",
"299 240 LINE",
"50 240 LINE",
"50 166 LINE",
"199 166 LINE",
"116 23 LINE",
"187 -12 LINE"
);
}
);
width = 349;
}
);
unicode = 1BC99;
},
{
glyphname = u1BC9C;
lastChange = "2018-08-24 14:01:58 +0000";
layers = (
{
layerId = "65D08ED1-0487-4E0A-9DF3-A4513C174D42";
paths = (
{
closed = 1;
nodes = (
"487 -15 OFFCURVE",
"611 109 OFFCURVE",
"611 261 CURVE SMOOTH",
"611 413 OFFCURVE",
"487 536 OFFCURVE",
"335 536 CURVE SMOOTH",
"183 536 OFFCURVE",
"60 413 OFFCURVE",
"60 261 CURVE SMOOTH",
"60 109 OFFCURVE",
"183 -15 OFFCURVE",
"335 -15 CURVE SMOOTH"
);
},
{
closed = 1;
nodes = (
"226 61 OFFCURVE",
"140 154 OFFCURVE",
"140 260 CURVE SMOOTH",
"140 367 OFFCURVE",
"226 460 OFFCURVE",
"333 460 CURVE SMOOTH",
"439 460 OFFCURVE",
"531 366 OFFCURVE",
"531 259 CURVE SMOOTH",
"531 153 OFFCURVE",
"439 61 OFFCURVE",
"333 61 CURVE SMOOTH"
);
},
{
closed = 1;
nodes = (
"373 95 LINE",
"373 231 LINE",
"491 231 LINE",
"491 303 LINE",
"373 303 LINE",
"373 420 LINE",
"299 420 LINE",
"299 303 LINE",
"180 303 LINE",
"180 231 LINE",
"299 231 LINE",
"299 95 LINE"
);
}
);
width = 671;
}
);
unicode = 1BC9C;
},
{
glyphname = u1BC9D;
lastChange = "2018-08-24 14:01:58 +0000";
layers = (
{
layerId = "65D08ED1-0487-4E0A-9DF3-A4513C174D42";
paths = (
{
closed = 1;
nodes = (
"782 -14 OFFCURVE",
"831 17 OFFCURVE",
"831 65 CURVE SMOOTH",
"831 165 OFFCURVE",
"664 141 OFFCURVE",
"664 196 CURVE SMOOTH",
"664 206 OFFCURVE",
"678 219 OFFCURVE",
"716 219 CURVE SMOOTH",
"741 219 OFFCURVE",
"769 212 OFFCURVE",
"792 204 CURVE",
"812 252 LINE",
"786 261 OFFCURVE",
"757 270 OFFCURVE",
"716 270 CURVE SMOOTH",
"659 270 OFFCURVE",
"602 244 OFFCURVE",
"602 190 CURVE SMOOTH",
"602 87 OFFCURVE",
"769 110 OFFCURVE",
"769 67 CURVE SMOOTH",
"769 52 OFFCURVE",
"753 37 OFFCURVE",
"719 37 CURVE SMOOTH",
"669 37 OFFCURVE",
"634 45 OFFCURVE",
"612 53 CURVE",
"612 1 LINE",
"633 -7 OFFCURVE",
"672 -14 OFFCURVE",
"710 -14 CURVE SMOOTH"
);
},
{
closed = 1;
nodes = (
"248 -187 LINE",
"248 -134 LINE",
"154 -134 LINE",
"154 -39 LINE",
"100 -39 LINE",
"100 -187 LINE"
);
},
{
closed = 1;
nodes = (
"154 19 LINE",
"154 151 LINE",
"100 151 LINE",
"100 19 LINE"
);
},
{
closed = 1;
nodes = (
"439 -187 LINE",
"439 -134 LINE",
"307 -134 LINE",
"307 -187 LINE"
);
},
{
closed = 1;
nodes = (
"154 210 LINE",
"154 343 LINE",
"100 343 LINE",
"100 210 LINE"
);
},
{
closed = 1;
nodes = (
"631 -187 LINE",
"631 -134 LINE",
"498 -134 LINE",
"498 -187 LINE"
);
},
{
closed = 1;
nodes = (
"491 -12 LINE",
"491 38 LINE",
"362 38 LINE",
"362 264 LINE",
"302 264 LINE",
"302 -12 LINE"
);
},
{
closed = 1;
nodes = (
"154 402 LINE",
"154 534 LINE",
"100 534 LINE",
"100 402 LINE"
);
},
{
closed = 1;
nodes = (
"822 -187 LINE",
"822 -134 LINE",
"689 -134 LINE",
"689 -187 LINE"
);
},
{
closed = 1;
nodes = (
"154 593 LINE",
"154 687 LINE",
"248 687 LINE",
"248 741 LINE",
"100 741 LINE",
"100 593 LINE"
);
},
{
closed = 1;
nodes = (
"1028 -187 LINE",
"1028 -39 LINE",
"975 -39 LINE",
"975 -134 LINE",
"880 -134 LINE",
"880 -187 LINE"
);
},
{
closed = 1;
nodes = (
"382 324 LINE SMOOTH",
"476 324 OFFCURVE",
"531 363 OFFCURVE",
"531 460 CURVE SMOOTH",
"531 552 OFFCURVE",
"477 600 OFFCURVE",
"391 600 CURVE SMOOTH",
"302 600 LINE",
"302 324 LINE"
);
},
{
closed = 1;
nodes = (
"362 550 LINE",
"386 550 LINE SMOOTH",
"443 550 OFFCURVE",
"476 522 OFFCURVE",
"476 458 CURVE SMOOTH",
"476 396 OFFCURVE",
"444 374 OFFCURVE",
"380 374 CURVE SMOOTH",
"362 374 LINE"
);
},
{
closed = 1;
nodes = (
"1028 19 LINE",
"1028 151 LINE",
"975 151 LINE",
"975 19 LINE"
);
},
{
closed = 1;
nodes = (
"439 687 LINE",
"439 741 LINE",
"307 741 LINE",
"307 687 LINE"
);
},
{
closed = 1;
nodes = (
"741 324 LINE",
"741 550 LINE",
"820 550 LINE",
"820 600 LINE",
"602 600 LINE",
"602 550 LINE",
"681 550 LINE",
"681 324 LINE"
);
},
{
closed = 1;
nodes = (
"1028 210 LINE",
"1028 343 LINE",
"975 343 LINE",
"975 210 LINE"
);
},
{
closed = 1;
nodes = (
"631 687 LINE",
"631 741 LINE",
"498 741 LINE",
"498 687 LINE"
);
},
{
closed = 1;
nodes = (
"822 687 LINE",
"822 741 LINE",
"689 741 LINE",
"689 687 LINE"
);
},
{
closed = 1;
nodes = (
"1028 402 LINE",
"1028 534 LINE",
"975 534 LINE",
"975 402 LINE"
);
},
{
closed = 1;
nodes = (
"1028 593 LINE",
"1028 741 LINE",
"880 741 LINE",
"880 687 LINE",
"975 687 LINE",
"975 593 LINE"
);
}
);
width = 1128;
}
);
unicode = 1BC9D;
},
{
glyphname = u1BC9E;
lastChange = "2018-08-24 14:01:58 +0000";
layers = (
{
layerId = "65D08ED1-0487-4E0A-9DF3-A4513C174D42";
paths = (
{
closed = 1;
nodes = (
"445 459 LINE",
"370 481 LINE",
"241 50 LINE",
"316 28 LINE"
);
},
{
closed = 1;
nodes = (
"114 216 OFFCURVE",
"128 230 OFFCURVE",
"128 249 CURVE SMOOTH",
"128 269 OFFCURVE",
"114 284 OFFCURVE",
"93 284 CURVE SMOOTH",
"75 284 OFFCURVE",
"60 269 OFFCURVE",
"60 249 CURVE SMOOTH",
"60 230 OFFCURVE",
"75 216 OFFCURVE",
"93 216 CURVE SMOOTH"
);
},
{
closed = 1;
nodes = (
"244 216 OFFCURVE",
"258 230 OFFCURVE",
"258 249 CURVE SMOOTH",
"258 269 OFFCURVE",
"244 284 OFFCURVE",
"223 284 CURVE SMOOTH",
"205 284 OFFCURVE",
"190 269 OFFCURVE",
"190 249 CURVE SMOOTH",
"190 230 OFFCURVE",
"205 216 OFFCURVE",
"223 216 CURVE SMOOTH"
);
},
{
closed = 1;
nodes = (
"478 216 OFFCURVE",
"492 230 OFFCURVE",
"492 249 CURVE SMOOTH",
"492 269 OFFCURVE",
"478 284 OFFCURVE",
"457 284 CURVE SMOOTH",
"439 284 OFFCURVE",
"424 269 OFFCURVE",
"424 249 CURVE SMOOTH",
"424 230 OFFCURVE",
"439 216 OFFCURVE",
"457 216 CURVE SMOOTH"
);
},
{
closed = 1;
nodes = (
"608 216 OFFCURVE",
"622 230 OFFCURVE",
"622 249 CURVE SMOOTH",
"622 269 OFFCURVE",
"608 284 OFFCURVE",
"587 284 CURVE SMOOTH",
"569 284 OFFCURVE",
"554 269 OFFCURVE",
"554 249 CURVE SMOOTH",
"554 230 OFFCURVE",
"569 216 OFFCURVE",
"587 216 CURVE SMOOTH"
);
}
);
width = 682;
}
);
unicode = 1BC9E;
},
{
glyphname = u1BC9F;
lastChange = "2018-08-24 14:01:58 +0000";
layers = (
{
layerId = "65D08ED1-0487-4E0A-9DF3-A4513C174D42";
paths = (
{
closed = 1;
nodes = (
"476 292 LINE",
"462 358 LINE",
"30 269 LINE",
"44 203 LINE"
);
},
{
closed = 1;
nodes = (
"506 142 LINE",
"492 208 LINE",
"60 119 LINE",
"74 53 LINE"
);
}
);
width = 536;
}
);
unicode = 1BC9F;
},
{
glyphname = vertical;
lastChange = "2018-08-24 14:01:58 +0000";
layers = (
{
layerId = "65D08ED1-0487-4E0A-9DF3-A4513C174D42";
paths = (
{
closed = 1;
nodes = (
"126 310 LINE",
"126 580 LINE",
"50 580 LINE",
"50 310 LINE"
);
}
);
width = 176;
}
);
},
{
glyphname = horiz.1;
lastChange = "2018-08-24 14:01:58 +0000";
layers = (
{
layerId = "65D08ED1-0487-4E0A-9DF3-A4513C174D42";
paths = (
{
closed = 1;
nodes = (
"361 311 LINE",
"361 385 LINE",
"50 385 LINE",
"50 311 LINE"
);
}
);
width = 411;
}
);
},
{
glyphname = dot1;
lastChange = "2018-08-24 14:01:58 +0000";
layers = (
{
layerId = "65D08ED1-0487-4E0A-9DF3-A4513C174D42";
paths = (
{
closed = 1;
nodes = (
"125 325 OFFCURVE",
"146 347 OFFCURVE",
"146 373 CURVE SMOOTH",
"146 401 OFFCURVE",
"125 422 OFFCURVE",
"98 422 CURVE SMOOTH",
"70 422 OFFCURVE",
"50 401 OFFCURVE",
"50 373 CURVE SMOOTH",
"50 347 OFFCURVE",
"70 325 OFFCURVE",
"98 325 CURVE SMOOTH"
);
}
);
width = 196;
}
);
},
{
glyphname = u1BCA0;
lastChange = "2018-08-24 14:17:20 +0000";
layers = (
{
background = {
paths = (
{
closed = 1;
nodes = (
"744 160 LINE",
"785.333 208.667 OFFCURVE",
"829.333 244.667 OFFCURVE",
"876 268 CURVE",
"876 286 LINE",
"829.333 309.333 OFFCURVE",
"785.333 345.333 OFFCURVE",
"744 394 CURVE",
"709 394 LINE",
"729 352 OFFCURVE",
"748.333 320 OFFCURVE",
"767 298 CURVE",
"309 298 LINE",
"309 344 LINE",
"270 344 LINE",
"270 210 LINE",
"309 210 LINE",
"309 256 LINE",
"767 256 LINE",
"748.333 234 OFFCURVE",
"729 202 OFFCURVE",
"709 160 CURVE"
);
},
{
closed = 1;
nodes = (
"248 -187 LINE",
"248 -134 LINE",
"154 -134 LINE",
"154 -39 LINE",
"100 -39 LINE",
"100 -187 LINE"
);
},
{
closed = 1;
nodes = (
"154 19 LINE",
"154 151 LINE",
"100 151 LINE",
"100 19 LINE"
);
},
{
closed = 1;
nodes = (
"439 -187 LINE",
"439 -134 LINE",
"307 -134 LINE",
"307 -187 LINE"
);
},
{
closed = 1;
nodes = (
"154 210 LINE",
"154 343 LINE",
"100 343 LINE",
"100 210 LINE"
);
},
{
closed = 1;
nodes = (
"631 -187 LINE",
"631 -134 LINE",
"498 -134 LINE",
"498 -187 LINE"
);
},
{
closed = 1;
nodes = (
"154 402 LINE",
"154 534 LINE",
"100 534 LINE",
"100 402 LINE"
);
},
{
closed = 1;
nodes = (
"822 -187 LINE",
"822 -134 LINE",
"689 -134 LINE",
"689 -187 LINE"
);
},
{
closed = 1;
nodes = (
"578 160 LINE",
"578 394 LINE",
"539 394 LINE",
"539 160 LINE"
);
},
{
closed = 1;
nodes = (
"154 593 LINE",
"154 687 LINE",
"248 687 LINE",
"248 741 LINE",
"100 741 LINE",
"100 593 LINE"
);
},
{
closed = 1;
nodes = (
"1028 -187 LINE",
"1028 -39 LINE",
"975 -39 LINE",
"975 -134 LINE",
"880 -134 LINE",
"880 -187 LINE"
);
},
{
closed = 1;
nodes = (
"1028 19 LINE",
"1028 151 LINE",
"975 151 LINE",
"975 19 LINE"
);
},
{
closed = 1;
nodes = (
"439 687 LINE",
"439 741 LINE",
"307 741 LINE",
"307 687 LINE"
);
},
{
closed = 1;
nodes = (
"1028 210 LINE",
"1028 343 LINE",
"975 343 LINE",
"975 210 LINE"
);
},
{
closed = 1;
nodes = (
"631 687 LINE",
"631 741 LINE",
"498 741 LINE",
"498 687 LINE"
);
},
{
closed = 1;
nodes = (
"822 687 LINE",
"822 741 LINE",
"689 741 LINE",
"689 687 LINE"
);
},
{
closed = 1;
nodes = (
"1028 402 LINE",
"1028 534 LINE",
"975 534 LINE",
"975 402 LINE"
);
},
{
closed = 1;
nodes = (
"1028 593 LINE",
"1028 741 LINE",
"880 741 LINE",
"880 687 LINE",
"975 687 LINE",
"975 593 LINE"
);
}
);
};
layerId = "65D08ED1-0487-4E0A-9DF3-A4513C174D42";
paths = (
{
closed = 1;
nodes = (
"744 160 LINE",
"785 209 OFFCURVE",
"829 245 OFFCURVE",
"876 268 CURVE",
"876 286 LINE",
"829 309 OFFCURVE",
"785 345 OFFCURVE",
"744 394 CURVE",
"709 394 LINE",
"729 352 OFFCURVE",
"748 320 OFFCURVE",
"767 298 CURVE",
"309 298 LINE",
"309 344 LINE",
"270 344 LINE",
"270 210 LINE",
"309 210 LINE",
"309 256 LINE",
"767 256 LINE",
"748 234 OFFCURVE",
"729 202 OFFCURVE",
"709 160 CURVE"
);
},
{
closed = 1;
nodes = (
"248 -187 LINE",
"248 -134 LINE",
"154 -134 LINE",
"154 -39 LINE",
"100 -39 LINE",
"100 -187 LINE"
);
},
{
closed = 1;
nodes = (
"154 19 LINE",
"154 151 LINE",
"100 151 LINE",
"100 19 LINE"
);
},
{
closed = 1;
nodes = (
"439 -187 LINE",
"439 -134 LINE",
"307 -134 LINE",
"307 -187 LINE"
);
},
{
closed = 1;
nodes = (
"154 210 LINE",
"154 343 LINE",
"100 343 LINE",
"100 210 LINE"
);
},
{
closed = 1;
nodes = (
"631 -187 LINE",
"631 -134 LINE",
"498 -134 LINE",
"498 -187 LINE"
);
},
{
closed = 1;
nodes = (
"154 402 LINE",
"154 534 LINE",
"100 534 LINE",
"100 402 LINE"
);
},
{
closed = 1;
nodes = (
"822 -187 LINE",
"822 -134 LINE",
"689 -134 LINE",
"689 -187 LINE"
);
},
{
closed = 1;
nodes = (
"578 160 LINE",
"578 394 LINE",
"539 394 LINE",
"539 160 LINE"
);
},
{
closed = 1;
nodes = (
"154 593 LINE",
"154 687 LINE",
"248 687 LINE",
"248 741 LINE",
"100 741 LINE",
"100 593 LINE"
);
},
{
closed = 1;
nodes = (
"1028 -187 LINE",
"1028 -39 LINE",
"975 -39 LINE",
"975 -134 LINE",
"880 -134 LINE",
"880 -187 LINE"
);
},
{
closed = 1;
nodes = (
"1028 19 LINE",
"1028 151 LINE",
"975 151 LINE",
"975 19 LINE"
);
},
{
closed = 1;
nodes = (
"439 687 LINE",
"439 741 LINE",
"307 741 LINE",
"307 687 LINE"
);
},
{
closed = 1;
nodes = (
"1028 210 LINE",
"1028 343 LINE",
"975 343 LINE",
"975 210 LINE"
);
},
{
closed = 1;
nodes = (
"631 687 LINE",
"631 741 LINE",
"498 741 LINE",
"498 687 LINE"
);
},
{
closed = 1;
nodes = (
"822 687 LINE",
"822 741 LINE",
"689 741 LINE",
"689 687 LINE"
);
},
{
closed = 1;
nodes = (
"1028 402 LINE",
"1028 534 LINE",
"975 534 LINE",
"975 402 LINE"
);
},
{
closed = 1;
nodes = (
"1028 593 LINE",
"1028 741 LINE",
"880 741 LINE",
"880 687 LINE",
"975 687 LINE",
"975 593 LINE"
);
}
);
width = 1128;
}
);
unicode = 1BCA0;
},
{
glyphname = u1BCA1;
lastChange = "2018-08-24 14:17:40 +0000";
layers = (
{
background = {
paths = (
{
closed = 1;
nodes = (
"727 -30 LINE",
"768.333 18.667 OFFCURVE",
"812.333 54.667 OFFCURVE",
"859 78 CURVE",
"859 96 LINE",
"812.333 119.333 OFFCURVE",
"768.333 155.333 OFFCURVE",
"727 204 CURVE",
"692 204 LINE",
"712 162 OFFCURVE",
"731.333 130 OFFCURVE",
"750 108 CURVE",
"583 108 LINE",
"583 562 LINE",
"541 562 LINE",
"541 66 LINE",
"750 66 LINE",
"731.333 44 OFFCURVE",
"712 12 OFFCURVE",
"692 -30 CURVE"
);
},
{
closed = 1;
nodes = (
"248 -187 LINE",
"248 -134 LINE",
"154 -134 LINE",
"154 -39 LINE",
"100 -39 LINE",
"100 -187 LINE"
);
},
{
closed = 1;
nodes = (
"154 19 LINE",
"154 151 LINE",
"100 151 LINE",
"100 19 LINE"
);
},
{
closed = 1;
nodes = (
"439 -187 LINE",
"439 -134 LINE",
"307 -134 LINE",
"307 -187 LINE"
);
},
{
closed = 1;
nodes = (
"154 210 LINE",
"154 343 LINE",
"100 343 LINE",
"100 210 LINE"
);
},
{
closed = 1;
nodes = (
"631 -187 LINE",
"631 -134 LINE",
"498 -134 LINE",
"498 -187 LINE"
);
},
{
closed = 1;
nodes = (
"154 402 LINE",
"154 534 LINE",
"100 534 LINE",
"100 402 LINE"
);
},
{
closed = 1;
nodes = (
"822 -187 LINE",
"822 -134 LINE",
"689 -134 LINE",
"689 -187 LINE"
);
},
{
closed = 1;
nodes = (
"154 593 LINE",
"154 687 LINE",
"248 687 LINE",
"248 741 LINE",
"100 741 LINE",
"100 593 LINE"
);
},
{
closed = 1;
nodes = (
"1028 -187 LINE",
"1028 -39 LINE",
"975 -39 LINE",
"975 -134 LINE",
"880 -134 LINE",
"880 -187 LINE"
);
},
{
closed = 1;
nodes = (
"313 339 LINE",
"313 375 LINE",
"707 375 LINE",
"707 417 LINE",
"313 417 LINE",
"313 453 LINE",
"274 453 LINE",
"274 339 LINE"
);
},
{
closed = 1;
nodes = (
"1028 19 LINE",
"1028 151 LINE",
"975 151 LINE",
"975 19 LINE"
);
},
{
closed = 1;
nodes = (
"439 687 LINE",
"439 741 LINE",
"307 741 LINE",
"307 687 LINE"
);
},
{
closed = 1;
nodes = (
"1028 210 LINE",
"1028 343 LINE",
"975 343 LINE",
"975 210 LINE"
);
},
{
closed = 1;
nodes = (
"631 687 LINE",
"631 741 LINE",
"498 741 LINE",
"498 687 LINE"
);
},
{
closed = 1;
nodes = (
"822 687 LINE",
"822 741 LINE",
"689 741 LINE",
"689 687 LINE"
);
},
{
closed = 1;
nodes = (
"1028 402 LINE",
"1028 534 LINE",
"975 534 LINE",
"975 402 LINE"
);
},
{
closed = 1;
nodes = (
"1028 593 LINE",
"1028 741 LINE",
"880 741 LINE",
"880 687 LINE",
"975 687 LINE",
"975 593 LINE"
);
}
);
};
layerId = "65D08ED1-0487-4E0A-9DF3-A4513C174D42";
paths = (
{
closed = 1;
nodes = (
"727 -30 LINE",
"768 19 OFFCURVE",
"812 55 OFFCURVE",
"859 78 CURVE",
"859 96 LINE",
"812 119 OFFCURVE",
"768 155 OFFCURVE",
"727 204 CURVE",
"692 204 LINE",
"712 162 OFFCURVE",
"731 130 OFFCURVE",
"750 108 CURVE",
"583 108 LINE",
"583 562 LINE",
"541 562 LINE",
"541 66 LINE",
"750 66 LINE",
"731 44 OFFCURVE",
"712 12 OFFCURVE",
"692 -30 CURVE"
);
},
{
closed = 1;
nodes = (
"248 -187 LINE",
"248 -134 LINE",
"154 -134 LINE",
"154 -39 LINE",
"100 -39 LINE",
"100 -187 LINE"
);
},
{
closed = 1;
nodes = (
"154 19 LINE",
"154 151 LINE",
"100 151 LINE",
"100 19 LINE"
);
},
{
closed = 1;
nodes = (
"439 -187 LINE",
"439 -134 LINE",
"307 -134 LINE",
"307 -187 LINE"
);
},
{
closed = 1;
nodes = (
"154 210 LINE",
"154 343 LINE",
"100 343 LINE",
"100 210 LINE"
);
},
{
closed = 1;
nodes = (
"631 -187 LINE",
"631 -134 LINE",
"498 -134 LINE",
"498 -187 LINE"
);
},
{
closed = 1;
nodes = (
"154 402 LINE",
"154 534 LINE",
"100 534 LINE",
"100 402 LINE"
);
},
{
closed = 1;
nodes = (
"822 -187 LINE",
"822 -134 LINE",
"689 -134 LINE",
"689 -187 LINE"
);
},
{
closed = 1;
nodes = (
"154 593 LINE",
"154 687 LINE",
"248 687 LINE",
"248 741 LINE",
"100 741 LINE",
"100 593 LINE"
);
},
{
closed = 1;
nodes = (
"1028 -187 LINE",
"1028 -39 LINE",
"975 -39 LINE",
"975 -134 LINE",
"880 -134 LINE",
"880 -187 LINE"
);
},
{
closed = 1;
nodes = (
"313 339 LINE",
"313 375 LINE",
"707 375 LINE",
"707 417 LINE",
"313 417 LINE",
"313 453 LINE",
"274 453 LINE",
"274 339 LINE"
);
},
{
closed = 1;
nodes = (
"1028 19 LINE",
"1028 151 LINE",
"975 151 LINE",
"975 19 LINE"
);
},
{
closed = 1;
nodes = (
"439 687 LINE",
"439 741 LINE",
"307 741 LINE",
"307 687 LINE"
);
},
{
closed = 1;
nodes = (
"1028 210 LINE",
"1028 343 LINE",
"975 343 LINE",
"975 210 LINE"
);
},
{
closed = 1;
nodes = (
"631 687 LINE",
"631 741 LINE",
"498 741 LINE",
"498 687 LINE"
);
},
{
closed = 1;
nodes = (
"822 687 LINE",
"822 741 LINE",
"689 741 LINE",
"689 687 LINE"
);
},
{
closed = 1;
nodes = (
"1028 402 LINE",
"1028 534 LINE",
"975 534 LINE",
"975 402 LINE"
);
},
{
closed = 1;
nodes = (
"1028 593 LINE",
"1028 741 LINE",
"880 741 LINE",
"880 687 LINE",
"975 687 LINE",
"975 593 LINE"
);
}
);
width = 1128;
}
);
unicode = 1BCA1;
},
{
glyphname = u1BCA2;
lastChange = "2018-08-24 14:18:03 +0000";
layers = (
{
background = {
paths = (
{
closed = 1;
nodes = (
"585 -30 LINE",
"585 453 LINE",
"607 434.333 OFFCURVE",
"639 415 OFFCURVE",
"681 395 CURVE",
"681 430 LINE",
"632.333 471.333 OFFCURVE",
"596.333 515.333 OFFCURVE",
"573 562 CURVE",
"555 562 LINE",
"531.667 515.333 OFFCURVE",
"495.667 471.333 OFFCURVE",
"447 430 CURVE",
"447 395 LINE",
"489 415 OFFCURVE",
"521 434.333 OFFCURVE",
"543 453 CURVE",
"543 -30 LINE"
);
},
{
closed = 1;
nodes = (
"248 -187 LINE",
"248 -134 LINE",
"154 -134 LINE",
"154 -39 LINE",
"100 -39 LINE",
"100 -187 LINE"
);
},
{
closed = 1;
nodes = (
"154 19 LINE",
"154 151 LINE",
"100 151 LINE",
"100 19 LINE"
);
},
{
closed = 1;
nodes = (
"439 -187 LINE",
"439 -134 LINE",
"307 -134 LINE",
"307 -187 LINE"
);
},
{
closed = 1;
nodes = (
"154 210 LINE",
"154 343 LINE",
"100 343 LINE",
"100 210 LINE"
);
},
{
closed = 1;
nodes = (
"631 -187 LINE",
"631 -134 LINE",
"498 -134 LINE",
"498 -187 LINE"
);
},
{
closed = 1;
nodes = (
"154 402 LINE",
"154 534 LINE",
"100 534 LINE",
"100 402 LINE"
);
},
{
closed = 1;
nodes = (
"822 -187 LINE",
"822 -134 LINE",
"689 -134 LINE",
"689 -187 LINE"
);
},
{
closed = 1;
nodes = (
"154 593 LINE",
"154 687 LINE",
"248 687 LINE",
"248 741 LINE",
"100 741 LINE",
"100 593 LINE"
);
},
{
closed = 1;
nodes = (
"1028 -187 LINE",
"1028 -39 LINE",
"975 -39 LINE",
"975 -134 LINE",
"880 -134 LINE",
"880 -187 LINE"
);
},
{
closed = 1;
nodes = (
"1028 19 LINE",
"1028 151 LINE",
"975 151 LINE",
"975 19 LINE"
);
},
{
closed = 1;
nodes = (
"439 687 LINE",
"439 741 LINE",
"307 741 LINE",
"307 687 LINE"
);
},
{
closed = 1;
nodes = (
"1028 210 LINE",
"1028 343 LINE",
"975 343 LINE",
"975 210 LINE"
);
},
{
closed = 1;
nodes = (
"631 687 LINE",
"631 741 LINE",
"498 741 LINE",
"498 687 LINE"
);
},
{
closed = 1;
nodes = (
"822 687 LINE",
"822 741 LINE",
"689 741 LINE",
"689 687 LINE"
);
},
{
closed = 1;
nodes = (
"1028 402 LINE",
"1028 534 LINE",
"975 534 LINE",
"975 402 LINE"
);
},
{
closed = 1;
nodes = (
"1028 593 LINE",
"1028 741 LINE",
"880 741 LINE",
"880 687 LINE",
"975 687 LINE",
"975 593 LINE"
);
}
);
};
layerId = "65D08ED1-0487-4E0A-9DF3-A4513C174D42";
paths = (
{
closed = 1;
nodes = (
"585 -30 LINE",
"585 453 LINE",
"607 434 OFFCURVE",
"639 415 OFFCURVE",
"681 395 CURVE",
"681 430 LINE",
"632 471 OFFCURVE",
"596 515 OFFCURVE",
"573 562 CURVE",
"555 562 LINE",
"532 515 OFFCURVE",
"496 471 OFFCURVE",
"447 430 CURVE",
"447 395 LINE",
"489 415 OFFCURVE",
"521 434 OFFCURVE",
"543 453 CURVE",
"543 -30 LINE"
);
},
{
closed = 1;
nodes = (
"248 -187 LINE",
"248 -134 LINE",
"154 -134 LINE",
"154 -39 LINE",
"100 -39 LINE",
"100 -187 LINE"
);
},
{
closed = 1;
nodes = (
"154 19 LINE",
"154 151 LINE",
"100 151 LINE",
"100 19 LINE"
);
},
{
closed = 1;
nodes = (
"439 -187 LINE",
"439 -134 LINE",
"307 -134 LINE",
"307 -187 LINE"
);
},
{
closed = 1;
nodes = (
"154 210 LINE",
"154 343 LINE",
"100 343 LINE",
"100 210 LINE"
);
},
{
closed = 1;
nodes = (
"631 -187 LINE",
"631 -134 LINE",
"498 -134 LINE",
"498 -187 LINE"
);
},
{
closed = 1;
nodes = (
"154 402 LINE",
"154 534 LINE",
"100 534 LINE",
"100 402 LINE"
);
},
{
closed = 1;
nodes = (
"822 -187 LINE",
"822 -134 LINE",
"689 -134 LINE",
"689 -187 LINE"
);
},
{
closed = 1;
nodes = (
"154 593 LINE",
"154 687 LINE",
"248 687 LINE",
"248 741 LINE",
"100 741 LINE",
"100 593 LINE"
);
},
{
closed = 1;
nodes = (
"1028 -187 LINE",
"1028 -39 LINE",
"975 -39 LINE",
"975 -134 LINE",
"880 -134 LINE",
"880 -187 LINE"
);
},
{
closed = 1;
nodes = (
"1028 19 LINE",
"1028 151 LINE",
"975 151 LINE",
"975 19 LINE"
);
},
{
closed = 1;
nodes = (
"439 687 LINE",
"439 741 LINE",
"307 741 LINE",
"307 687 LINE"
);
},
{
closed = 1;
nodes = (
"1028 210 LINE",
"1028 343 LINE",
"975 343 LINE",
"975 210 LINE"
);
},
{
closed = 1;
nodes = (
"631 687 LINE",
"631 741 LINE",
"498 741 LINE",
"498 687 LINE"
);
},
{
closed = 1;
nodes = (
"822 687 LINE",
"822 741 LINE",
"689 741 LINE",
"689 687 LINE"
);
},
{
closed = 1;
nodes = (
"1028 402 LINE",
"1028 534 LINE",
"975 534 LINE",
"975 402 LINE"
);
},
{
closed = 1;
nodes = (
"1028 593 LINE",
"1028 741 LINE",
"880 741 LINE",
"880 687 LINE",
"975 687 LINE",
"975 593 LINE"
);
}
);
width = 1128;
}
);
unicode = 1BCA2;
},
{
glyphname = u1BCA3;
lastChange = "2018-08-24 14:18:23 +0000";
layers = (
{
background = {
paths = (
{
closed = 1;
nodes = (
"573 -30 LINE",
"596.333 16.667 OFFCURVE",
"632.333 60.667 OFFCURVE",
"681 102 CURVE",
"681 137 LINE",
"639 117 OFFCURVE",
"607 97.667 OFFCURVE",
"585 79 CURVE",
"585 562 LINE",
"543 562 LINE",
"543 79 LINE",
"521 97.667 OFFCURVE",
"489 117 OFFCURVE",
"447 137 CURVE",
"447 102 LINE",
"495.667 60.667 OFFCURVE",
"531.667 16.667 OFFCURVE",
"555 -30 CURVE"
);
},
{
closed = 1;
nodes = (
"248 -187 LINE",
"248 -134 LINE",
"154 -134 LINE",
"154 -39 LINE",
"100 -39 LINE",
"100 -187 LINE"
);
},
{
closed = 1;
nodes = (
"154 19 LINE",
"154 151 LINE",
"100 151 LINE",
"100 19 LINE"
);
},
{
closed = 1;
nodes = (
"439 -187 LINE",
"439 -134 LINE",
"307 -134 LINE",
"307 -187 LINE"
);
},
{
closed = 1;
nodes = (
"154 210 LINE",
"154 343 LINE",
"100 343 LINE",
"100 210 LINE"
);
},
{
closed = 1;
nodes = (
"631 -187 LINE",
"631 -134 LINE",
"498 -134 LINE",
"498 -187 LINE"
);
},
{
closed = 1;
nodes = (
"154 402 LINE",
"154 534 LINE",
"100 534 LINE",
"100 402 LINE"
);
},
{
closed = 1;
nodes = (
"822 -187 LINE",
"822 -134 LINE",
"689 -134 LINE",
"689 -187 LINE"
);
},
{
closed = 1;
nodes = (
"154 593 LINE",
"154 687 LINE",
"248 687 LINE",
"248 741 LINE",
"100 741 LINE",
"100 593 LINE"
);
},
{
closed = 1;
nodes = (
"1028 -187 LINE",
"1028 -39 LINE",
"975 -39 LINE",
"975 -134 LINE",
"880 -134 LINE",
"880 -187 LINE"
);
},
{
closed = 1;
nodes = (
"1028 19 LINE",
"1028 151 LINE",
"975 151 LINE",
"975 19 LINE"
);
},
{
closed = 1;
nodes = (
"439 687 LINE",
"439 741 LINE",
"307 741 LINE",
"307 687 LINE"
);
},
{
closed = 1;
nodes = (
"1028 210 LINE",
"1028 343 LINE",
"975 343 LINE",
"975 210 LINE"
);
},
{
closed = 1;
nodes = (
"631 687 LINE",
"631 741 LINE",
"498 741 LINE",
"498 687 LINE"
);
},
{
closed = 1;
nodes = (
"822 687 LINE",
"822 741 LINE",
"689 741 LINE",
"689 687 LINE"
);
},
{
closed = 1;
nodes = (
"1028 402 LINE",
"1028 534 LINE",
"975 534 LINE",
"975 402 LINE"
);
},
{
closed = 1;
nodes = (
"1028 593 LINE",
"1028 741 LINE",
"880 741 LINE",
"880 687 LINE",
"975 687 LINE",
"975 593 LINE"
);
}
